<svg width="120" height="36" viewBox="0 0 120 36" fill="none" xmlns="http://www.w3.org/2000/svg">
<g opacity="0.5">
<path d="M22.6736 17.6465C22.6736 17.6465 22.0001 17.8145 21.2304 17.8145C20.4607 17.8145 19.7872 17.6465 19.7872 17.6465C20.3201 16.7919 21.2304 16.7627 21.2304 16.7627C21.2304 16.7627 22.1407 16.7919 22.6736 17.6465ZM22.4886 19.0343C22.0223 18.6106 21.9261 18.5595 21.6892 18.5595C21.4524 18.5595 21.3784 18.6472 21.223 18.6472C21.075 18.6472 20.9936 18.5595 20.7567 18.5595C20.5199 18.5595 20.4237 18.6106 19.9574 19.0343C19.4911 19.4579 19.1211 19.5894 19.1211 19.5894C19.839 19.5967 20.3053 19.2315 20.5199 19.1585C20.6235 19.1219 20.9195 19.0635 21.223 19.0635C21.5634 19.0635 21.9113 19.1219 22.0297 19.1585C22.2443 19.2315 22.5996 19.5967 23.3249 19.5894C23.3323 19.5894 22.9548 19.4579 22.4886 19.0343ZM21.2304 20.2906C21.2304 20.2906 20.3275 20.3417 19.8686 20.1226C19.8686 20.1226 20.1202 20.9845 21.2304 20.9845C22.3405 20.9845 22.5922 20.1226 22.5922 20.1226C22.1333 20.3417 21.2304 20.2906 21.2304 20.2906Z" fill="white"/>
<path d="M27.6323 12.6943C26.7441 15.4407 27.4916 16.3975 28.2836 17.3982L28.476 17.6392C28.9126 18.1871 29.6157 19.0563 29.4899 20.4733C29.971 19.4799 30.267 18.3916 30.3558 17.2448C30.1264 15.0171 28.8978 13.4832 27.6323 12.6943Z" fill="white"/>
<path d="M14.8503 12.1321C15.9679 11.5186 17.7663 11.4601 18.425 11.4528C18.4398 11.4528 18.4546 11.4455 18.4694 11.4455C21.0375 11.2483 21.23 9.80208 21.23 9.80208C21.23 9.80208 21.23 11.4528 23.9906 11.4455C24.0202 11.4455 24.0424 11.4528 24.072 11.4528C24.7603 11.4601 26.5143 11.5332 27.6096 12.1321C28.6014 12.6726 29.6005 13.6368 30.2296 14.988C29.8966 13.1474 28.9936 11.4966 27.7133 10.2257C24.516 7.26023 21.23 8.67724 21.23 8.67724C21.23 8.67724 17.9439 7.26023 14.7541 10.2257C13.4663 11.4966 12.5708 13.1474 12.2303 14.9953C12.8594 13.6295 13.866 12.6653 14.8503 12.1321Z" fill="white"/>
<path d="M12.1118 17.238C12.1932 18.392 12.4967 19.4804 12.9777 20.4737C12.8593 19.0494 13.555 18.1802 13.9917 17.6324L14.1841 17.3914C14.976 16.3907 15.7235 15.4339 14.8354 12.6875C13.5624 13.4837 12.3338 15.0175 12.1118 17.238Z" fill="white"/>
<path d="M28.0984 17.9319L27.906 17.6909C27.0622 16.6245 26.1963 15.5142 27.2029 12.4611C26.633 12.1981 25.8855 12.0667 25.2416 11.9936C25.8485 12.5634 26.1667 13.3814 26.1667 13.3814C26.1667 13.3814 24.1018 12.6656 22.3922 12.8993C22.3922 12.8993 22.2664 14.3821 22.7549 15.0395C23.2433 15.6895 24.1981 15.7187 24.8715 15.7187C25.545 15.7187 26.5516 16.2154 26.5516 16.2154C26.5516 16.2154 26.3962 18.1949 26.2185 18.9253C26.0409 19.6557 26.0927 20.671 25.8855 21.1384C25.6783 21.6059 25.3452 23.1179 21.2376 22.9352C17.1301 23.1179 16.797 21.6059 16.5898 21.1384C16.3826 20.671 16.4344 19.6557 16.2568 18.9253C16.0791 18.1949 15.9237 16.2154 15.9237 16.2154C15.9237 16.2154 16.9303 15.7187 17.6037 15.7187C18.2772 15.7187 19.232 15.6895 19.7204 15.0395C20.2089 14.3894 20.0831 12.8993 20.0831 12.8993C18.3809 12.6656 16.3086 13.3814 16.3086 13.3814C16.3086 13.3814 16.6416 12.5634 17.2929 11.9863C16.6342 12.0521 15.8645 12.1835 15.2724 12.4611C16.2864 15.5215 15.413 16.6245 14.5693 17.6909L14.3769 17.9319C13.8144 18.6258 12.9041 19.7579 13.881 21.9492C15.5463 24.1697 18.2254 25.6159 21.2376 25.6159C24.2573 25.6159 26.929 24.177 28.5943 21.9492C29.5638 19.7579 28.6535 18.6258 28.0984 17.9319ZM24.5015 13.8635C24.0204 13.8343 23.4209 13.9073 23.4209 13.9073C23.4209 13.9073 23.5616 13.2865 24.5459 13.3887C25.5894 13.491 25.5894 14.1045 25.5894 14.1045C25.5894 14.1045 24.9826 13.8854 24.5015 13.8635ZM17.9146 13.3814C18.8989 13.2792 19.0395 13.9 19.0395 13.9C19.0395 13.9 18.4327 13.8343 17.959 13.8562C17.4779 13.8854 16.8784 14.0899 16.8784 14.0899C16.8784 14.0899 16.8784 13.4837 17.9146 13.3814Z" fill="white"/>
<path d="M14.9985 8.44376L14.5914 8.22464L13.9401 8.76514L14.0956 9.19609L13.6515 9.5686L12.9336 7.31892L13.3258 6.99023L15.4499 8.06395L14.9985 8.44376ZM13.5035 7.61109L13.7773 8.35611L14.1992 8.00551L13.5035 7.61109Z" fill="white"/>
<path d="M16.9153 7.32576L16.0938 6.77064L15.931 6.85099L16.3232 7.61792L15.857 7.85166L14.8652 5.90875L15.6127 5.53624C15.7089 5.49242 15.8052 5.45589 15.9014 5.42668C15.9976 5.39746 16.1012 5.39016 16.19 5.40477C16.2788 5.41937 16.375 5.44859 16.4565 5.49972C16.5379 5.55085 16.6045 5.6385 16.6637 5.74806C16.7303 5.87953 16.7525 6.01101 16.7229 6.13518C16.6933 6.25935 16.6267 6.37622 16.5231 6.47847L17.463 7.0555L16.9153 7.32576ZM16.2048 5.9891C16.1826 5.94527 16.153 5.90875 16.116 5.89414C16.079 5.87953 16.042 5.86493 16.005 5.86493C15.968 5.86493 15.9236 5.87223 15.8866 5.88684C15.8422 5.90145 15.8052 5.91606 15.7756 5.93066L15.5239 6.05483L15.7534 6.50769L15.9828 6.39813C16.0198 6.37622 16.0568 6.3543 16.1012 6.33239C16.1382 6.30318 16.1678 6.27396 16.1974 6.24474C16.2196 6.20822 16.2344 6.1717 16.2418 6.13518C16.2418 6.08405 16.2344 6.04023 16.2048 5.9891Z" fill="white"/>
<path d="M18.4844 4.98179L18.9211 6.65444L18.403 6.78592L17.9664 5.11327L17.3669 5.26665L17.2559 4.83571L18.9729 4.39746L19.0839 4.82841L18.4844 4.98179Z" fill="white"/>
<path d="M21.0892 5.47842L21.1188 6.39874L20.586 6.42066L20.5563 5.50033L19.6904 4.27324L20.3343 4.25132L20.8302 5.04017L21.2668 4.22211L21.8885 4.2002L21.0892 5.47842Z" fill="white"/>
<path d="M24.3537 6.83622L24.7237 5.34617H24.7163L23.7986 6.71205L23.436 6.6244L23.2509 5.00288H23.2435L22.8957 6.50023L22.4072 6.38336L22.9105 4.27246L23.6432 4.44046L23.806 5.90859H23.8208L24.6127 4.65958L25.3602 4.83488L24.857 6.94578L24.3537 6.83622Z" fill="white"/>
<path d="M26.9065 6.97518L26.455 7.77864L25.9888 7.523L26.4402 6.71954L26.3292 5.22949L26.8917 5.53627L26.9139 6.46389L27.7206 5.98182L28.2683 6.27399L26.9065 6.97518Z" fill="white"/>
<path d="M29.4969 8.02746C29.5043 7.95441 29.4895 7.88137 29.4525 7.80833C29.4229 7.73529 29.3785 7.67686 29.3267 7.63303C29.2971 7.61112 29.2675 7.58921 29.2379 7.56729C29.2083 7.54538 29.1713 7.53808 29.1417 7.53077C29.1047 7.52347 29.0751 7.52347 29.0381 7.53077C29.0085 7.53808 28.9715 7.55999 28.9419 7.58921C28.9197 7.61842 28.9049 7.64764 28.8975 7.67686C28.8901 7.70607 28.8975 7.73529 28.9049 7.77181C28.9123 7.80833 28.9345 7.83755 28.9493 7.88137C28.9715 7.91789 28.9937 7.96172 29.0233 8.00554C29.0603 8.07128 29.1047 8.14432 29.1417 8.21736C29.1861 8.29041 29.2083 8.37075 29.2305 8.4511C29.2453 8.53144 29.2453 8.61179 29.2305 8.69213C29.2157 8.77248 29.1713 8.86013 29.0973 8.94047C29.0159 9.03543 28.9271 9.10117 28.8309 9.13769C28.7346 9.17421 28.6384 9.18882 28.5422 9.18151C28.446 9.17421 28.3498 9.15229 28.2536 9.10847C28.1574 9.06465 28.0685 9.00621 27.9871 8.93317C27.8687 8.83091 27.7725 8.71405 27.6985 8.57527C27.6245 8.43649 27.5801 8.29771 27.5801 8.15893L28.0759 8.12241C28.0759 8.21006 28.0908 8.29041 28.1278 8.38536C28.1648 8.47301 28.2166 8.54605 28.2832 8.60448C28.3128 8.6337 28.3424 8.64831 28.3794 8.67022C28.4164 8.68483 28.446 8.69944 28.483 8.70674C28.5126 8.71405 28.5496 8.70674 28.5792 8.69213C28.6088 8.67753 28.6458 8.65561 28.668 8.6264C28.6976 8.59718 28.7124 8.56066 28.7124 8.52414C28.7124 8.48762 28.7124 8.4511 28.6976 8.40727C28.6828 8.36345 28.6606 8.31962 28.631 8.26849C28.6014 8.21736 28.5644 8.15893 28.5274 8.09319C28.4904 8.02746 28.4534 7.96902 28.4238 7.89598C28.3942 7.83024 28.372 7.7572 28.3646 7.69147C28.3572 7.61842 28.3646 7.55269 28.3868 7.47964C28.409 7.4066 28.4534 7.33356 28.52 7.26052C28.6014 7.17287 28.6902 7.10713 28.7864 7.07792C28.8827 7.0487 28.9789 7.03409 29.0751 7.0487C29.1713 7.06331 29.2675 7.08522 29.3637 7.13635C29.4599 7.18017 29.5413 7.23861 29.6228 7.30434C29.719 7.38469 29.8004 7.48695 29.867 7.60381C29.9336 7.72068 29.978 7.84485 29.9928 7.97633L29.4969 8.02746Z" fill="white"/>
<path d="M21.2304 7.64746C19.8761 7.64746 19.3506 8.01997 19.3506 8.01997C20.0167 7.95423 21.2304 8.30483 21.2304 8.30483C21.2304 8.30483 22.4442 7.96154 23.1103 8.01997C23.1103 8.01997 22.5848 7.64746 21.2304 7.64746Z" fill="white"/>
<path d="M19.3794 27.5225L19.8308 26.7482C14.7759 26.0689 10.883 21.796 10.883 16.6247C10.883 14.1632 11.7637 11.9062 13.2365 10.1386L10.9866 8.86035L9.29918 11.7455L10.8016 12.6001C10.5055 13.3524 10.2835 14.1413 10.1577 14.9593H8.41846V18.29H10.1577C10.2835 19.1154 10.4981 19.9042 10.7942 20.6492L9.29178 21.5038L10.9792 24.389L12.4816 23.5271C12.9997 24.1625 13.5844 24.7396 14.2282 25.2509L13.3549 26.7409L16.2783 28.4063L17.1442 26.9235C17.8621 27.1865 18.6096 27.391 19.3794 27.5225Z" fill="white"/>
<path d="M34.0414 18.2895V14.9588H32.3021C32.1763 14.1335 31.9617 13.3446 31.6657 12.5996L33.1681 11.745L31.4806 8.86719L29.2381 10.1454C30.7035 11.9057 31.5842 14.1627 31.5842 16.6242C31.5842 21.7882 27.7061 26.0539 22.666 26.7404L23.1101 27.5147C23.8724 27.3905 24.6051 27.186 25.3008 26.9157L26.1667 28.3985L29.0901 26.7331L28.2242 25.2504C28.8681 24.7391 29.4527 24.1621 29.9708 23.5266L31.4806 24.3885L33.1607 21.5034L31.6583 20.6488C31.9543 19.8965 32.1763 19.1076 32.3021 18.2895H34.0414Z" fill="white"/>
<path d="M21.2451 26.2363L23.458 30.0637H19.0322L21.2451 26.2363Z" fill="white"/>
<path d="M4.05217 14.6594L3.5415 14.5864C4.72567 6.40574 12.5041 0 21.2521 0C25.5447 0 29.7263 1.49005 33.0197 4.18528C36.3206 6.89512 38.4447 10.591 39.0072 14.5937L38.4965 14.6667C37.9562 10.7882 35.8987 7.2092 32.6941 4.58701C29.4969 1.96482 25.4337 0.518595 21.2595 0.518595C12.7558 0.51129 5.20673 6.72712 4.05217 14.6594Z" fill="white"/>
<path d="M38.9997 16.5371L39.6288 17.6254H38.3706L38.9997 16.5371Z" fill="white"/>
<path d="M3.57879 16.6094L4.20788 17.6977H2.94971L3.57879 16.6094Z" fill="white"/>
<path d="M4.38537 19.0781L4.47418 19.6844C4.48898 19.772 4.48898 19.8524 4.48898 19.9254C4.48158 20.0058 4.46678 20.0715 4.43717 20.1372C4.40757 20.1957 4.36316 20.2541 4.30395 20.2906C4.24475 20.3344 4.16334 20.3637 4.06712 20.3783C3.97091 20.3929 3.8895 20.3856 3.81549 20.3637C3.74888 20.3417 3.68967 20.3052 3.63786 20.2614C3.58606 20.2176 3.55645 20.1518 3.52685 20.0788C3.49724 20.0058 3.48244 19.9254 3.46764 19.8451L3.43064 19.5821L2.78675 19.6698L2.72754 19.3119L4.38537 19.0781ZM3.73408 19.5383L3.77108 19.7793C3.77848 19.8085 3.78588 19.8451 3.79328 19.8743C3.80069 19.9035 3.81549 19.9254 3.83769 19.9473C3.85989 19.9692 3.8821 19.9838 3.9043 19.9984C3.9339 20.0131 3.96351 20.0131 4.00791 20.0058C4.05232 19.9984 4.08192 19.9838 4.10413 19.9619C4.12633 19.94 4.14113 19.9108 4.15593 19.8816C4.16334 19.8524 4.17074 19.8158 4.17074 19.7793C4.17074 19.7428 4.16334 19.7063 4.16334 19.6698L4.13373 19.4872L3.73408 19.5383Z" fill="white"/>
<path d="M4.78522 21.3057L4.96284 21.9192C4.98505 21.9996 4.99985 22.0799 5.00725 22.1529C5.01465 22.2333 5.00725 22.299 4.98505 22.3648C4.96284 22.4305 4.92584 22.4889 4.87403 22.5401C4.82222 22.5912 4.74821 22.6277 4.652 22.6569C4.54099 22.6861 4.42997 22.6861 4.33376 22.6496C4.23754 22.6131 4.16353 22.5401 4.11173 22.4378L3.54925 23.0367L3.43083 22.6131L3.97851 22.1018L3.9267 21.9265L3.28281 22.1091L3.1792 21.7585L4.78522 21.3057ZM4.21534 21.8462L4.27455 22.0507C4.28195 22.0799 4.29675 22.1164 4.30415 22.1529C4.31895 22.1895 4.33376 22.2187 4.35596 22.2406C4.37816 22.2625 4.40037 22.2844 4.42997 22.299C4.45957 22.3136 4.49658 22.3136 4.54099 22.299C4.58539 22.2844 4.615 22.2698 4.6298 22.2479C4.652 22.226 4.6594 22.1968 4.6668 22.1676C4.6742 22.1383 4.6742 22.1091 4.6668 22.0726C4.6594 22.0361 4.652 22.0069 4.6446 21.9776L4.57799 21.7512L4.21534 21.8462Z" fill="white"/>
<path d="M4.68878 23.7609C4.8072 23.7025 4.93301 23.6733 5.05143 23.6733C5.16985 23.666 5.28086 23.6879 5.38448 23.7244C5.48809 23.7682 5.5843 23.8267 5.66571 23.907C5.74712 23.9874 5.82113 24.0896 5.87294 24.2065C5.92475 24.3233 5.96175 24.4402 5.96915 24.5571C5.97656 24.6739 5.96175 24.7835 5.93215 24.8858C5.90255 24.988 5.83594 25.083 5.75453 25.1706C5.67311 25.2583 5.5769 25.324 5.45108 25.3824C5.33267 25.4409 5.20685 25.4701 5.08843 25.4701C4.97002 25.4774 4.859 25.4555 4.75539 25.419C4.65177 25.3751 4.55556 25.3167 4.47415 25.2364C4.39274 25.156 4.31873 25.0538 4.26692 24.9369C4.21512 24.82 4.17811 24.7032 4.17071 24.5863C4.16331 24.4694 4.17811 24.3599 4.20771 24.2576C4.24472 24.1553 4.30393 24.0604 4.38534 23.9727C4.46675 23.8851 4.57036 23.8194 4.68878 23.7609ZM4.8516 24.1042C4.77759 24.1334 4.71838 24.1773 4.66658 24.2284C4.61477 24.2795 4.57776 24.3306 4.55556 24.3964C4.53336 24.4548 4.51856 24.5206 4.51856 24.5936C4.51856 24.6593 4.54076 24.7324 4.57036 24.8054C4.59997 24.8785 4.64437 24.9369 4.69618 24.9807C4.74799 25.0245 4.8072 25.0611 4.8664 25.083C4.92561 25.1049 4.99222 25.1122 5.06623 25.1049C5.13284 25.0976 5.20685 25.083 5.28086 25.0465C5.34747 25.0172 5.41408 24.9734 5.45849 24.9223C5.51029 24.8712 5.5473 24.82 5.5695 24.7543C5.5917 24.6959 5.60651 24.6301 5.60651 24.5571C5.60651 24.4913 5.5843 24.4183 5.5547 24.3453C5.52509 24.2722 5.48069 24.2138 5.42888 24.17C5.37707 24.1261 5.31787 24.0896 5.25866 24.0677C5.19945 24.0458 5.12544 24.0385 5.05883 24.0458C4.99222 24.0531 4.92561 24.075 4.8516 24.1042Z" fill="white"/>
<path d="M6.64253 26.3754L6.3835 25.981L6.65733 25.8057L7.38263 26.9013L7.1088 27.0766L6.84976 26.6822L5.71741 27.4126L5.51758 27.1058L6.64253 26.3754Z" fill="white"/>
<path d="M7.98985 27.6826L8.72995 28.5372L8.47091 28.7563L7.96764 28.1793L7.73081 28.3838L8.20448 28.9316L7.94544 29.1508L7.47178 28.6029L7.21274 28.8221L7.73821 29.4283L7.47918 29.6474L6.70947 28.7636L7.98985 27.6826Z" fill="white"/>
<path d="M10.0621 30.3777C10.0621 30.3192 10.0547 30.2681 10.0325 30.217C10.0103 30.1658 9.9733 30.1147 9.92149 30.0709C9.86968 30.0271 9.81048 29.9905 9.75127 29.9759C9.69206 29.954 9.62545 29.954 9.55884 29.9613C9.49223 29.9686 9.43302 29.9905 9.36641 30.0197C9.30721 30.0563 9.248 30.1001 9.19619 30.1585C9.14438 30.217 9.10738 30.2754 9.07777 30.3411C9.05557 30.4069 9.04077 30.4726 9.04077 30.531C9.04077 30.5968 9.05557 30.6552 9.07777 30.7136C9.09998 30.7721 9.14438 30.8232 9.18879 30.867C9.248 30.9182 9.30721 30.9474 9.37382 30.962C9.44042 30.9766 9.50703 30.9766 9.56624 30.9547L9.64765 31.3272C9.52924 31.3564 9.41082 31.3491 9.29981 31.3126C9.18879 31.2761 9.08518 31.2176 9.00376 31.1446C8.90755 31.0569 8.82614 30.962 8.77433 30.8597C8.71512 30.7575 8.68552 30.6479 8.67812 30.5456C8.67072 30.4361 8.68552 30.3265 8.72253 30.217C8.75953 30.1074 8.82614 30.0051 8.91495 29.9029C9.00376 29.8006 9.09998 29.7276 9.20359 29.6765C9.30721 29.6253 9.41822 29.5961 9.52924 29.5961C9.64025 29.5888 9.75127 29.6107 9.86228 29.6545C9.9733 29.6984 10.0769 29.7568 10.1731 29.8445C10.2101 29.8737 10.2397 29.9102 10.2767 29.954C10.3063 29.9905 10.3359 30.0344 10.3656 30.0855C10.3878 30.1293 10.41 30.1804 10.4248 30.2316C10.4396 30.2827 10.447 30.3411 10.4396 30.3996L10.0621 30.3777Z" fill="white"/>
<path d="M11.4829 31.2988L11.0833 31.0359L11.2609 30.7656L12.3636 31.4887L12.186 31.759L11.7864 31.496L11.0389 32.6063L10.728 32.4018L11.4829 31.2988Z" fill="white"/>
<path d="M14.5764 33.9137L14.0361 33.6946L14.1471 33.4316L14.6874 33.6508L14.5764 33.9137Z" fill="white"/>
<path d="M18.218 34.0742C18.1958 34.0304 18.1587 33.9939 18.1143 33.972C18.0699 33.9427 18.0181 33.9281 17.9737 33.9208C17.9441 33.9135 17.9219 33.9135 17.8923 33.9135C17.8627 33.9135 17.8331 33.9208 17.8109 33.9281C17.7813 33.9354 17.7591 33.95 17.7369 33.972C17.7147 33.9939 17.7073 34.0158 17.6999 34.045C17.6925 34.0961 17.6999 34.1326 17.7369 34.1692C17.7665 34.2057 17.8109 34.2349 17.8627 34.2641C17.9145 34.2933 17.9737 34.3226 18.0329 34.3518C18.0921 34.381 18.1513 34.4175 18.2032 34.4613C18.255 34.5052 18.292 34.5563 18.3142 34.622C18.3438 34.6878 18.3438 34.7681 18.329 34.8631C18.3142 34.9507 18.2772 35.0311 18.2328 35.0895C18.1884 35.1479 18.1291 35.199 18.0625 35.2283C17.9959 35.2648 17.9219 35.2794 17.8405 35.2867C17.7591 35.294 17.6777 35.2867 17.5889 35.2721C17.4853 35.2502 17.389 35.221 17.3002 35.1698C17.2114 35.1187 17.1374 35.053 17.0708 34.9653L17.3816 34.7316C17.4112 34.79 17.4483 34.8338 17.5001 34.8704C17.5519 34.9069 17.6111 34.9288 17.6703 34.9434C17.6999 34.9507 17.7295 34.9507 17.7591 34.9507C17.7887 34.9507 17.8183 34.9434 17.8479 34.9361C17.8775 34.9288 17.8997 34.9142 17.9145 34.8923C17.9293 34.8704 17.9441 34.8485 17.9515 34.8192C17.9589 34.7681 17.9515 34.7316 17.9145 34.6951C17.8849 34.6585 17.8405 34.6293 17.7887 34.5928C17.7369 34.5636 17.6777 34.5271 17.6111 34.4979C17.5445 34.4686 17.4927 34.4248 17.4409 34.381C17.389 34.3372 17.352 34.286 17.3224 34.2203C17.2928 34.1546 17.2928 34.0815 17.3076 33.9939C17.3224 33.9062 17.3594 33.8332 17.4038 33.7747C17.4483 33.7163 17.5075 33.6725 17.5741 33.636C17.6407 33.5994 17.7147 33.5848 17.7961 33.5702C17.8775 33.5629 17.9589 33.5629 18.0403 33.5775C18.1365 33.5921 18.218 33.6214 18.2994 33.6652C18.3808 33.709 18.4548 33.7674 18.5066 33.8405L18.218 34.0742Z" fill="white"/>
<path d="M20.1569 33.877L20.4603 33.8916L21.1116 35.5788L20.6971 35.5569L20.5713 35.199L19.92 35.1698L19.7646 35.5131L19.3575 35.4912L20.1569 33.877ZM20.2753 34.3663L20.0458 34.8703L20.4529 34.8922L20.2753 34.3663Z" fill="white"/>
<path d="M21.8516 33.9127L22.2734 33.8762L22.7841 34.9207H22.7915L23.1097 33.8031L23.502 33.7666L22.9617 35.4758L22.6657 35.505L21.8516 33.9127Z" fill="white"/>
<path d="M24.4717 33.5916L25.5818 33.3359L25.6632 33.6646L24.9157 33.8399L24.9898 34.1394L25.7002 33.9714L25.7817 34.3001L25.0712 34.4681L25.1526 34.7968L25.9445 34.6142L26.0259 34.9428L24.8787 35.2131L24.4717 33.5916Z" fill="white"/>
<path d="M29.0233 33.3435L28.4978 33.5846L28.3794 33.3289L28.9049 33.0879L29.0233 33.3435Z" fill="white"/>
<path d="M30.7036 30.977L31.2217 30.5972C31.2883 30.546 31.3623 30.5095 31.4289 30.473C31.5029 30.4438 31.5695 30.4219 31.6435 30.4219C31.7102 30.4219 31.7842 30.4365 31.8508 30.4657C31.9174 30.4949 31.9766 30.5533 32.0358 30.6264C32.1098 30.7213 32.1394 30.8163 32.1394 30.9186C32.1394 31.0208 32.095 31.1158 32.0136 31.2034L32.7759 31.5102L32.4207 31.7731L31.7398 31.4518L31.5917 31.5613L31.9914 32.0945L31.6953 32.3137L30.7036 30.977ZM31.4141 31.313L31.5917 31.1815C31.6213 31.1596 31.6435 31.1377 31.6731 31.1158C31.7028 31.0939 31.725 31.0646 31.7398 31.0427C31.7546 31.0208 31.762 30.9843 31.7694 30.9551C31.7694 30.9259 31.7546 30.8893 31.7324 30.8528C31.7102 30.8163 31.6805 30.7944 31.6509 30.7871C31.6213 30.7798 31.5917 30.7725 31.5621 30.7798C31.5325 30.7871 31.5029 30.7944 31.4733 30.809C31.4437 30.8236 31.4141 30.8455 31.3845 30.8601L31.1921 30.9989L31.4141 31.313Z" fill="white"/>
<path d="M32.5391 29.5379L33.3532 28.749L33.59 28.9901L33.0423 29.5233L33.2644 29.7424L33.7824 29.2384L34.0193 29.4794L33.5012 29.9834L33.738 30.2245L34.3153 29.662L34.5521 29.9031L33.7084 30.7211L32.5391 29.5379Z" fill="white"/>
<path d="M34.1079 27.9089L34.4928 27.4195C34.5372 27.3611 34.589 27.31 34.6408 27.2589C34.6926 27.2077 34.7518 27.1712 34.811 27.142C34.8702 27.1128 34.9368 27.1055 35.0034 27.1055C35.07 27.1128 35.1366 27.142 35.2107 27.1931C35.2847 27.2516 35.3291 27.3173 35.3513 27.3976C35.3735 27.478 35.3587 27.5583 35.3291 27.6387H35.3365C35.3735 27.6021 35.4179 27.5729 35.4623 27.551C35.5067 27.5291 35.5511 27.5145 35.6029 27.5145C35.6473 27.5072 35.6991 27.5145 35.7435 27.5291C35.7953 27.5437 35.8397 27.5656 35.8767 27.6021C35.9434 27.6533 35.9952 27.7117 36.0174 27.7774C36.0396 27.8432 36.047 27.9089 36.0396 27.982C36.0322 28.0477 36.01 28.1207 35.9804 28.1865C35.9434 28.2522 35.9064 28.318 35.8619 28.3764L35.4401 28.9096L34.1079 27.9089ZM34.8628 28.0258L35.0256 27.814C35.0404 27.7921 35.0552 27.7701 35.07 27.7409C35.0848 27.7117 35.0922 27.6898 35.0922 27.6606C35.0922 27.6314 35.0922 27.6095 35.0774 27.5875C35.07 27.5656 35.0478 27.5437 35.0256 27.5218C34.996 27.4999 34.9738 27.4926 34.9442 27.4853C34.9146 27.4853 34.8924 27.4853 34.8702 27.4999C34.848 27.5072 34.8258 27.5291 34.7962 27.5437C34.774 27.5656 34.7518 27.5875 34.737 27.6095L34.5816 27.8067L34.8628 28.0258ZM35.4105 28.4421L35.6103 28.1865C35.6251 28.1646 35.6399 28.1427 35.6547 28.1134C35.6695 28.0842 35.6769 28.0623 35.6769 28.0331C35.6769 28.0039 35.6769 27.9747 35.6621 27.9528C35.6547 27.9235 35.6325 27.9016 35.6029 27.8797C35.5733 27.8578 35.5437 27.8432 35.5067 27.8432C35.4771 27.8432 35.4475 27.8505 35.4179 27.8651C35.3883 27.8797 35.3661 27.9016 35.3365 27.9235C35.3069 27.9454 35.2921 27.9747 35.2699 27.9966L35.0996 28.2157L35.4105 28.4421Z" fill="white"/>
<path d="M37.0679 25.3311C37.1567 25.3823 37.2233 25.4334 37.2825 25.5064C37.3417 25.5722 37.3787 25.6452 37.4083 25.7256C37.4379 25.8059 37.4379 25.8936 37.4231 25.9885C37.4083 26.0835 37.3787 26.1784 37.3195 26.2734C37.2603 26.3756 37.1937 26.456 37.1197 26.5144C37.0457 26.5728 36.9642 26.6167 36.8828 26.6313C36.8014 26.6532 36.7126 26.6532 36.6238 26.6386C36.535 26.624 36.4462 26.5948 36.3648 26.5436L35.4692 26.0469L35.6543 25.7329L36.5424 26.2222C36.5868 26.2442 36.6312 26.2661 36.683 26.2734C36.7274 26.2807 36.7718 26.2807 36.8162 26.2661C36.8606 26.2588 36.8976 26.2368 36.9346 26.2076C36.9716 26.1784 37.0012 26.1492 37.0234 26.1054C37.0457 26.0615 37.0605 26.0177 37.0679 25.9739C37.0753 25.9301 37.0679 25.8862 37.0531 25.8424C37.0383 25.7986 37.016 25.7621 36.9864 25.7256C36.9568 25.689 36.9198 25.6598 36.8754 25.6306L35.9873 25.1412L36.1723 24.8271L37.0679 25.3311Z" fill="white"/>
<path d="M36.6392 23.8038L36.7798 23.4678L38.3266 24.1032L38.186 24.4392L36.6392 23.8038Z" fill="white"/>
<path d="M37.1792 22.3948L37.2828 22.0442L38.5632 22.4167L38.7556 21.7666L39.0813 21.8616L38.7852 22.8622L37.1792 22.3948Z" fill="white"/>
<path d="M37.6973 20.4304L37.7787 19.8899C37.8009 19.7584 37.8305 19.6342 37.8823 19.5247C37.9267 19.4078 37.9933 19.3129 38.0747 19.2398C38.1561 19.1595 38.2523 19.101 38.3634 19.0645C38.4744 19.028 38.6076 19.0207 38.763 19.0426C38.8962 19.0645 39.0146 19.101 39.1035 19.1668C39.1997 19.2325 39.2737 19.3129 39.3329 19.4078C39.3921 19.5028 39.4291 19.605 39.4439 19.7219C39.4661 19.8388 39.4661 19.9556 39.4439 20.0798L39.3551 20.6714L37.6973 20.4304ZM39.0739 20.2624L39.1035 20.0725C39.1183 19.9921 39.1183 19.9118 39.1109 19.8388C39.1035 19.7657 39.0887 19.7 39.0517 19.6415C39.0146 19.5831 38.9702 19.532 38.911 19.4955C38.8518 19.4589 38.7704 19.4297 38.6816 19.4151C38.6002 19.4005 38.5262 19.4078 38.4596 19.4297C38.393 19.4516 38.3412 19.4808 38.2893 19.532C38.2375 19.5831 38.2079 19.6342 38.1783 19.7C38.1487 19.7657 38.1265 19.8388 38.1191 19.9118L38.0895 20.1236L39.0739 20.2624Z" fill="white"/>
<path d="M48.2736 9.78027H49.924L53.8688 18.7279H51.6189L50.8344 16.8288H47.3115L46.5566 18.7279H44.3511L48.2736 9.78027ZM49.0433 12.3879L47.9406 15.1707H50.1535L49.0433 12.3879Z" fill="white"/>
<path d="M56.7773 9.78027H60.2854C60.7443 9.78027 61.1809 9.8241 61.5954 9.91175C62.0099 9.9994 62.3725 10.1455 62.6833 10.3573C62.9942 10.5618 63.2458 10.8394 63.4234 11.19C63.6085 11.5406 63.6973 11.9788 63.6973 12.4974C63.6973 13.1329 63.5345 13.6661 63.2014 14.1116C62.8684 14.5572 62.3799 14.8347 61.7434 14.9516L64.0451 18.7279H61.6546L59.7599 15.1488H58.7756V18.7279H56.7773V9.78027ZM58.7756 13.4835H59.9524C60.13 13.4835 60.3224 13.4762 60.5223 13.4616C60.7221 13.447 60.9071 13.4104 61.0699 13.3447C61.2327 13.279 61.366 13.184 61.4696 13.0452C61.5732 12.9138 61.6324 12.7238 61.6324 12.4755C61.6324 12.2491 61.588 12.0665 61.4918 11.935C61.3956 11.8035 61.2772 11.694 61.1365 11.6282C60.9885 11.5552 60.8257 11.5114 60.6407 11.4821C60.4556 11.4602 60.2706 11.4456 60.093 11.4456H58.7904V13.4835H58.7756Z" fill="white"/>
<path d="M68.5966 11.526H66.0137V9.78027H73.1853V11.526H70.6023V18.7279H68.604V11.526H68.5966Z" fill="white"/>
<path d="M78.4098 14.9156L75.0054 9.78809H77.4921L79.4164 13.1334L81.4516 9.78809H83.82L80.4155 14.9156V18.7284H78.4172L78.4098 14.9156Z" fill="white"/>
<path d="M86.4771 9.78027H89.4967L91.5837 15.6163H91.606L93.7078 9.78027H96.72V18.7279H94.7218V11.8693H94.6996L92.3164 18.7279H90.7918L88.4975 11.8693H88.4753V18.7279H86.4771V9.78027Z" fill="white"/>
<path d="M102.789 14.9156L99.3848 9.78809H101.872L103.796 13.1334L105.831 9.78809H108.199L104.795 14.9156V18.7284H102.797L102.789 14.9156Z" fill="white"/>
<path d="M115.341 11.9646C115.179 11.7601 114.957 11.614 114.683 11.519C114.409 11.4241 114.142 11.373 113.898 11.373C113.75 11.373 113.602 11.3876 113.447 11.4241C113.291 11.4606 113.151 11.5117 113.01 11.5848C112.877 11.6578 112.766 11.7528 112.677 11.8696C112.588 11.9865 112.551 12.1326 112.551 12.3006C112.551 12.5708 112.655 12.7753 112.862 12.9214C113.069 13.0675 113.328 13.1844 113.639 13.2866C113.95 13.3889 114.283 13.4912 114.646 13.5934C115.008 13.6957 115.341 13.8345 115.652 14.0244C115.963 14.207 116.222 14.4553 116.429 14.7694C116.637 15.0835 116.74 15.4998 116.74 16.0184C116.74 16.5151 116.644 16.946 116.459 17.3185C116.274 17.691 116.015 17.9978 115.697 18.2389C115.378 18.4799 115.008 18.6625 114.579 18.7794C114.157 18.8962 113.713 18.9547 113.24 18.9547C112.647 18.9547 112.107 18.867 111.604 18.6917C111.101 18.5164 110.634 18.2315 110.198 17.8298L111.619 16.2886C111.826 16.5589 112.085 16.7634 112.396 16.9168C112.707 17.0629 113.032 17.1359 113.365 17.1359C113.528 17.1359 113.691 17.114 113.861 17.0775C114.024 17.041 114.179 16.9825 114.313 16.9095C114.446 16.8365 114.55 16.7342 114.631 16.6173C114.712 16.5005 114.749 16.3617 114.749 16.201C114.749 15.9307 114.646 15.7189 114.439 15.5655C114.231 15.4121 113.965 15.2807 113.654 15.1711C113.336 15.0615 112.995 14.952 112.633 14.8424C112.263 14.7329 111.922 14.5868 111.611 14.3969C111.293 14.2143 111.034 13.9659 110.827 13.6665C110.62 13.3597 110.516 12.9653 110.516 12.4686C110.516 11.9865 110.612 11.5702 110.805 11.205C110.997 10.8397 111.256 10.5403 111.574 10.2919C111.893 10.0509 112.263 9.86099 112.684 9.74413C113.099 9.61996 113.536 9.56152 113.98 9.56152C114.49 9.56152 114.986 9.63457 115.467 9.77334C115.948 9.91943 116.378 10.1532 116.762 10.4965L115.341 11.9646Z" fill="white"/>
<path d="M46.4307 24.0384C46.3715 23.9654 46.2974 23.9142 46.216 23.8777C46.1272 23.8412 46.031 23.8193 45.92 23.8193C45.809 23.8193 45.7054 23.8412 45.6091 23.885C45.5129 23.9289 45.4315 23.9873 45.3575 24.0676C45.2835 24.148 45.2317 24.2356 45.1947 24.3452C45.1577 24.4548 45.1355 24.5643 45.1355 24.6885C45.1355 24.8127 45.1577 24.9295 45.1947 25.0391C45.2317 25.1413 45.2909 25.2363 45.3575 25.3093C45.4241 25.3897 45.5055 25.4481 45.6017 25.4919C45.698 25.5358 45.7942 25.5577 45.9052 25.5577C46.031 25.5577 46.1346 25.5358 46.2308 25.4846C46.327 25.4335 46.4011 25.3605 46.4677 25.2728L46.9709 25.638C46.8525 25.7987 46.7119 25.9156 46.5343 25.9886C46.3567 26.0617 46.1716 26.1055 45.9866 26.1055C45.772 26.1055 45.5795 26.069 45.3945 26.0032C45.2095 25.9375 45.0615 25.8425 44.9283 25.7184C44.795 25.5942 44.6988 25.4481 44.6248 25.2728C44.5508 25.0975 44.5138 24.9003 44.5138 24.6885C44.5138 24.4767 44.5508 24.2795 44.6248 24.1042C44.6988 23.9289 44.8024 23.7828 44.9283 23.6586C45.0615 23.5344 45.2169 23.4395 45.3945 23.3737C45.5721 23.308 45.772 23.2715 45.9866 23.2715C46.0606 23.2715 46.142 23.2788 46.2234 23.2934C46.3048 23.308 46.3863 23.3299 46.4677 23.3591C46.5491 23.3883 46.6231 23.4322 46.6971 23.4833C46.7711 23.5344 46.8377 23.5929 46.8969 23.6659L46.4307 24.0384Z" fill="white"/>
<path d="M47.5405 23.3369H48.14V26.0321H47.5405V23.3369Z" fill="white"/>
<path d="M48.688 23.3369H49.3763L50.0498 25.0972H50.0572L50.7455 23.3369H51.3894L50.2644 26.0321H49.7833L48.688 23.3369Z" fill="white"/>
<path d="M51.9292 23.3369H52.5287V26.0321H51.9292V23.3369Z" fill="white"/>
<path d="M53.3726 23.3369H53.972V25.477H55.0822V26.0248H53.3726V23.3369Z" fill="white"/>
<path d="M57.0953 23.3369H58.1018C58.2424 23.3369 58.3757 23.3515 58.5015 23.3734C58.6273 23.3953 58.7383 23.4392 58.8271 23.5049C58.9233 23.5633 58.9973 23.651 59.0492 23.7533C59.101 23.8555 59.1306 23.987 59.1306 24.1477C59.1306 24.3011 59.1084 24.4398 59.0566 24.5421C59.0047 24.6517 58.9381 24.732 58.8419 24.7977C58.7531 24.8635 58.6421 24.9073 58.5237 24.9292C58.3979 24.9584 58.2646 24.9657 58.124 24.9657H57.6874V26.0321H57.0879V23.3369H57.0953ZM57.6948 24.4764H58.0944C58.1462 24.4764 58.198 24.4691 58.2498 24.4618C58.3017 24.4544 58.3461 24.4325 58.3831 24.4106C58.4201 24.3887 58.4571 24.3522 58.4793 24.3084C58.5015 24.2645 58.5163 24.2134 58.5163 24.1477C58.5163 24.0819 58.5015 24.0235 58.4645 23.9797C58.4349 23.9359 58.3905 23.9066 58.3387 23.8847C58.2869 23.8628 58.235 23.8482 58.1684 23.8409C58.1092 23.8336 58.05 23.8336 57.9908 23.8336H57.68V24.4764H57.6948Z" fill="white"/>
<path d="M59.7896 23.3369H60.8405C60.9811 23.3369 61.1069 23.3515 61.2327 23.3734C61.3586 23.4027 61.4696 23.4465 61.5584 23.5049C61.6546 23.5633 61.7286 23.651 61.7804 23.7533C61.8322 23.8555 61.8618 23.987 61.8618 24.1477C61.8618 24.3376 61.81 24.4983 61.7138 24.6297C61.6102 24.7612 61.4696 24.8489 61.2772 24.8854L61.9728 26.0175H61.255L60.6851 24.9438H60.389V26.0321H59.7896V23.3369ZM60.389 24.4544H60.7443C60.7961 24.4544 60.8553 24.4544 60.9145 24.4471C60.9737 24.4398 61.0329 24.4325 61.0773 24.4106C61.1291 24.3887 61.1661 24.3595 61.1957 24.323C61.2253 24.2865 61.2476 24.228 61.2476 24.155C61.2476 24.0892 61.2327 24.0308 61.2031 23.9943C61.1735 23.9505 61.1365 23.9212 61.0921 23.8993C61.0477 23.8774 60.9959 23.8628 60.9441 23.8555C60.8849 23.8482 60.8331 23.8409 60.7813 23.8409H60.389V24.4544Z" fill="white"/>
<path d="M62.4019 24.6807C62.4019 24.4689 62.4389 24.2716 62.5129 24.0963C62.5869 23.921 62.6905 23.775 62.8163 23.6508C62.9495 23.5266 63.105 23.4317 63.2826 23.3659C63.4602 23.3002 63.66 23.2637 63.8747 23.2637C64.0893 23.2637 64.2817 23.3002 64.4667 23.3659C64.6444 23.4317 64.7998 23.5266 64.933 23.6508C65.0662 23.775 65.1624 23.921 65.2364 24.0963C65.3105 24.2716 65.3475 24.4689 65.3475 24.6807C65.3475 24.8925 65.3105 25.0897 65.2364 25.265C65.1624 25.4403 65.0588 25.5864 64.933 25.7106C64.7998 25.8347 64.6444 25.9297 64.4667 25.9954C64.2891 26.0612 64.0893 26.0977 63.8747 26.0977C63.66 26.0977 63.4676 26.0612 63.2826 25.9954C63.0976 25.9297 62.9495 25.8347 62.8163 25.7106C62.6831 25.5864 62.5869 25.4403 62.5129 25.265C62.4389 25.097 62.4019 24.8998 62.4019 24.6807ZM63.0235 24.6807C63.0235 24.8048 63.0457 24.9217 63.0828 25.0313C63.1198 25.1335 63.179 25.2285 63.253 25.3015C63.327 25.3819 63.4158 25.4403 63.5194 25.4841C63.623 25.528 63.7414 25.5499 63.8673 25.5499C63.9931 25.5499 64.1115 25.528 64.2151 25.4841C64.3187 25.4403 64.4075 25.3819 64.4815 25.3015C64.5556 25.2212 64.6148 25.1335 64.6518 25.0313C64.6888 24.929 64.711 24.8122 64.711 24.6807C64.711 24.5565 64.6888 24.4396 64.6518 24.3374C64.6148 24.2351 64.5556 24.1402 64.4815 24.0598C64.4075 23.9795 64.3187 23.921 64.2151 23.8772C64.1115 23.8334 63.9931 23.8115 63.8673 23.8115C63.7414 23.8115 63.623 23.8334 63.5194 23.8772C63.4158 23.921 63.327 23.9795 63.253 24.0598C63.179 24.1402 63.1198 24.2278 63.0828 24.3374C63.0457 24.4469 63.0235 24.5565 63.0235 24.6807Z" fill="white"/>
<path d="M66.5461 23.8628H65.769V23.3369H67.9227V23.8628H67.1456V26.0321H66.5461V23.8628Z" fill="white"/>
<path d="M68.5225 23.3369H70.3727V23.8847H69.1219V24.3887H70.3061V24.9365H69.1219V25.4843H70.4393V26.0321H68.5225V23.3369Z" fill="white"/>
<path d="M72.9774 24.0384C72.9182 23.9654 72.8442 23.9142 72.7628 23.8777C72.674 23.8412 72.5778 23.8193 72.4667 23.8193C72.3557 23.8193 72.2521 23.8412 72.1559 23.885C72.0597 23.9289 71.9783 23.9873 71.9043 24.0676C71.8303 24.148 71.7784 24.2356 71.7414 24.3452C71.7044 24.4548 71.6822 24.5643 71.6822 24.6885C71.6822 24.8127 71.7044 24.9295 71.7414 25.0391C71.7784 25.1413 71.8377 25.2363 71.9043 25.3093C71.9709 25.3897 72.0523 25.4481 72.1485 25.4919C72.2447 25.5358 72.3409 25.5577 72.4519 25.5577C72.5778 25.5577 72.6814 25.5358 72.7776 25.4846C72.8738 25.4335 72.9478 25.3605 73.0144 25.2728L73.5177 25.638C73.3993 25.7987 73.2587 25.9156 73.081 25.9886C72.9034 26.0617 72.7184 26.1055 72.5334 26.1055C72.3187 26.1055 72.1263 26.069 71.9413 26.0032C71.7562 25.9375 71.6082 25.8425 71.475 25.7184C71.3418 25.5942 71.2456 25.4481 71.1716 25.2728C71.0976 25.0975 71.0605 24.9003 71.0605 24.6885C71.0605 24.4767 71.0976 24.2795 71.1716 24.1042C71.2456 23.9289 71.3492 23.7828 71.475 23.6586C71.6082 23.5344 71.7636 23.4395 71.9413 23.3737C72.1189 23.308 72.3187 23.2715 72.5334 23.2715C72.6074 23.2715 72.6888 23.2788 72.7702 23.2934C72.8516 23.308 72.933 23.3299 73.0144 23.3591C73.0958 23.3883 73.1698 23.4322 73.2439 23.4833C73.3179 23.5344 73.3845 23.5929 73.4437 23.6659L72.9774 24.0384Z" fill="white"/>
<path d="M74.6282 23.8628H73.8511V23.3369H76.0048V23.8628H75.2277V26.0321H74.6282V23.8628Z" fill="white"/>
<path d="M76.5679 23.3369H77.1674V26.0321H76.5679V23.3369Z" fill="white"/>
<path d="M77.8403 24.6807C77.8403 24.4689 77.8773 24.2716 77.9513 24.0963C78.0254 23.921 78.129 23.775 78.2548 23.6508C78.388 23.5266 78.5434 23.4317 78.7211 23.3659C78.8987 23.3002 79.0985 23.2637 79.3131 23.2637C79.5278 23.2637 79.7202 23.3002 79.9052 23.3659C80.0828 23.4317 80.2383 23.5266 80.3715 23.6508C80.5047 23.775 80.6009 23.921 80.6749 24.0963C80.7489 24.2716 80.7859 24.4689 80.7859 24.6807C80.7859 24.8925 80.7489 25.0897 80.6749 25.265C80.6009 25.4403 80.4973 25.5864 80.3715 25.7106C80.2383 25.8347 80.0828 25.9297 79.9052 25.9954C79.7276 26.0612 79.5278 26.0977 79.3131 26.0977C79.0985 26.0977 78.9061 26.0612 78.7211 25.9954C78.536 25.9297 78.388 25.8347 78.2548 25.7106C78.1216 25.5864 78.0254 25.4403 77.9513 25.265C77.8773 25.097 77.8403 24.8998 77.8403 24.6807ZM78.462 24.6807C78.462 24.8048 78.4842 24.9217 78.5212 25.0313C78.5582 25.1335 78.6174 25.2285 78.6915 25.3015C78.7655 25.3819 78.8543 25.4403 78.9579 25.4841C79.0615 25.528 79.1799 25.5499 79.3057 25.5499C79.4316 25.5499 79.55 25.528 79.6536 25.4841C79.7572 25.4403 79.846 25.3819 79.92 25.3015C79.994 25.2212 80.0532 25.1335 80.0902 25.0313C80.1273 24.929 80.1495 24.8122 80.1495 24.6807C80.1495 24.5565 80.1273 24.4396 80.0902 24.3374C80.0532 24.2351 79.994 24.1402 79.92 24.0598C79.846 23.9795 79.7572 23.921 79.6536 23.8772C79.55 23.8334 79.4316 23.8115 79.3057 23.8115C79.1799 23.8115 79.0615 23.8334 78.9579 23.8772C78.8543 23.921 78.7655 23.9795 78.6915 24.0598C78.6174 24.1402 78.5582 24.2278 78.5212 24.3374C78.4842 24.4469 78.462 24.5565 78.462 24.6807Z" fill="white"/>
<path d="M81.4595 23.3369H82.2736L83.4355 25.2068H83.4429V23.3369H84.0424V26.0321H83.2579L82.0664 24.1185H82.059V26.0321H81.4595V23.3369Z" fill="white"/>
<path d="M86.27 23.3369H87.1803L87.8094 25.0899H87.8168L88.4459 23.3369H89.3488V26.0321H88.7494V23.9724H88.742L88.0241 26.0321H87.5652L86.8769 23.9724H86.8695V26.0321H86.27V23.3369Z" fill="white"/>
<path d="M91.0728 23.3369H91.5687L92.7529 26.0248H92.072L91.8351 25.4551H90.7768L90.5474 26.0248H89.8887L91.0728 23.3369ZM91.3023 24.1258L90.9692 24.9584H91.6353L91.3023 24.1258Z" fill="white"/>
<path d="M93.2935 23.3369H94.3444C94.485 23.3369 94.6108 23.3515 94.7366 23.3734C94.8625 23.4027 94.9735 23.4465 95.0623 23.5049C95.1585 23.5633 95.2325 23.651 95.2843 23.7533C95.3361 23.8555 95.3657 23.987 95.3657 24.1477C95.3657 24.3376 95.3139 24.4983 95.2177 24.6297C95.1141 24.7612 94.9735 24.8489 94.7811 24.8854L95.4767 26.0175H94.7589L94.189 24.9438H93.8929V26.0321H93.2935V23.3369ZM93.8929 24.4544H94.2482C94.3 24.4544 94.3592 24.4544 94.4184 24.4471C94.4776 24.4398 94.5368 24.4325 94.5812 24.4106C94.633 24.3887 94.67 24.3595 94.6996 24.323C94.7292 24.2865 94.7515 24.228 94.7515 24.155C94.7515 24.0892 94.7367 24.0308 94.7071 23.9943C94.6774 23.9505 94.6404 23.9212 94.596 23.8993C94.5516 23.8774 94.4998 23.8628 94.448 23.8555C94.3888 23.8482 94.337 23.8409 94.2852 23.8409H93.8929V24.4544Z" fill="white"/>
<path d="M96.084 23.3369H96.6835V24.4544L97.7418 23.3369H98.5263L97.3126 24.5859L98.6299 26.0248H97.7936L96.6835 24.7466V26.0321H96.084V23.3369Z" fill="white"/>
<path d="M99.126 23.3369H100.976V23.8847H99.7255V24.3887H100.91V24.9365H99.7255V25.4843H101.043V26.0321H99.126V23.3369Z" fill="white"/>
<path d="M102.33 23.8628H101.546V23.3369H103.7V23.8628H102.922V26.0321H102.323L102.33 23.8628Z" fill="white"/>
<path d="M104.277 23.3369H105.291C105.431 23.3369 105.565 23.3515 105.69 23.3734C105.816 23.3953 105.927 23.4392 106.016 23.5049C106.112 23.5633 106.186 23.651 106.238 23.7533C106.29 23.8555 106.32 23.987 106.32 24.1477C106.32 24.3011 106.297 24.4398 106.246 24.5421C106.194 24.6517 106.127 24.732 106.031 24.7977C105.942 24.8635 105.831 24.9073 105.713 24.9292C105.587 24.9584 105.454 24.9657 105.313 24.9657H104.876V26.0321H104.277V23.3369ZM104.876 24.4764H105.276C105.328 24.4764 105.38 24.4691 105.431 24.4618C105.483 24.4544 105.528 24.4325 105.565 24.4106C105.602 24.3887 105.639 24.3522 105.661 24.3084C105.683 24.2645 105.698 24.2134 105.698 24.1477C105.698 24.0819 105.683 24.0235 105.646 23.9797C105.616 23.9359 105.572 23.9066 105.52 23.8847C105.468 23.8628 105.417 23.8482 105.35 23.8409C105.291 23.8336 105.232 23.8336 105.172 23.8336H104.862V24.4764H104.876Z" fill="white"/>
<path d="M106.993 23.3369H107.592V25.477H108.702V26.0248H106.993V23.3369Z" fill="white"/>
<path d="M110.205 23.3369H110.701L111.885 26.0248H111.204L110.967 25.4551H109.909L109.679 26.0248H109.021L110.205 23.3369ZM110.434 24.1258L110.101 24.9584H110.767L110.434 24.1258Z" fill="white"/>
<path d="M114.209 24.0384C114.15 23.9654 114.076 23.9142 113.994 23.8777C113.906 23.8412 113.809 23.8193 113.698 23.8193C113.587 23.8193 113.484 23.8412 113.387 23.885C113.291 23.9289 113.21 23.9873 113.136 24.0676C113.062 24.148 113.01 24.2356 112.973 24.3452C112.936 24.4548 112.914 24.5643 112.914 24.6885C112.914 24.8127 112.936 24.9295 112.973 25.0391C113.01 25.1413 113.069 25.2363 113.136 25.3093C113.202 25.3897 113.284 25.4481 113.38 25.4919C113.476 25.5358 113.572 25.5577 113.683 25.5577C113.809 25.5577 113.913 25.5358 114.009 25.4846C114.105 25.4335 114.179 25.3605 114.246 25.2728L114.749 25.638C114.631 25.7987 114.49 25.9156 114.313 25.9886C114.135 26.0617 113.95 26.1055 113.765 26.1055C113.55 26.1055 113.358 26.069 113.173 26.0032C112.988 25.9375 112.84 25.8425 112.707 25.7184C112.573 25.5942 112.477 25.4481 112.403 25.2728C112.329 25.0975 112.292 24.9003 112.292 24.6885C112.292 24.4767 112.329 24.2795 112.403 24.1042C112.477 23.9289 112.581 23.7828 112.707 23.6586C112.84 23.5344 112.995 23.4395 113.173 23.3737C113.35 23.308 113.55 23.2715 113.765 23.2715C113.839 23.2715 113.92 23.2788 114.002 23.2934C114.083 23.308 114.165 23.3299 114.246 23.3591C114.327 23.3883 114.401 23.4322 114.475 23.4833C114.549 23.5344 114.616 23.5929 114.675 23.6659L114.209 24.0384Z" fill="white"/>
<path d="M115.356 23.3369H117.207V23.8847H115.956V24.3887H117.14V24.9365H115.956V25.4843H117.273V26.0321H115.356V23.3369Z" fill="white"/>
</g>
</svg>
