<svg width="171" height="42" viewBox="0 0 171 42" fill="none" xmlns="http://www.w3.org/2000/svg">
<path d="M19.3574 8.70312C20.4144 7.19598 22.4677 7.14685 23.4756 8.62891L23.4766 8.62988C23.7925 9.10379 23.9092 9.61653 23.9092 10.1602V13.7109C23.8904 16.5091 23.8906 19.3075 23.8906 22.125V35.2588H22.2666V9.91797C22.2486 9.74305 22.1941 9.60259 22.1094 9.49023C22.0231 9.37595 21.9003 9.28448 21.7373 9.21582C21.4309 9.08681 21.1406 9.16171 20.8857 9.39941L20.8828 9.40234C20.7475 9.52071 20.6454 9.6901 20.5273 9.86719L20.5254 9.87012C17.6421 13.9837 13.1952 20.3133 9.46875 25.6143C7.60563 28.2646 5.92232 30.6579 4.70508 32.3887C4.09647 33.2541 3.60369 33.9541 3.26367 34.4375C3.09366 34.6792 2.96154 34.867 2.87207 34.9941C2.82741 35.0576 2.79342 35.1061 2.77051 35.1387C2.75913 35.1548 2.75092 35.1675 2.74512 35.1758C2.74222 35.1799 2.73974 35.1835 2.73828 35.1855C2.73765 35.1865 2.73666 35.187 2.73633 35.1875V35.1885L2.70117 35.2373H0.776367L0.904297 35.0537H0.905273C0.905661 35.0532 0.906453 35.0519 0.907227 35.0508L0.941406 35.002C0.965692 34.9673 1.00146 34.9153 1.04883 34.8477C1.14356 34.7124 1.2831 34.5126 1.46289 34.2559C1.82247 33.7423 2.34251 32.9997 2.98438 32.083C4.26827 30.2494 6.04045 27.72 7.99023 24.9355C11.8897 19.3669 16.5023 12.7791 19.3574 8.70312Z" fill="#3AA9FA" stroke="#3AA9FA" stroke-width="0.233333"/>
<path d="M31.0552 24.5635H31.1714V24.6797L31.1724 24.5635H38.4419C38.6629 24.5635 38.8568 24.544 39.019 24.4795C39.1768 24.4168 39.3102 24.3088 39.4097 24.1182C39.5787 23.7939 39.4965 23.5055 39.313 23.2041L39.229 23.0742C36.1299 18.6227 33.0497 14.1903 29.9507 9.75781V9.75684C29.8496 9.61527 29.7686 9.4854 29.6714 9.4043L29.6665 9.40039C29.2054 8.97224 28.4645 9.18516 28.2993 9.7959C28.2478 9.98468 28.2466 10.1942 28.2466 10.4229V35.2402H26.6616V10.1035C26.6617 8.7338 27.5282 7.70254 28.8696 7.56445C29.7953 7.47189 30.5143 7.83465 31.0659 8.52246L31.1733 8.66406L31.1753 8.66602C32.0298 9.89618 32.8841 11.1221 33.7388 12.3477C34.5932 13.5729 35.4478 14.7982 36.3022 16.0283C37.7483 18.0941 39.2142 20.1801 40.6421 22.2656L40.7241 22.3916C41.5348 23.7076 41.048 25.3397 39.6353 25.9697C39.2783 26.1283 38.8852 26.1865 38.5171 26.1865H31.1724H31.1714H31.0552V24.5635Z" fill="#3AA9FA" stroke="#3AA9FA" stroke-width="0.233333"/>
<path d="M19.3906 26.0498L19.3896 26.167H13.9678C13.8406 26.167 13.7536 26.1881 13.6816 26.2275C13.6083 26.2679 13.5398 26.3331 13.46 26.4395C12.4922 27.8206 10.9388 30.0073 9.62695 31.8486C8.97052 32.77 8.37425 33.6052 7.94238 34.21C7.72658 34.5121 7.55156 34.7566 7.43066 34.9258C7.3702 35.0104 7.32287 35.0765 7.29102 35.1211C7.27521 35.1432 7.26301 35.1605 7.25488 35.1719C7.25093 35.1774 7.24812 35.1817 7.24609 35.1846C7.24506 35.186 7.24368 35.1868 7.24316 35.1875V35.1885L7.20801 35.2373H5.30078L5.43066 35.0537L8.25586 31.0547L8.25684 31.0537L8.25781 31.0518C8.25914 31.0499 8.26104 31.0467 8.26367 31.043C8.26894 31.0354 8.2769 31.0244 8.28711 31.0098C8.30761 30.9805 8.33803 30.9374 8.37695 30.8818C8.45513 30.7701 8.56885 30.6075 8.70898 30.4072C8.98923 30.0067 9.37693 29.452 9.80762 28.8359C10.6692 27.6035 11.7022 26.1247 12.3877 25.1387C12.5276 24.9292 12.6874 24.7782 12.8799 24.6807C13.0722 24.5832 13.2891 24.5439 13.5361 24.5439H13.5381C14.1003 24.5533 14.9442 24.5531 15.6484 24.5508C16.0003 24.5496 16.3171 24.5474 16.5459 24.5459C16.6603 24.5452 16.7536 24.5444 16.8174 24.5439H19.5068V26.167H19.3906V26.0498Z" fill="#3AA9FA" stroke="#3AA9FA" stroke-width="0.233333"/>
<path d="M50.21 28L55.733 12.985H57.854L63.398 28H61.34L59.744 23.422H53.759L52.142 28H50.21ZM56.09 16.849L54.305 21.889H59.219L57.497 16.849C57.203 16.009 56.825 14.728 56.825 14.728H56.783C56.783 14.728 56.384 15.988 56.09 16.849ZM68.5806 31.612C65.7666 31.612 64.1706 30.478 63.9816 28.609H65.5566C65.7246 29.806 66.8586 30.268 68.5386 30.268C70.5336 30.268 71.6466 29.365 71.6466 27.475V25.942H71.6046C70.8066 26.971 69.9456 27.622 68.3916 27.622C65.5776 27.622 63.6456 25.375 63.6456 22.246C63.6456 18.865 65.7666 16.891 68.2866 16.891C69.8616 16.891 70.8696 17.5 71.6046 18.529H71.6466V17.143H73.3476V27.412C73.3476 30.268 71.4576 31.612 68.5806 31.612ZM68.4756 26.194C70.9746 26.194 71.7726 24.451 71.7726 22.162C71.7726 19.789 70.7646 18.319 68.4546 18.319C66.4176 18.319 65.3886 19.915 65.3886 22.267C65.3886 24.64 66.4596 26.194 68.4756 26.194ZM75.4469 28V17.143H77.1479V28H75.4469ZM75.4469 15.085V12.985H77.1479V15.085H75.4469ZM79.3194 28V12.985H81.0204V28H79.3194ZM87.83 28.294C84.512 28.294 82.58 25.732 82.58 22.582C82.58 19.432 84.638 16.87 87.725 16.87C90.98 16.87 92.723 19.39 92.723 22.981H84.323C84.449 25.186 85.646 26.866 87.83 26.866C89.405 26.866 90.455 26.11 90.833 24.64H92.492C91.988 26.971 90.287 28.294 87.83 28.294ZM87.725 18.214C85.709 18.214 84.617 19.726 84.365 21.7H90.896C90.791 19.537 89.678 18.214 87.725 18.214ZM97.5611 28V12.985H103.819C105.394 12.985 106.612 13.51 107.389 14.434C108.019 15.169 108.397 16.156 108.397 17.29C108.397 20.041 106.822 21.7 103.546 21.7H99.4511V28H97.5611ZM99.4511 14.623V20.167H103.399C105.52 20.167 106.528 19.096 106.528 17.374C106.528 15.568 105.415 14.623 103.504 14.623H99.4511ZM117.868 28.105C116.755 28.105 116.167 27.601 115.999 26.488H115.978C115.327 27.328 114.214 28.21 112.366 28.21C110.308 28.21 108.691 27.244 108.691 25.186C108.691 22.624 110.707 22.099 113.416 21.679C114.949 21.448 116.02 21.301 116.02 20.125C116.02 18.907 115.138 18.214 113.584 18.214C111.82 18.214 110.938 18.97 110.875 20.608H109.237C109.3 18.508 110.686 16.933 113.563 16.933C115.873 16.933 117.574 17.794 117.574 20.377V25.543C117.574 26.425 117.784 26.908 118.729 26.698H118.792V27.937C118.582 28.021 118.309 28.105 117.868 28.105ZM112.744 26.908C115.012 26.908 116.041 25.249 116.041 23.989V22.141C115.474 22.498 114.487 22.771 113.563 22.939C111.862 23.254 110.497 23.548 110.497 25.144C110.497 26.593 111.631 26.908 112.744 26.908ZM121.538 17.143V18.949H121.58C122.231 17.899 123.365 17.017 124.814 17.017C125.129 17.017 125.297 17.059 125.507 17.143V18.781H125.444C125.192 18.697 125.024 18.676 124.688 18.676C123.008 18.676 121.538 19.936 121.538 21.973V28H119.837V17.143H121.538ZM126.133 18.529V17.143H127.708V13.72H129.409V17.143H131.509V18.529H129.409V25.585C129.409 26.341 129.808 26.593 130.501 26.593C130.837 26.593 131.215 26.509 131.404 26.446H131.467V27.916C131.068 28 130.606 28.063 130.102 28.063C128.716 28.063 127.708 27.496 127.708 25.963V18.529H126.133ZM134.756 17.143V18.571H134.798C135.575 17.542 136.667 16.891 138.242 16.891C140.51 16.891 141.896 18.13 141.896 20.377V28H140.195V20.524C140.195 19.117 139.271 18.319 137.738 18.319C136.016 18.319 134.756 19.537 134.756 21.322V28H133.055V17.143H134.756ZM148.581 28.294C145.263 28.294 143.331 25.732 143.331 22.582C143.331 19.432 145.389 16.87 148.476 16.87C151.731 16.87 153.474 19.39 153.474 22.981H145.074C145.2 25.186 146.397 26.866 148.581 26.866C150.156 26.866 151.206 26.11 151.584 24.64H153.243C152.739 26.971 151.038 28.294 148.581 28.294ZM148.476 18.214C146.46 18.214 145.368 19.726 145.116 21.7H151.647C151.542 19.537 150.429 18.214 148.476 18.214ZM156.628 17.143V18.949H156.67C157.321 17.899 158.455 17.017 159.904 17.017C160.219 17.017 160.387 17.059 160.597 17.143V18.781H160.534C160.282 18.697 160.114 18.676 159.778 18.676C158.098 18.676 156.628 19.936 156.628 21.973V28H154.927V17.143H156.628ZM166.031 28.315C163.049 28.315 161.39 26.908 161.222 24.472H162.965C163.196 26.362 164.456 26.887 166.073 26.887C167.858 26.887 168.593 26.11 168.593 25.102C168.593 23.884 167.753 23.569 165.758 23.149C163.616 22.708 161.705 22.267 161.705 19.894C161.705 18.088 163.091 16.912 165.611 16.912C168.299 16.912 169.622 18.193 169.874 20.314H168.131C167.963 18.886 167.186 18.256 165.569 18.256C164.015 18.256 163.385 18.949 163.385 19.81C163.385 20.986 164.435 21.217 166.304 21.595C168.488 22.036 170.315 22.519 170.315 25.018C170.315 27.202 168.53 28.315 166.031 28.315Z" fill="#FCFCFC"/>
</svg>
