<svg width="120" height="36" viewBox="0 0 120 36" fill="none" xmlns="http://www.w3.org/2000/svg">
<g opacity="0.5">
<path d="M17.0889 0C8.88861 0 2.27246 6.49775 2.27246 14.5513V35.2343L8.51586 29.1026V14.5513C8.51586 9.97541 12.3365 6.22319 16.9957 6.22319C21.655 6.22319 25.4756 9.97541 25.4756 14.5513C25.4756 19.1272 21.7482 22.8794 17.0889 22.8794H14.8525L8.60905 29.0111H17.0889C25.2892 29.0111 31.9053 22.5133 31.9053 14.4598C31.9053 6.40623 25.196 0 17.0889 0Z" fill="white"/>
<path d="M70.3886 7.96107V8.87625C67.2204 6.22224 62.3749 6.58831 59.6727 9.69991C56.9704 12.8115 57.3431 17.5704 60.5113 20.2244C63.3999 22.6039 67.4999 22.6039 70.3886 20.2244V21.9633H73.0908V7.0459L70.3886 7.96107ZM65.4499 19.4008C62.7477 19.4008 60.5113 17.2043 60.5113 14.5503C60.5113 11.8963 62.7477 9.69991 65.4499 9.69991C68.1522 9.69991 70.3886 11.8963 70.3886 14.5503C70.3886 17.2043 68.1522 19.4008 65.4499 19.4008Z" fill="white"/>
<path d="M103.568 7.96107V8.87625C100.4 6.22224 95.5546 6.58831 92.8524 9.69991C90.1501 12.8115 90.5228 17.5704 93.691 20.2244C96.5796 22.6039 100.68 22.6039 103.568 20.2244V21.9633H106.271V7.0459L103.568 7.96107ZM98.6296 19.4008C95.9274 19.4008 93.691 17.2043 93.691 14.5503C93.691 11.8963 95.9274 9.69991 98.6296 9.69991C101.332 9.69991 103.568 11.8963 103.568 14.5503C103.568 17.2043 101.332 19.4008 98.6296 19.4008Z" fill="white"/>
<path d="M112.511 21.9645H109.809V3.47795L112.511 2.6543V21.9645Z" fill="white"/>
<path d="M118.75 21.9645H116.048V3.47795L118.75 2.6543V21.9645Z" fill="white"/>
<path d="M48.4006 7.0459C44.2075 7.0459 40.7598 10.432 40.7598 14.5503V26.4476L43.462 23.7936V21.9633H48.4006C52.5938 21.9633 56.0415 18.5771 56.0415 14.4588C56.0415 10.3405 52.5938 7.0459 48.4006 7.0459ZM48.4006 19.4008H43.462V14.5503C43.462 11.8963 45.6984 9.69991 48.4006 9.69991C51.1029 9.69991 53.3393 11.8963 53.3393 14.5503C53.3393 17.2044 51.1029 19.4008 48.4006 19.4008Z" fill="white"/>
<path d="M87.9102 7.0459L82.8784 16.0146L77.9397 7.0459H74.8647L81.3875 18.7601L77.1011 26.3561H80.2693L90.9851 7.0459H87.9102Z" fill="white"/>
</g>
</svg>
