<svg width="120" height="36" viewBox="0 0 120 36" fill="none" xmlns="http://www.w3.org/2000/svg">
<g opacity="0.5">
<path d="M52.513 14.9497C51.8927 13.9159 51.5481 12.6754 51.5481 11.1591C51.5481 8.67801 52.7197 6.54149 54.6495 5.16309H49.2737L45.2074 16.2592L40.8655 5.23201H33.2153L41.6925 23.6337C40.7276 26.1148 39.9006 26.804 37.2127 26.804H35.2829V32.7311H37.6951C43.002 32.7311 45.4831 30.5257 48.3088 24.3918L52.513 14.9497Z" fill="white"/>
<path d="M34.2496 10.0572L32.113 5.37068C30.6657 5.64636 29.4941 6.33556 28.4603 7.57612L27.4265 5.30176H22.6021V25.9778H29.6319V15.2952C29.6319 12.6762 30.6657 11.5735 33.1468 11.5735H34.8698L34.2496 10.0572Z" fill="white"/>
<path d="M7.164 6.88584L6.4748 5.23175H1.65039V32.7998H8.61133V24.9429C10.0586 25.8389 11.7817 26.3213 13.5736 26.3213C16.6061 26.3213 19.225 25.2186 21.0859 23.4267V7.36828C19.225 5.50743 16.675 4.47363 13.6425 4.47363C11.2303 4.47363 9.09377 5.30067 7.43968 6.748C7.37076 6.748 7.23292 6.88584 7.164 6.88584ZM17.502 15.363C17.502 18.0509 15.5723 20.0496 12.9533 20.0496C10.3343 20.0496 8.40457 18.0509 8.40457 15.363C8.40457 12.6751 10.3343 10.6764 12.9533 10.6764C15.5723 10.6764 17.502 12.6751 17.502 15.363Z" fill="white"/>
<path d="M111.717 4.6123C109.167 4.6123 106.892 5.78395 105.445 7.64479C104.204 5.78395 102.068 4.6123 99.5868 4.6123C97.2436 4.6123 95.107 5.71503 93.5908 7.36911L93.4529 7.50695L92.4191 5.16367H87.5947V25.8397H94.6935V14.4679C94.6935 11.9178 95.7273 10.5394 97.6571 10.5394C99.1044 10.5394 99.9314 11.6422 99.9314 13.7098V25.9086H106.823V14.4679C106.823 11.9178 107.788 10.5394 109.787 10.5394C111.303 10.5394 112.061 11.5732 112.061 13.7098V25.9086H119.091V12.8827C119.022 8.05831 116.128 4.6123 111.717 4.6123Z" fill="white"/>
<path d="M70.5708 19.2225C70.5708 18.809 70.5708 18.3955 70.5019 18.0509L69.1924 15.2252C67.6762 13.5711 65.1261 13.1576 63.0585 12.813C61.1288 12.4684 59.5436 12.1927 59.5436 11.021C59.5436 10.0562 60.3017 9.5048 61.4044 9.5048C62.7139 9.5048 63.541 10.1251 63.541 11.4346H67.4005L64.368 4.81823C63.541 4.61147 62.5761 4.47363 61.4734 4.47363C56.2354 4.47363 52.7205 7.0926 52.7205 11.2278C52.7205 16.1901 56.9246 17.1549 60.095 17.6374C62.0936 17.982 63.6099 18.3266 63.6099 19.4982C63.6099 20.532 62.645 21.0834 61.6112 21.0834C60.3017 21.0834 59.199 20.3942 59.199 18.8779H52.4448C52.5137 23.2888 55.8908 26.2524 61.4734 26.2524C66.987 26.3213 70.5708 23.4956 70.5708 19.2225Z" fill="white"/>
<path d="M72.1559 30.3184C72.5694 31.0765 72.8451 31.8346 72.914 32.6617C72.7072 32.6617 72.5694 32.7306 72.3626 32.7306C72.2248 31.9035 71.9491 31.1454 71.4667 30.4562C70.6396 29.2846 69.468 28.5265 68.0896 28.2508V27.6994C69.8126 27.8373 71.2599 28.8021 72.1559 30.3184ZM68.0896 28.5954V29.1467C68.9855 29.4224 69.8126 29.9738 70.5018 30.8008C70.9842 31.4211 71.3288 32.0414 71.4667 32.7995C71.6045 32.7995 71.8113 32.7995 71.9491 32.7995C71.8802 32.0414 71.6045 31.3522 71.1221 30.7319C70.3639 29.6292 69.3301 28.8711 68.0896 28.5954ZM68.0896 29.5603V30.1116C68.6409 30.3873 69.1923 30.7319 69.6058 31.2143C70.0193 31.6968 70.3639 32.2481 70.5707 32.7995C70.7085 32.7995 70.8464 32.7995 70.9842 32.7995C70.8464 32.1792 70.5707 31.5589 70.1572 31.0765C69.6058 30.3873 68.9166 29.9049 68.0896 29.5603ZM72.018 26.6656C71.6734 26.8034 71.191 26.8724 70.7085 26.8724C72.018 27.4926 73.1207 28.4575 73.741 29.8359C74.1545 30.5941 74.3613 31.49 74.3613 32.3171C74.637 32.2481 74.8437 32.1103 75.1194 32.0414C75.1194 31.2833 74.9127 30.5251 74.637 29.8359C74.0856 28.3886 73.1897 27.3548 72.018 26.6656ZM69.3991 26.8724H68.0896V27.217C69.9504 27.4237 71.5356 28.4575 72.5005 30.0427C72.9829 30.8008 73.1897 31.6279 73.2586 32.5238C73.4653 32.4549 73.6721 32.4549 73.8789 32.386C73.8789 31.5589 73.6721 30.7319 73.2586 29.9738C72.5694 28.3886 71.1221 27.2859 69.3991 26.8724ZM76.36 11.9167L73.741 5.23145H68.2274L76.36 11.9167ZM68.0896 30.5941V31.0765C68.3653 31.2143 68.6409 31.4211 68.8477 31.6279C69.1923 31.9725 69.468 32.386 69.7437 32.7995H70.1572C69.9504 32.3171 69.6747 31.9035 69.3301 31.49C68.9855 31.0765 68.572 30.8008 68.0896 30.5941ZM73.2586 25.9075C73.0518 26.1142 72.7761 26.321 72.5005 26.4588C73.6032 27.217 74.4991 28.2508 75.0505 29.5603C75.3262 30.2495 75.5329 31.0076 75.5329 31.7657C75.8086 31.6279 76.1532 31.4211 76.4289 31.2143C76.36 30.663 76.2911 30.1116 76.0843 29.5603C75.6019 27.9751 74.5681 26.7345 73.2586 25.9075ZM68.0896 32.7995H68.2963C68.2274 32.7306 68.1585 32.6617 68.0896 32.5927V32.7995ZM68.0896 31.5589V32.0414L68.1585 32.1103C68.4342 32.3171 68.6409 32.5927 68.8477 32.7995H69.2612C69.0545 32.4549 68.8477 32.1792 68.572 31.9035C68.4342 31.8346 68.2963 31.6968 68.0896 31.5589ZM84.2858 5.23145L86.1467 7.57473V5.23145H84.2858ZM78.083 16.3276L76.7046 12.7437L67.5382 5.23145H66.022L67.9517 9.36665L83.0452 20.1182L83.7344 18.533L78.7722 14.3978L78.083 16.3276ZM78.91 14.0532L83.9412 18.1884L84.8372 16.2587L79.8749 11.5721L78.91 14.0532ZM79.9438 11.0897L84.9061 15.8451L86.0088 13.4329L81.0466 8.05717L79.9438 11.0897ZM82.0804 5.23145L81.2533 7.57473L86.1467 12.9505V8.26393L83.7344 5.30037H82.0804V5.23145ZM70.2261 14.3978L80.4952 20.6696C81.1155 21.0142 81.6668 21.4966 82.2182 21.9101L82.8385 20.4628L68.2963 10.1248L70.2261 14.3978ZM70.5707 15.087L71.9491 18.0506L78.1519 21.2898C79.3925 21.979 80.4952 22.8061 81.3222 23.8399L82.0114 22.3236C81.4601 21.8412 80.9087 21.3588 80.2884 21.0142L70.5707 15.087ZM75.8775 22.3926L73.4653 21.3588L74.1545 22.8061H74.2235C76.7046 23.702 78.5654 25.494 79.4614 27.8373C79.7371 27.3548 80.0128 26.8724 80.2884 26.321C79.2546 24.598 77.7384 23.2196 75.8775 22.3926ZM74.3613 23.2885L74.4991 23.6331C74.4302 23.9088 74.2924 24.1156 74.2235 24.3223C76.1532 25.3561 77.5316 27.148 78.083 29.2846C78.083 29.3535 78.083 29.4224 78.1519 29.4913C78.4965 29.0778 78.7722 28.6643 79.1168 28.1819C78.2898 26.0453 76.6357 24.2534 74.3613 23.2885ZM77.9452 21.6344L72.2248 18.602L73.1897 20.6696L76.0843 21.9101C78.0141 22.7372 79.4614 24.1156 80.4952 25.7696C80.702 25.2872 80.9776 24.8737 81.1844 24.3223L81.2533 24.1845C80.2884 23.2196 79.2546 22.3236 77.9452 21.6344ZM74.0856 24.7358C73.9478 25.0804 73.741 25.3561 73.6032 25.5629C74.9816 26.4588 76.0154 27.7683 76.5668 29.4224C76.7046 29.9049 76.8424 30.3873 76.9114 30.9387C77.256 30.663 77.5316 30.3873 77.8762 30.0427C77.8762 29.8359 77.8073 29.6981 77.7384 29.4913C77.1181 27.4237 75.8086 25.7696 74.0856 24.7358Z" fill="white"/>
</g>
</svg>
