<svg width="784" height="498" viewBox="0 0 784 498" fill="none" xmlns="http://www.w3.org/2000/svg">
<rect width="784" height="498" fill="black"/>
<g opacity="0.6">
<rect x="646.516" y="66.9727" width="1.42188" height="1.42188" transform="rotate(90 646.516 66.9727)" fill="#808080"/>
<rect x="622.344" y="66.9727" width="1.42188" height="1.42188" transform="rotate(90 622.344 66.9727)" fill="#808080"/>
<rect x="598.172" y="66.9727" width="1.42188" height="1.42188" transform="rotate(90 598.172 66.9727)" fill="#808080"/>
<rect x="574" y="66.9727" width="1.42188" height="1.42188" transform="rotate(90 574 66.9727)" fill="#808080"/>
<rect x="549.828" y="66.9727" width="1.42188" height="1.42188" transform="rotate(90 549.828 66.9727)" fill="#808080"/>
<rect x="525.656" y="66.9727" width="1.42188" height="1.42188" transform="rotate(90 525.656 66.9727)" fill="#808080"/>
<rect x="501.484" y="66.9727" width="1.42188" height="1.42188" transform="rotate(90 501.484 66.9727)" fill="#808080"/>
<rect x="477.312" y="66.9727" width="1.42188" height="1.42188" transform="rotate(90 477.312 66.9727)" fill="#808080"/>
<rect x="453.141" y="66.9727" width="1.42188" height="1.42188" transform="rotate(90 453.141 66.9727)" fill="#808080"/>
<rect x="428.969" y="66.9727" width="1.42188" height="1.42188" transform="rotate(90 428.969 66.9727)" fill="#808080"/>
<rect x="404.797" y="66.9727" width="1.42188" height="1.42188" transform="rotate(90 404.797 66.9727)" fill="#808080"/>
<rect x="646.516" y="260.348" width="1.42188" height="1.42188" transform="rotate(90 646.516 260.348)" fill="#808080"/>
<rect x="622.344" y="260.348" width="1.42188" height="1.42188" transform="rotate(90 622.344 260.348)" fill="#808080"/>
<rect x="598.172" y="260.348" width="1.42188" height="1.42188" transform="rotate(90 598.172 260.348)" fill="#808080"/>
<rect x="574" y="260.348" width="1.42188" height="1.42188" transform="rotate(90 574 260.348)" fill="#808080"/>
<rect x="549.828" y="260.348" width="1.42188" height="1.42188" transform="rotate(90 549.828 260.348)" fill="#808080"/>
<rect x="525.656" y="260.348" width="1.42188" height="1.42188" transform="rotate(90 525.656 260.348)" fill="#808080"/>
<rect x="501.484" y="260.348" width="1.42188" height="1.42188" transform="rotate(90 501.484 260.348)" fill="#808080"/>
<rect x="477.312" y="260.348" width="1.42188" height="1.42188" transform="rotate(90 477.312 260.348)" fill="#808080"/>
<rect x="453.141" y="260.348" width="1.42188" height="1.42188" transform="rotate(90 453.141 260.348)" fill="#808080"/>
<rect x="428.969" y="260.348" width="1.42188" height="1.42188" transform="rotate(90 428.969 260.348)" fill="#808080"/>
<rect x="404.797" y="260.348" width="1.42188" height="1.42188" transform="rotate(90 404.797 260.348)" fill="#808080"/>
<rect x="646.516" y="91.1445" width="1.42188" height="1.42188" transform="rotate(90 646.516 91.1445)" fill="#808080"/>
<rect x="622.344" y="91.1445" width="1.42188" height="1.42188" transform="rotate(90 622.344 91.1445)" fill="#808080"/>
<rect x="598.172" y="91.1445" width="1.42188" height="1.42188" transform="rotate(90 598.172 91.1445)" fill="#808080"/>
<rect x="574" y="91.1445" width="1.42188" height="1.42188" transform="rotate(90 574 91.1445)" fill="#808080"/>
<rect x="549.828" y="91.1445" width="1.42188" height="1.42188" transform="rotate(90 549.828 91.1445)" fill="#808080"/>
<rect x="525.656" y="91.1445" width="1.42188" height="1.42188" transform="rotate(90 525.656 91.1445)" fill="#808080"/>
<rect x="501.484" y="91.1445" width="1.42188" height="1.42188" transform="rotate(90 501.484 91.1445)" fill="#808080"/>
<rect x="477.312" y="91.1445" width="1.42188" height="1.42188" transform="rotate(90 477.312 91.1445)" fill="#808080"/>
<rect x="453.141" y="91.1445" width="1.42188" height="1.42188" transform="rotate(90 453.141 91.1445)" fill="#808080"/>
<rect x="428.969" y="91.1445" width="1.42188" height="1.42188" transform="rotate(90 428.969 91.1445)" fill="#808080"/>
<rect x="404.797" y="91.1445" width="1.42188" height="1.42188" transform="rotate(90 404.797 91.1445)" fill="#808080"/>
<rect x="646.516" y="284.52" width="1.42188" height="1.42188" transform="rotate(90 646.516 284.52)" fill="#808080"/>
<rect x="622.344" y="284.52" width="1.42188" height="1.42188" transform="rotate(90 622.344 284.52)" fill="#808080"/>
<rect x="598.172" y="284.52" width="1.42188" height="1.42188" transform="rotate(90 598.172 284.52)" fill="#808080"/>
<rect x="574" y="284.52" width="1.42188" height="1.42188" transform="rotate(90 574 284.52)" fill="#808080"/>
<rect x="549.828" y="284.52" width="1.42188" height="1.42188" transform="rotate(90 549.828 284.52)" fill="#808080"/>
<rect x="525.656" y="284.52" width="1.42188" height="1.42188" transform="rotate(90 525.656 284.52)" fill="#808080"/>
<rect x="501.484" y="284.52" width="1.42188" height="1.42188" transform="rotate(90 501.484 284.52)" fill="#808080"/>
<rect x="477.312" y="284.52" width="1.42188" height="1.42188" transform="rotate(90 477.312 284.52)" fill="#808080"/>
<rect x="453.141" y="284.52" width="1.42188" height="1.42188" transform="rotate(90 453.141 284.52)" fill="#808080"/>
<rect x="428.969" y="284.52" width="1.42188" height="1.42188" transform="rotate(90 428.969 284.52)" fill="#808080"/>
<rect x="404.797" y="284.52" width="1.42188" height="1.42188" transform="rotate(90 404.797 284.52)" fill="#808080"/>
<rect x="646.516" y="115.316" width="1.42188" height="1.42188" transform="rotate(90 646.516 115.316)" fill="#808080"/>
<rect x="622.344" y="115.316" width="1.42188" height="1.42188" transform="rotate(90 622.344 115.316)" fill="#808080"/>
<rect x="598.172" y="115.316" width="1.42188" height="1.42188" transform="rotate(90 598.172 115.316)" fill="#808080"/>
<rect x="574" y="115.316" width="1.42188" height="1.42188" transform="rotate(90 574 115.316)" fill="#808080"/>
<rect x="549.828" y="115.316" width="1.42188" height="1.42188" transform="rotate(90 549.828 115.316)" fill="#808080"/>
<rect x="525.656" y="115.316" width="1.42188" height="1.42188" transform="rotate(90 525.656 115.316)" fill="#808080"/>
<rect x="501.484" y="115.316" width="1.42188" height="1.42188" transform="rotate(90 501.484 115.316)" fill="#808080"/>
<rect x="477.312" y="115.316" width="1.42188" height="1.42188" transform="rotate(90 477.312 115.316)" fill="#808080"/>
<rect x="453.141" y="115.316" width="1.42188" height="1.42188" transform="rotate(90 453.141 115.316)" fill="#808080"/>
<rect x="428.969" y="115.316" width="1.42188" height="1.42188" transform="rotate(90 428.969 115.316)" fill="#808080"/>
<rect x="404.797" y="115.316" width="1.42188" height="1.42188" transform="rotate(90 404.797 115.316)" fill="#808080"/>
<rect x="646.516" y="308.691" width="1.42188" height="1.42188" transform="rotate(90 646.516 308.691)" fill="#808080"/>
<rect x="622.344" y="308.691" width="1.42188" height="1.42188" transform="rotate(90 622.344 308.691)" fill="#808080"/>
<rect x="598.172" y="308.691" width="1.42188" height="1.42188" transform="rotate(90 598.172 308.691)" fill="#808080"/>
<rect x="574" y="308.691" width="1.42188" height="1.42188" transform="rotate(90 574 308.691)" fill="#808080"/>
<rect x="549.828" y="308.691" width="1.42188" height="1.42188" transform="rotate(90 549.828 308.691)" fill="#808080"/>
<rect x="525.656" y="308.691" width="1.42188" height="1.42188" transform="rotate(90 525.656 308.691)" fill="#808080"/>
<rect x="501.484" y="308.691" width="1.42188" height="1.42188" transform="rotate(90 501.484 308.691)" fill="#808080"/>
<rect x="477.312" y="308.691" width="1.42188" height="1.42188" transform="rotate(90 477.312 308.691)" fill="#808080"/>
<rect x="453.141" y="308.691" width="1.42188" height="1.42188" transform="rotate(90 453.141 308.691)" fill="#808080"/>
<rect x="428.969" y="308.691" width="1.42188" height="1.42188" transform="rotate(90 428.969 308.691)" fill="#808080"/>
<rect x="404.797" y="308.691" width="1.42188" height="1.42188" transform="rotate(90 404.797 308.691)" fill="#808080"/>
<rect x="646.516" y="139.488" width="1.42188" height="1.42188" transform="rotate(90 646.516 139.488)" fill="#808080"/>
<rect x="622.344" y="139.488" width="1.42188" height="1.42188" transform="rotate(90 622.344 139.488)" fill="#808080"/>
<rect x="598.172" y="139.488" width="1.42188" height="1.42188" transform="rotate(90 598.172 139.488)" fill="#808080"/>
<rect x="574" y="139.488" width="1.42188" height="1.42188" transform="rotate(90 574 139.488)" fill="#808080"/>
<rect x="549.828" y="139.488" width="1.42188" height="1.42188" transform="rotate(90 549.828 139.488)" fill="#808080"/>
<rect x="525.656" y="139.488" width="1.42188" height="1.42188" transform="rotate(90 525.656 139.488)" fill="#808080"/>
<rect x="501.484" y="139.488" width="1.42188" height="1.42188" transform="rotate(90 501.484 139.488)" fill="#808080"/>
<rect x="477.312" y="139.488" width="1.42188" height="1.42188" transform="rotate(90 477.312 139.488)" fill="#808080"/>
<rect x="453.141" y="139.488" width="1.42188" height="1.42188" transform="rotate(90 453.141 139.488)" fill="#808080"/>
<rect x="428.969" y="139.488" width="1.42188" height="1.42188" transform="rotate(90 428.969 139.488)" fill="#808080"/>
<rect x="404.797" y="139.488" width="1.42188" height="1.42188" transform="rotate(90 404.797 139.488)" fill="#808080"/>
<rect x="646.516" y="332.863" width="1.42188" height="1.42188" transform="rotate(90 646.516 332.863)" fill="#808080"/>
<rect x="622.344" y="332.863" width="1.42188" height="1.42188" transform="rotate(90 622.344 332.863)" fill="#808080"/>
<rect x="598.172" y="332.863" width="1.42188" height="1.42188" transform="rotate(90 598.172 332.863)" fill="#808080"/>
<rect x="574" y="332.863" width="1.42188" height="1.42188" transform="rotate(90 574 332.863)" fill="#808080"/>
<rect x="549.828" y="332.863" width="1.42188" height="1.42188" transform="rotate(90 549.828 332.863)" fill="#808080"/>
<rect x="525.656" y="332.863" width="1.42188" height="1.42188" transform="rotate(90 525.656 332.863)" fill="#808080"/>
<rect x="501.484" y="332.863" width="1.42188" height="1.42188" transform="rotate(90 501.484 332.863)" fill="#808080"/>
<rect x="477.312" y="332.863" width="1.42188" height="1.42188" transform="rotate(90 477.312 332.863)" fill="#808080"/>
<rect x="453.141" y="332.863" width="1.42188" height="1.42188" transform="rotate(90 453.141 332.863)" fill="#808080"/>
<rect x="428.969" y="332.863" width="1.42188" height="1.42188" transform="rotate(90 428.969 332.863)" fill="#808080"/>
<rect x="404.797" y="332.863" width="1.42188" height="1.42188" transform="rotate(90 404.797 332.863)" fill="#808080"/>
<rect x="646.516" y="163.66" width="1.42188" height="1.42188" transform="rotate(90 646.516 163.66)" fill="#808080"/>
<rect x="622.344" y="163.66" width="1.42188" height="1.42188" transform="rotate(90 622.344 163.66)" fill="#808080"/>
<rect x="598.172" y="163.66" width="1.42188" height="1.42188" transform="rotate(90 598.172 163.66)" fill="#808080"/>
<rect x="574" y="163.66" width="1.42188" height="1.42188" transform="rotate(90 574 163.66)" fill="#808080"/>
<rect x="549.828" y="163.66" width="1.42188" height="1.42188" transform="rotate(90 549.828 163.66)" fill="#808080"/>
<rect x="525.656" y="163.66" width="1.42188" height="1.42188" transform="rotate(90 525.656 163.66)" fill="#808080"/>
<rect x="501.484" y="163.66" width="1.42188" height="1.42188" transform="rotate(90 501.484 163.66)" fill="#808080"/>
<rect x="477.312" y="163.66" width="1.42188" height="1.42188" transform="rotate(90 477.312 163.66)" fill="#808080"/>
<rect x="453.141" y="163.66" width="1.42188" height="1.42188" transform="rotate(90 453.141 163.66)" fill="#808080"/>
<rect x="428.969" y="163.66" width="1.42188" height="1.42188" transform="rotate(90 428.969 163.66)" fill="#808080"/>
<rect x="404.797" y="163.66" width="1.42188" height="1.42188" transform="rotate(90 404.797 163.66)" fill="#808080"/>
<rect x="646.516" y="357.035" width="1.42188" height="1.42188" transform="rotate(90 646.516 357.035)" fill="#808080"/>
<rect x="622.344" y="357.035" width="1.42188" height="1.42188" transform="rotate(90 622.344 357.035)" fill="#808080"/>
<rect x="598.172" y="357.035" width="1.42188" height="1.42188" transform="rotate(90 598.172 357.035)" fill="#808080"/>
<rect x="574" y="357.035" width="1.42188" height="1.42188" transform="rotate(90 574 357.035)" fill="#808080"/>
<rect x="549.828" y="357.035" width="1.42188" height="1.42188" transform="rotate(90 549.828 357.035)" fill="#808080"/>
<rect x="525.656" y="357.035" width="1.42188" height="1.42188" transform="rotate(90 525.656 357.035)" fill="#808080"/>
<rect x="501.484" y="357.035" width="1.42188" height="1.42188" transform="rotate(90 501.484 357.035)" fill="#808080"/>
<rect x="477.312" y="357.035" width="1.42188" height="1.42188" transform="rotate(90 477.312 357.035)" fill="#808080"/>
<rect x="453.141" y="357.035" width="1.42188" height="1.42188" transform="rotate(90 453.141 357.035)" fill="#808080"/>
<rect x="428.969" y="357.035" width="1.42188" height="1.42188" transform="rotate(90 428.969 357.035)" fill="#808080"/>
<rect x="404.797" y="357.035" width="1.42188" height="1.42188" transform="rotate(90 404.797 357.035)" fill="#808080"/>
<rect x="646.516" y="187.832" width="1.42188" height="1.42188" transform="rotate(90 646.516 187.832)" fill="#808080"/>
<rect x="622.344" y="187.832" width="1.42188" height="1.42188" transform="rotate(90 622.344 187.832)" fill="#808080"/>
<rect x="598.172" y="187.832" width="1.42188" height="1.42188" transform="rotate(90 598.172 187.832)" fill="#808080"/>
<rect x="574" y="187.832" width="1.42188" height="1.42188" transform="rotate(90 574 187.832)" fill="#808080"/>
<rect x="549.828" y="187.832" width="1.42188" height="1.42188" transform="rotate(90 549.828 187.832)" fill="#808080"/>
<rect x="525.656" y="187.832" width="1.42188" height="1.42188" transform="rotate(90 525.656 187.832)" fill="#808080"/>
<rect x="501.484" y="187.832" width="1.42188" height="1.42188" transform="rotate(90 501.484 187.832)" fill="#808080"/>
<rect x="477.312" y="187.832" width="1.42188" height="1.42188" transform="rotate(90 477.312 187.832)" fill="#808080"/>
<rect x="453.141" y="187.832" width="1.42188" height="1.42188" transform="rotate(90 453.141 187.832)" fill="#808080"/>
<rect x="428.969" y="187.832" width="1.42188" height="1.42188" transform="rotate(90 428.969 187.832)" fill="#808080"/>
<rect x="404.797" y="187.832" width="1.42188" height="1.42188" transform="rotate(90 404.797 187.832)" fill="#808080"/>
<rect x="646.516" y="381.207" width="1.42188" height="1.42188" transform="rotate(90 646.516 381.207)" fill="#808080"/>
<rect x="622.344" y="381.207" width="1.42188" height="1.42188" transform="rotate(90 622.344 381.207)" fill="#808080"/>
<rect x="598.172" y="381.207" width="1.42188" height="1.42188" transform="rotate(90 598.172 381.207)" fill="#808080"/>
<rect x="574" y="381.207" width="1.42188" height="1.42188" transform="rotate(90 574 381.207)" fill="#808080"/>
<rect x="549.828" y="381.207" width="1.42188" height="1.42188" transform="rotate(90 549.828 381.207)" fill="#808080"/>
<rect x="525.656" y="381.207" width="1.42188" height="1.42188" transform="rotate(90 525.656 381.207)" fill="#808080"/>
<rect x="501.484" y="381.207" width="1.42188" height="1.42188" transform="rotate(90 501.484 381.207)" fill="#808080"/>
<rect x="477.312" y="381.207" width="1.42188" height="1.42188" transform="rotate(90 477.312 381.207)" fill="#808080"/>
<rect x="453.141" y="381.207" width="1.42188" height="1.42188" transform="rotate(90 453.141 381.207)" fill="#808080"/>
<rect x="428.969" y="381.207" width="1.42188" height="1.42188" transform="rotate(90 428.969 381.207)" fill="#808080"/>
<rect x="404.797" y="381.207" width="1.42188" height="1.42188" transform="rotate(90 404.797 381.207)" fill="#808080"/>
<rect x="646.516" y="212.004" width="1.42188" height="1.42188" transform="rotate(90 646.516 212.004)" fill="#808080"/>
<rect x="622.344" y="212.004" width="1.42188" height="1.42188" transform="rotate(90 622.344 212.004)" fill="#808080"/>
<rect x="598.172" y="212.004" width="1.42188" height="1.42188" transform="rotate(90 598.172 212.004)" fill="#808080"/>
<rect x="574" y="212.004" width="1.42188" height="1.42188" transform="rotate(90 574 212.004)" fill="#808080"/>
<rect x="549.828" y="212.004" width="1.42188" height="1.42188" transform="rotate(90 549.828 212.004)" fill="#808080"/>
<rect x="525.656" y="212.004" width="1.42188" height="1.42188" transform="rotate(90 525.656 212.004)" fill="#808080"/>
<rect x="501.484" y="212.004" width="1.42188" height="1.42188" transform="rotate(90 501.484 212.004)" fill="#808080"/>
<rect x="477.312" y="212.004" width="1.42188" height="1.42188" transform="rotate(90 477.312 212.004)" fill="#808080"/>
<rect x="453.141" y="212.004" width="1.42188" height="1.42188" transform="rotate(90 453.141 212.004)" fill="#808080"/>
<rect x="428.969" y="212.004" width="1.42188" height="1.42188" transform="rotate(90 428.969 212.004)" fill="#808080"/>
<rect x="404.797" y="212.004" width="1.42188" height="1.42188" transform="rotate(90 404.797 212.004)" fill="#808080"/>
<rect x="646.516" y="405.379" width="1.42188" height="1.42188" transform="rotate(90 646.516 405.379)" fill="#808080"/>
<rect x="622.344" y="405.379" width="1.42188" height="1.42188" transform="rotate(90 622.344 405.379)" fill="#808080"/>
<rect x="598.172" y="405.379" width="1.42188" height="1.42188" transform="rotate(90 598.172 405.379)" fill="#808080"/>
<rect x="574" y="405.379" width="1.42188" height="1.42188" transform="rotate(90 574 405.379)" fill="#808080"/>
<rect x="549.828" y="405.379" width="1.42188" height="1.42188" transform="rotate(90 549.828 405.379)" fill="#808080"/>
<rect x="525.656" y="405.379" width="1.42188" height="1.42188" transform="rotate(90 525.656 405.379)" fill="#808080"/>
<rect x="501.484" y="405.379" width="1.42188" height="1.42188" transform="rotate(90 501.484 405.379)" fill="#808080"/>
<rect x="477.312" y="405.379" width="1.42188" height="1.42188" transform="rotate(90 477.312 405.379)" fill="#808080"/>
<rect x="453.141" y="405.379" width="1.42188" height="1.42188" transform="rotate(90 453.141 405.379)" fill="#808080"/>
<rect x="428.969" y="405.379" width="1.42188" height="1.42188" transform="rotate(90 428.969 405.379)" fill="#808080"/>
<rect x="404.797" y="405.379" width="1.42188" height="1.42188" transform="rotate(90 404.797 405.379)" fill="#808080"/>
<rect x="646.516" y="236.176" width="1.42188" height="1.42188" transform="rotate(90 646.516 236.176)" fill="#808080"/>
<rect x="622.344" y="236.176" width="1.42188" height="1.42188" transform="rotate(90 622.344 236.176)" fill="#808080"/>
<rect x="598.172" y="236.176" width="1.42188" height="1.42188" transform="rotate(90 598.172 236.176)" fill="#808080"/>
<rect x="574" y="236.176" width="1.42188" height="1.42188" transform="rotate(90 574 236.176)" fill="#808080"/>
<rect x="549.828" y="236.176" width="1.42188" height="1.42188" transform="rotate(90 549.828 236.176)" fill="#808080"/>
<rect x="525.656" y="236.176" width="1.42188" height="1.42188" transform="rotate(90 525.656 236.176)" fill="#808080"/>
<rect x="501.484" y="236.176" width="1.42188" height="1.42188" transform="rotate(90 501.484 236.176)" fill="#808080"/>
<rect x="477.312" y="236.176" width="1.42188" height="1.42188" transform="rotate(90 477.312 236.176)" fill="#808080"/>
<rect x="453.141" y="236.176" width="1.42188" height="1.42188" transform="rotate(90 453.141 236.176)" fill="#808080"/>
<rect x="428.969" y="236.176" width="1.42188" height="1.42188" transform="rotate(90 428.969 236.176)" fill="#808080"/>
<rect x="404.797" y="236.176" width="1.42188" height="1.42188" transform="rotate(90 404.797 236.176)" fill="#808080"/>
<rect x="646.516" y="429.551" width="1.42188" height="1.42188" transform="rotate(90 646.516 429.551)" fill="#808080"/>
<rect x="622.344" y="429.551" width="1.42188" height="1.42188" transform="rotate(90 622.344 429.551)" fill="#808080"/>
<rect x="598.172" y="429.551" width="1.42188" height="1.42188" transform="rotate(90 598.172 429.551)" fill="#808080"/>
<rect x="574" y="429.551" width="1.42188" height="1.42188" transform="rotate(90 574 429.551)" fill="#808080"/>
<rect x="549.828" y="429.551" width="1.42188" height="1.42188" transform="rotate(90 549.828 429.551)" fill="#808080"/>
<rect x="525.656" y="429.551" width="1.42188" height="1.42188" transform="rotate(90 525.656 429.551)" fill="#808080"/>
<rect x="501.484" y="429.551" width="1.42188" height="1.42188" transform="rotate(90 501.484 429.551)" fill="#808080"/>
<rect x="477.312" y="429.551" width="1.42188" height="1.42188" transform="rotate(90 477.312 429.551)" fill="#808080"/>
<rect x="453.141" y="429.551" width="1.42188" height="1.42188" transform="rotate(90 453.141 429.551)" fill="#808080"/>
<rect x="428.969" y="429.551" width="1.42188" height="1.42188" transform="rotate(90 428.969 429.551)" fill="#808080"/>
<rect x="404.797" y="429.551" width="1.42188" height="1.42188" transform="rotate(90 404.797 429.551)" fill="#808080"/>
<rect x="380.625" y="66.9727" width="1.42188" height="1.42188" transform="rotate(90 380.625 66.9727)" fill="#808080"/>
<rect x="356.453" y="66.9727" width="1.42188" height="1.42188" transform="rotate(90 356.453 66.9727)" fill="#808080"/>
<rect x="332.281" y="66.9727" width="1.42188" height="1.42188" transform="rotate(90 332.281 66.9727)" fill="#808080"/>
<rect x="308.109" y="66.9727" width="1.42188" height="1.42188" transform="rotate(90 308.109 66.9727)" fill="#808080"/>
<rect x="283.937" y="66.9727" width="1.42188" height="1.42188" transform="rotate(90 283.937 66.9727)" fill="#808080"/>
<rect x="259.766" y="66.9736" width="1.42188" height="1.42188" transform="rotate(90 259.766 66.9736)" fill="#808080"/>
<rect x="235.594" y="66.9736" width="1.42188" height="1.42188" transform="rotate(90 235.594 66.9736)" fill="#808080"/>
<rect x="211.422" y="66.9736" width="1.42188" height="1.42188" transform="rotate(90 211.422 66.9736)" fill="#808080"/>
<rect x="187.25" y="66.9736" width="1.42188" height="1.42188" transform="rotate(90 187.25 66.9736)" fill="#808080"/>
<rect x="163.078" y="66.9736" width="1.42188" height="1.42188" transform="rotate(90 163.078 66.9736)" fill="#808080"/>
<rect x="138.906" y="66.9736" width="1.42188" height="1.42188" transform="rotate(90 138.906 66.9736)" fill="#808080"/>
<rect x="380.625" y="260.348" width="1.42188" height="1.42188" transform="rotate(90 380.625 260.348)" fill="#808080"/>
<rect x="356.453" y="260.348" width="1.42188" height="1.42188" transform="rotate(90 356.453 260.348)" fill="#808080"/>
<rect x="332.281" y="260.348" width="1.42188" height="1.42188" transform="rotate(90 332.281 260.348)" fill="#808080"/>
<rect x="308.109" y="260.348" width="1.42188" height="1.42188" transform="rotate(90 308.109 260.348)" fill="#808080"/>
<rect x="283.937" y="260.348" width="1.42188" height="1.42188" transform="rotate(90 283.937 260.348)" fill="#808080"/>
<rect x="259.766" y="260.349" width="1.42188" height="1.42188" transform="rotate(90 259.766 260.349)" fill="#808080"/>
<rect x="235.594" y="260.349" width="1.42188" height="1.42188" transform="rotate(90 235.594 260.349)" fill="#808080"/>
<rect x="211.422" y="260.349" width="1.42188" height="1.42188" transform="rotate(90 211.422 260.349)" fill="#808080"/>
<rect x="187.25" y="260.349" width="1.42188" height="1.42188" transform="rotate(90 187.25 260.349)" fill="#808080"/>
<rect x="163.078" y="260.349" width="1.42188" height="1.42188" transform="rotate(90 163.078 260.349)" fill="#808080"/>
<rect x="138.906" y="260.349" width="1.42188" height="1.42188" transform="rotate(90 138.906 260.349)" fill="#808080"/>
<rect x="380.625" y="91.1445" width="1.42188" height="1.42188" transform="rotate(90 380.625 91.1445)" fill="#808080"/>
<rect x="356.453" y="91.1445" width="1.42188" height="1.42188" transform="rotate(90 356.453 91.1445)" fill="#808080"/>
<rect x="332.281" y="91.1445" width="1.42188" height="1.42188" transform="rotate(90 332.281 91.1445)" fill="#808080"/>
<rect x="308.109" y="91.1445" width="1.42188" height="1.42188" transform="rotate(90 308.109 91.1445)" fill="#808080"/>
<rect x="283.937" y="91.1445" width="1.42188" height="1.42188" transform="rotate(90 283.937 91.1445)" fill="#808080"/>
<rect x="259.766" y="91.1455" width="1.42188" height="1.42188" transform="rotate(90 259.766 91.1455)" fill="#808080"/>
<rect x="235.594" y="91.1455" width="1.42188" height="1.42188" transform="rotate(90 235.594 91.1455)" fill="#808080"/>
<rect x="211.422" y="91.1455" width="1.42188" height="1.42188" transform="rotate(90 211.422 91.1455)" fill="#808080"/>
<rect x="187.25" y="91.1455" width="1.42188" height="1.42188" transform="rotate(90 187.25 91.1455)" fill="#808080"/>
<rect x="163.078" y="91.1455" width="1.42188" height="1.42188" transform="rotate(90 163.078 91.1455)" fill="#808080"/>
<rect x="138.906" y="91.1455" width="1.42188" height="1.42188" transform="rotate(90 138.906 91.1455)" fill="#808080"/>
<rect x="380.625" y="284.52" width="1.42188" height="1.42188" transform="rotate(90 380.625 284.52)" fill="#808080"/>
<rect x="356.453" y="284.52" width="1.42188" height="1.42188" transform="rotate(90 356.453 284.52)" fill="#808080"/>
<rect x="332.281" y="284.52" width="1.42188" height="1.42188" transform="rotate(90 332.281 284.52)" fill="#808080"/>
<rect x="308.109" y="284.52" width="1.42188" height="1.42188" transform="rotate(90 308.109 284.52)" fill="#808080"/>
<rect x="283.937" y="284.52" width="1.42188" height="1.42188" transform="rotate(90 283.937 284.52)" fill="#808080"/>
<rect x="259.766" y="284.521" width="1.42188" height="1.42188" transform="rotate(90 259.766 284.521)" fill="#808080"/>
<rect x="235.594" y="284.521" width="1.42188" height="1.42188" transform="rotate(90 235.594 284.521)" fill="#808080"/>
<rect x="211.422" y="284.521" width="1.42188" height="1.42188" transform="rotate(90 211.422 284.521)" fill="#808080"/>
<rect x="187.25" y="284.521" width="1.42188" height="1.42188" transform="rotate(90 187.25 284.521)" fill="#808080"/>
<rect x="163.078" y="284.521" width="1.42188" height="1.42188" transform="rotate(90 163.078 284.521)" fill="#808080"/>
<rect x="138.906" y="284.521" width="1.42188" height="1.42188" transform="rotate(90 138.906 284.521)" fill="#808080"/>
<rect x="380.625" y="115.316" width="1.42188" height="1.42188" transform="rotate(90 380.625 115.316)" fill="#808080"/>
<rect x="356.453" y="115.316" width="1.42188" height="1.42188" transform="rotate(90 356.453 115.316)" fill="#808080"/>
<rect x="332.281" y="115.316" width="1.42188" height="1.42188" transform="rotate(90 332.281 115.316)" fill="#808080"/>
<rect x="308.109" y="115.316" width="1.42188" height="1.42188" transform="rotate(90 308.109 115.316)" fill="#808080"/>
<rect x="283.937" y="115.316" width="1.42188" height="1.42188" transform="rotate(90 283.937 115.316)" fill="#808080"/>
<rect x="259.766" y="115.317" width="1.42188" height="1.42188" transform="rotate(90 259.766 115.317)" fill="#808080"/>
<rect x="235.594" y="115.317" width="1.42188" height="1.42188" transform="rotate(90 235.594 115.317)" fill="#808080"/>
<rect x="211.422" y="115.317" width="1.42188" height="1.42188" transform="rotate(90 211.422 115.317)" fill="#808080"/>
<rect x="187.25" y="115.317" width="1.42188" height="1.42188" transform="rotate(90 187.25 115.317)" fill="#808080"/>
<rect x="163.078" y="115.317" width="1.42188" height="1.42188" transform="rotate(90 163.078 115.317)" fill="#808080"/>
<rect x="138.906" y="115.317" width="1.42188" height="1.42188" transform="rotate(90 138.906 115.317)" fill="#808080"/>
<rect x="380.625" y="308.691" width="1.42188" height="1.42188" transform="rotate(90 380.625 308.691)" fill="#808080"/>
<rect x="356.453" y="308.691" width="1.42188" height="1.42188" transform="rotate(90 356.453 308.691)" fill="#808080"/>
<rect x="332.281" y="308.691" width="1.42188" height="1.42188" transform="rotate(90 332.281 308.691)" fill="#808080"/>
<rect x="308.109" y="308.691" width="1.42188" height="1.42188" transform="rotate(90 308.109 308.691)" fill="#808080"/>
<rect x="283.937" y="308.691" width="1.42188" height="1.42188" transform="rotate(90 283.937 308.691)" fill="#808080"/>
<rect x="259.766" y="308.692" width="1.42188" height="1.42188" transform="rotate(90 259.766 308.692)" fill="#808080"/>
<rect x="235.594" y="308.692" width="1.42188" height="1.42188" transform="rotate(90 235.594 308.692)" fill="#808080"/>
<rect x="211.422" y="308.692" width="1.42188" height="1.42188" transform="rotate(90 211.422 308.692)" fill="#808080"/>
<rect x="187.25" y="308.692" width="1.42188" height="1.42188" transform="rotate(90 187.25 308.692)" fill="#808080"/>
<rect x="163.078" y="308.692" width="1.42188" height="1.42188" transform="rotate(90 163.078 308.692)" fill="#808080"/>
<rect x="138.906" y="308.692" width="1.42188" height="1.42188" transform="rotate(90 138.906 308.692)" fill="#808080"/>
<rect x="380.625" y="139.488" width="1.42188" height="1.42188" transform="rotate(90 380.625 139.488)" fill="#808080"/>
<rect x="356.453" y="139.488" width="1.42188" height="1.42188" transform="rotate(90 356.453 139.488)" fill="#808080"/>
<rect x="332.281" y="139.488" width="1.42188" height="1.42188" transform="rotate(90 332.281 139.488)" fill="#808080"/>
<rect x="308.109" y="139.488" width="1.42188" height="1.42188" transform="rotate(90 308.109 139.488)" fill="#808080"/>
<rect x="283.937" y="139.488" width="1.42188" height="1.42188" transform="rotate(90 283.937 139.488)" fill="#808080"/>
<rect x="259.766" y="139.489" width="1.42188" height="1.42188" transform="rotate(90 259.766 139.489)" fill="#808080"/>
<rect x="235.594" y="139.489" width="1.42188" height="1.42188" transform="rotate(90 235.594 139.489)" fill="#808080"/>
<rect x="211.422" y="139.489" width="1.42188" height="1.42188" transform="rotate(90 211.422 139.489)" fill="#808080"/>
<rect x="187.25" y="139.489" width="1.42188" height="1.42188" transform="rotate(90 187.25 139.489)" fill="#808080"/>
<rect x="163.078" y="139.489" width="1.42188" height="1.42188" transform="rotate(90 163.078 139.489)" fill="#808080"/>
<rect x="138.906" y="139.489" width="1.42188" height="1.42188" transform="rotate(90 138.906 139.489)" fill="#808080"/>
<rect x="380.625" y="332.863" width="1.42188" height="1.42188" transform="rotate(90 380.625 332.863)" fill="#808080"/>
<rect x="356.453" y="332.863" width="1.42188" height="1.42188" transform="rotate(90 356.453 332.863)" fill="#808080"/>
<rect x="332.281" y="332.863" width="1.42188" height="1.42188" transform="rotate(90 332.281 332.863)" fill="#808080"/>
<rect x="308.109" y="332.863" width="1.42188" height="1.42188" transform="rotate(90 308.109 332.863)" fill="#808080"/>
<rect x="283.937" y="332.863" width="1.42188" height="1.42188" transform="rotate(90 283.937 332.863)" fill="#808080"/>
<rect x="259.766" y="332.864" width="1.42188" height="1.42188" transform="rotate(90 259.766 332.864)" fill="#808080"/>
<rect x="235.594" y="332.864" width="1.42188" height="1.42188" transform="rotate(90 235.594 332.864)" fill="#808080"/>
<rect x="211.422" y="332.864" width="1.42188" height="1.42188" transform="rotate(90 211.422 332.864)" fill="#808080"/>
<rect x="187.25" y="332.864" width="1.42188" height="1.42188" transform="rotate(90 187.25 332.864)" fill="#808080"/>
<rect x="163.078" y="332.864" width="1.42188" height="1.42188" transform="rotate(90 163.078 332.864)" fill="#808080"/>
<rect x="138.906" y="332.864" width="1.42188" height="1.42188" transform="rotate(90 138.906 332.864)" fill="#808080"/>
<rect x="380.625" y="163.66" width="1.42188" height="1.42188" transform="rotate(90 380.625 163.66)" fill="#808080"/>
<rect x="356.453" y="163.66" width="1.42188" height="1.42188" transform="rotate(90 356.453 163.66)" fill="#808080"/>
<rect x="332.281" y="163.66" width="1.42188" height="1.42188" transform="rotate(90 332.281 163.66)" fill="#808080"/>
<rect x="308.109" y="163.66" width="1.42188" height="1.42188" transform="rotate(90 308.109 163.66)" fill="#808080"/>
<rect x="283.937" y="163.66" width="1.42188" height="1.42188" transform="rotate(90 283.937 163.66)" fill="#808080"/>
<rect x="259.766" y="163.661" width="1.42188" height="1.42188" transform="rotate(90 259.766 163.661)" fill="#808080"/>
<rect x="235.594" y="163.661" width="1.42188" height="1.42188" transform="rotate(90 235.594 163.661)" fill="#808080"/>
<rect x="211.422" y="163.661" width="1.42188" height="1.42188" transform="rotate(90 211.422 163.661)" fill="#808080"/>
<rect x="187.25" y="163.661" width="1.42188" height="1.42188" transform="rotate(90 187.25 163.661)" fill="#808080"/>
<rect x="163.078" y="163.661" width="1.42188" height="1.42188" transform="rotate(90 163.078 163.661)" fill="#808080"/>
<rect x="138.906" y="163.661" width="1.42188" height="1.42188" transform="rotate(90 138.906 163.661)" fill="#808080"/>
<rect x="380.625" y="357.035" width="1.42188" height="1.42188" transform="rotate(90 380.625 357.035)" fill="#808080"/>
<rect x="356.453" y="357.035" width="1.42188" height="1.42188" transform="rotate(90 356.453 357.035)" fill="#808080"/>
<rect x="332.281" y="357.035" width="1.42188" height="1.42188" transform="rotate(90 332.281 357.035)" fill="#808080"/>
<rect x="308.109" y="357.035" width="1.42188" height="1.42188" transform="rotate(90 308.109 357.035)" fill="#808080"/>
<rect x="283.937" y="357.035" width="1.42188" height="1.42188" transform="rotate(90 283.937 357.035)" fill="#808080"/>
<rect x="259.766" y="357.036" width="1.42188" height="1.42188" transform="rotate(90 259.766 357.036)" fill="#808080"/>
<rect x="235.594" y="357.036" width="1.42188" height="1.42188" transform="rotate(90 235.594 357.036)" fill="#808080"/>
<rect x="211.422" y="357.036" width="1.42188" height="1.42188" transform="rotate(90 211.422 357.036)" fill="#808080"/>
<rect x="187.25" y="357.036" width="1.42188" height="1.42188" transform="rotate(90 187.25 357.036)" fill="#808080"/>
<rect x="163.078" y="357.036" width="1.42188" height="1.42188" transform="rotate(90 163.078 357.036)" fill="#808080"/>
<rect x="138.906" y="357.036" width="1.42188" height="1.42188" transform="rotate(90 138.906 357.036)" fill="#808080"/>
<rect x="380.625" y="187.832" width="1.42188" height="1.42188" transform="rotate(90 380.625 187.832)" fill="#808080"/>
<rect x="356.453" y="187.832" width="1.42188" height="1.42188" transform="rotate(90 356.453 187.832)" fill="#808080"/>
<rect x="332.281" y="187.832" width="1.42188" height="1.42188" transform="rotate(90 332.281 187.832)" fill="#808080"/>
<rect x="308.109" y="187.832" width="1.42188" height="1.42188" transform="rotate(90 308.109 187.832)" fill="#808080"/>
<rect x="283.937" y="187.832" width="1.42188" height="1.42188" transform="rotate(90 283.937 187.832)" fill="#808080"/>
<rect x="259.766" y="187.833" width="1.42188" height="1.42188" transform="rotate(90 259.766 187.833)" fill="#808080"/>
<rect x="235.594" y="187.833" width="1.42188" height="1.42188" transform="rotate(90 235.594 187.833)" fill="#808080"/>
<rect x="211.422" y="187.833" width="1.42188" height="1.42188" transform="rotate(90 211.422 187.833)" fill="#808080"/>
<rect x="187.25" y="187.833" width="1.42188" height="1.42188" transform="rotate(90 187.25 187.833)" fill="#808080"/>
<rect x="163.078" y="187.833" width="1.42188" height="1.42188" transform="rotate(90 163.078 187.833)" fill="#808080"/>
<rect x="138.906" y="187.833" width="1.42188" height="1.42188" transform="rotate(90 138.906 187.833)" fill="#808080"/>
<rect x="380.625" y="381.207" width="1.42188" height="1.42188" transform="rotate(90 380.625 381.207)" fill="#808080"/>
<rect x="356.453" y="381.207" width="1.42188" height="1.42188" transform="rotate(90 356.453 381.207)" fill="#808080"/>
<rect x="332.281" y="381.207" width="1.42188" height="1.42188" transform="rotate(90 332.281 381.207)" fill="#808080"/>
<rect x="308.109" y="381.207" width="1.42188" height="1.42188" transform="rotate(90 308.109 381.207)" fill="#808080"/>
<rect x="283.937" y="381.207" width="1.42188" height="1.42188" transform="rotate(90 283.937 381.207)" fill="#808080"/>
<rect x="259.766" y="381.208" width="1.42188" height="1.42188" transform="rotate(90 259.766 381.208)" fill="#808080"/>
<rect x="235.594" y="381.208" width="1.42188" height="1.42188" transform="rotate(90 235.594 381.208)" fill="#808080"/>
<rect x="211.422" y="381.208" width="1.42188" height="1.42188" transform="rotate(90 211.422 381.208)" fill="#808080"/>
<rect x="187.25" y="381.208" width="1.42188" height="1.42188" transform="rotate(90 187.25 381.208)" fill="#808080"/>
<rect x="163.078" y="381.208" width="1.42188" height="1.42188" transform="rotate(90 163.078 381.208)" fill="#808080"/>
<rect x="138.906" y="381.208" width="1.42188" height="1.42188" transform="rotate(90 138.906 381.208)" fill="#808080"/>
<rect x="380.625" y="212.004" width="1.42188" height="1.42188" transform="rotate(90 380.625 212.004)" fill="#808080"/>
<rect x="356.453" y="212.004" width="1.42188" height="1.42188" transform="rotate(90 356.453 212.004)" fill="#808080"/>
<rect x="332.281" y="212.004" width="1.42188" height="1.42188" transform="rotate(90 332.281 212.004)" fill="#808080"/>
<rect x="308.109" y="212.004" width="1.42188" height="1.42188" transform="rotate(90 308.109 212.004)" fill="#808080"/>
<rect x="283.937" y="212.004" width="1.42188" height="1.42188" transform="rotate(90 283.937 212.004)" fill="#808080"/>
<rect x="259.766" y="212.005" width="1.42188" height="1.42188" transform="rotate(90 259.766 212.005)" fill="#808080"/>
<rect x="235.594" y="212.005" width="1.42188" height="1.42188" transform="rotate(90 235.594 212.005)" fill="#808080"/>
<rect x="211.422" y="212.005" width="1.42188" height="1.42188" transform="rotate(90 211.422 212.005)" fill="#808080"/>
<rect x="187.25" y="212.005" width="1.42188" height="1.42188" transform="rotate(90 187.25 212.005)" fill="#808080"/>
<rect x="163.078" y="212.005" width="1.42188" height="1.42188" transform="rotate(90 163.078 212.005)" fill="#808080"/>
<rect x="138.906" y="212.005" width="1.42188" height="1.42188" transform="rotate(90 138.906 212.005)" fill="#808080"/>
<rect x="380.625" y="405.379" width="1.42188" height="1.42188" transform="rotate(90 380.625 405.379)" fill="#808080"/>
<rect x="356.453" y="405.379" width="1.42188" height="1.42188" transform="rotate(90 356.453 405.379)" fill="#808080"/>
<rect x="332.281" y="405.379" width="1.42188" height="1.42188" transform="rotate(90 332.281 405.379)" fill="#808080"/>
<rect x="308.109" y="405.379" width="1.42188" height="1.42188" transform="rotate(90 308.109 405.379)" fill="#808080"/>
<rect x="283.937" y="405.379" width="1.42188" height="1.42188" transform="rotate(90 283.937 405.379)" fill="#808080"/>
<rect x="259.766" y="405.38" width="1.42188" height="1.42188" transform="rotate(90 259.766 405.38)" fill="#808080"/>
<rect x="235.594" y="405.38" width="1.42188" height="1.42188" transform="rotate(90 235.594 405.38)" fill="#808080"/>
<rect x="211.422" y="405.38" width="1.42188" height="1.42188" transform="rotate(90 211.422 405.38)" fill="#808080"/>
<rect x="187.25" y="405.38" width="1.42188" height="1.42188" transform="rotate(90 187.25 405.38)" fill="#808080"/>
<rect x="163.078" y="405.38" width="1.42188" height="1.42188" transform="rotate(90 163.078 405.38)" fill="#808080"/>
<rect x="138.906" y="405.38" width="1.42188" height="1.42188" transform="rotate(90 138.906 405.38)" fill="#808080"/>
<rect x="380.625" y="236.176" width="1.42188" height="1.42188" transform="rotate(90 380.625 236.176)" fill="#808080"/>
<rect x="356.453" y="236.176" width="1.42188" height="1.42188" transform="rotate(90 356.453 236.176)" fill="#808080"/>
<rect x="332.281" y="236.176" width="1.42188" height="1.42188" transform="rotate(90 332.281 236.176)" fill="#808080"/>
<rect x="308.109" y="236.176" width="1.42188" height="1.42188" transform="rotate(90 308.109 236.176)" fill="#808080"/>
<rect x="283.937" y="236.176" width="1.42188" height="1.42188" transform="rotate(90 283.937 236.176)" fill="#808080"/>
<rect x="259.766" y="236.177" width="1.42188" height="1.42188" transform="rotate(90 259.766 236.177)" fill="#808080"/>
<rect x="235.594" y="236.177" width="1.42188" height="1.42188" transform="rotate(90 235.594 236.177)" fill="#808080"/>
<rect x="211.422" y="236.177" width="1.42188" height="1.42188" transform="rotate(90 211.422 236.177)" fill="#808080"/>
<rect x="187.25" y="236.177" width="1.42188" height="1.42188" transform="rotate(90 187.25 236.177)" fill="#808080"/>
<rect x="163.078" y="236.177" width="1.42188" height="1.42188" transform="rotate(90 163.078 236.177)" fill="#808080"/>
<rect x="138.906" y="236.177" width="1.42188" height="1.42188" transform="rotate(90 138.906 236.177)" fill="#808080"/>
<rect x="380.625" y="429.551" width="1.42188" height="1.42188" transform="rotate(90 380.625 429.551)" fill="#808080"/>
<rect x="356.453" y="429.551" width="1.42188" height="1.42188" transform="rotate(90 356.453 429.551)" fill="#808080"/>
<rect x="332.281" y="429.551" width="1.42188" height="1.42188" transform="rotate(90 332.281 429.551)" fill="#808080"/>
<rect x="308.109" y="429.551" width="1.42188" height="1.42188" transform="rotate(90 308.109 429.551)" fill="#808080"/>
<rect x="283.937" y="429.551" width="1.42188" height="1.42188" transform="rotate(90 283.937 429.551)" fill="#808080"/>
<rect x="259.766" y="429.552" width="1.42188" height="1.42188" transform="rotate(90 259.766 429.552)" fill="#808080"/>
<rect x="235.594" y="429.552" width="1.42188" height="1.42188" transform="rotate(90 235.594 429.552)" fill="#808080"/>
<rect x="211.422" y="429.552" width="1.42188" height="1.42188" transform="rotate(90 211.422 429.552)" fill="#808080"/>
<rect x="187.25" y="429.552" width="1.42188" height="1.42188" transform="rotate(90 187.25 429.552)" fill="#808080"/>
<rect x="163.078" y="429.552" width="1.42188" height="1.42188" transform="rotate(90 163.078 429.552)" fill="#808080"/>
<rect x="138.906" y="429.552" width="1.42188" height="1.42188" transform="rotate(90 138.906 429.552)" fill="#808080"/>
</g>
<path opacity="0.5" d="M207.62 188.5C233.04 110.982 305.982 55 392 55C431.467 55 468.182 66.7856 498.817 87.0295M205.187 196.5C200.504 213.198 198 230.806 198 249C198 312.208 228.228 368.355 275.017 403.774M508.883 94.1498C555.729 129.565 586 185.747 586 249C586 266.402 583.709 283.269 579.411 299.316M576.451 309.285C551.095 386.914 478.097 443 392 443C351.828 443 314.507 430.79 283.548 409.878" stroke="white" stroke-dasharray="2 2"/>
<g clip-path="url(#clip0_6086_11924)">
<rect x="477.312" y="260.375" width="1.42188" height="1.42188" transform="rotate(90 477.312 260.375)" fill="white"/>
<rect x="453.141" y="260.375" width="1.42188" height="1.42188" transform="rotate(90 453.141 260.375)" fill="white"/>
<rect x="428.969" y="260.375" width="1.42188" height="1.42188" transform="rotate(90 428.969 260.375)" fill="white"/>
<rect x="404.797" y="260.375" width="1.42188" height="1.42188" transform="rotate(90 404.797 260.375)" fill="white"/>
<rect x="477.312" y="284.547" width="1.42188" height="1.42188" transform="rotate(90 477.312 284.547)" fill="white"/>
<rect x="453.141" y="284.547" width="1.42188" height="1.42188" transform="rotate(90 453.141 284.547)" fill="white"/>
<rect x="428.969" y="284.547" width="1.42188" height="1.42188" transform="rotate(90 428.969 284.547)" fill="white"/>
<rect x="404.797" y="284.547" width="1.42188" height="1.42188" transform="rotate(90 404.797 284.547)" fill="white"/>
<rect x="477.312" y="308.719" width="1.42188" height="1.42188" transform="rotate(90 477.312 308.719)" fill="white"/>
<rect x="453.141" y="308.719" width="1.42188" height="1.42188" transform="rotate(90 453.141 308.719)" fill="white"/>
<rect x="428.969" y="308.719" width="1.42188" height="1.42188" transform="rotate(90 428.969 308.719)" fill="white"/>
<rect x="404.797" y="308.719" width="1.42188" height="1.42188" transform="rotate(90 404.797 308.719)" fill="white"/>
<rect x="477.312" y="332.891" width="1.42188" height="1.42188" transform="rotate(90 477.312 332.891)" fill="white"/>
<rect x="453.141" y="332.891" width="1.42188" height="1.42188" transform="rotate(90 453.141 332.891)" fill="white"/>
<rect x="428.969" y="332.891" width="1.42188" height="1.42188" transform="rotate(90 428.969 332.891)" fill="white"/>
<rect x="404.797" y="332.891" width="1.42188" height="1.42188" transform="rotate(90 404.797 332.891)" fill="white"/>
<rect x="477.312" y="163.688" width="1.42188" height="1.42188" transform="rotate(90 477.312 163.688)" fill="white"/>
<rect x="453.141" y="163.688" width="1.42188" height="1.42188" transform="rotate(90 453.141 163.688)" fill="white"/>
<rect x="428.969" y="163.688" width="1.42188" height="1.42188" transform="rotate(90 428.969 163.688)" fill="white"/>
<rect x="404.797" y="163.688" width="1.42188" height="1.42188" transform="rotate(90 404.797 163.688)" fill="white"/>
<rect x="477.312" y="187.859" width="1.42188" height="1.42188" transform="rotate(90 477.312 187.859)" fill="white"/>
<rect x="453.141" y="187.859" width="1.42188" height="1.42188" transform="rotate(90 453.141 187.859)" fill="white"/>
<rect x="428.969" y="187.859" width="1.42188" height="1.42188" transform="rotate(90 428.969 187.859)" fill="white"/>
<rect x="404.797" y="187.859" width="1.42188" height="1.42188" transform="rotate(90 404.797 187.859)" fill="white"/>
<rect x="477.312" y="212.031" width="1.42188" height="1.42188" transform="rotate(90 477.312 212.031)" fill="white"/>
<rect x="453.141" y="212.031" width="1.42188" height="1.42188" transform="rotate(90 453.141 212.031)" fill="white"/>
<rect x="428.969" y="212.031" width="1.42188" height="1.42188" transform="rotate(90 428.969 212.031)" fill="white"/>
<rect x="404.797" y="212.031" width="1.42188" height="1.42188" transform="rotate(90 404.797 212.031)" fill="white"/>
<rect x="477.312" y="236.203" width="1.42188" height="1.42188" transform="rotate(90 477.312 236.203)" fill="white"/>
<rect x="453.141" y="236.203" width="1.42188" height="1.42188" transform="rotate(90 453.141 236.203)" fill="white"/>
<rect x="428.969" y="236.203" width="1.42188" height="1.42188" transform="rotate(90 428.969 236.203)" fill="white"/>
<rect x="404.797" y="236.203" width="1.42188" height="1.42188" transform="rotate(90 404.797 236.203)" fill="white"/>
<rect x="380.625" y="260.375" width="1.42188" height="1.42188" transform="rotate(90 380.625 260.375)" fill="white"/>
<rect x="356.453" y="260.375" width="1.42188" height="1.42188" transform="rotate(90 356.453 260.375)" fill="white"/>
<rect x="332.281" y="260.375" width="1.42188" height="1.42188" transform="rotate(90 332.281 260.375)" fill="white"/>
<rect x="308.109" y="260.375" width="1.42188" height="1.42188" transform="rotate(90 308.109 260.375)" fill="white"/>
<rect x="380.625" y="284.547" width="1.42188" height="1.42188" transform="rotate(90 380.625 284.547)" fill="white"/>
<rect x="356.453" y="284.547" width="1.42188" height="1.42188" transform="rotate(90 356.453 284.547)" fill="white"/>
<rect x="332.281" y="284.547" width="1.42188" height="1.42188" transform="rotate(90 332.281 284.547)" fill="white"/>
<rect x="308.109" y="284.547" width="1.42188" height="1.42188" transform="rotate(90 308.109 284.547)" fill="white"/>
<rect x="380.625" y="308.719" width="1.42188" height="1.42188" transform="rotate(90 380.625 308.719)" fill="white"/>
<rect x="356.453" y="308.719" width="1.42188" height="1.42188" transform="rotate(90 356.453 308.719)" fill="white"/>
<rect x="332.281" y="308.719" width="1.42188" height="1.42188" transform="rotate(90 332.281 308.719)" fill="white"/>
<rect x="308.109" y="308.719" width="1.42188" height="1.42188" transform="rotate(90 308.109 308.719)" fill="white"/>
<rect x="380.625" y="332.891" width="1.42188" height="1.42188" transform="rotate(90 380.625 332.891)" fill="white"/>
<rect x="356.453" y="332.891" width="1.42188" height="1.42188" transform="rotate(90 356.453 332.891)" fill="white"/>
<rect x="332.281" y="332.891" width="1.42188" height="1.42188" transform="rotate(90 332.281 332.891)" fill="white"/>
<rect x="308.109" y="332.891" width="1.42188" height="1.42188" transform="rotate(90 308.109 332.891)" fill="white"/>
<rect x="380.625" y="163.688" width="1.42188" height="1.42188" transform="rotate(90 380.625 163.688)" fill="white"/>
<rect x="356.453" y="163.688" width="1.42188" height="1.42188" transform="rotate(90 356.453 163.688)" fill="white"/>
<rect x="332.281" y="163.688" width="1.42188" height="1.42188" transform="rotate(90 332.281 163.688)" fill="white"/>
<rect x="308.109" y="163.688" width="1.42188" height="1.42188" transform="rotate(90 308.109 163.688)" fill="white"/>
<rect x="380.625" y="187.859" width="1.42188" height="1.42188" transform="rotate(90 380.625 187.859)" fill="white"/>
<rect x="356.453" y="187.859" width="1.42188" height="1.42188" transform="rotate(90 356.453 187.859)" fill="white"/>
<rect x="332.281" y="187.859" width="1.42188" height="1.42188" transform="rotate(90 332.281 187.859)" fill="white"/>
<rect x="308.109" y="187.859" width="1.42188" height="1.42188" transform="rotate(90 308.109 187.859)" fill="white"/>
<rect x="380.625" y="212.031" width="1.42188" height="1.42188" transform="rotate(90 380.625 212.031)" fill="white"/>
<rect x="356.453" y="212.031" width="1.42188" height="1.42188" transform="rotate(90 356.453 212.031)" fill="white"/>
<rect x="332.281" y="212.031" width="1.42188" height="1.42188" transform="rotate(90 332.281 212.031)" fill="white"/>
<rect x="308.109" y="212.031" width="1.42188" height="1.42188" transform="rotate(90 308.109 212.031)" fill="white"/>
<rect x="380.625" y="236.203" width="1.42188" height="1.42188" transform="rotate(90 380.625 236.203)" fill="white"/>
<rect x="356.453" y="236.203" width="1.42188" height="1.42188" transform="rotate(90 356.453 236.203)" fill="white"/>
<rect x="332.281" y="236.203" width="1.42188" height="1.42188" transform="rotate(90 332.281 236.203)" fill="white"/>
<rect x="308.109" y="236.203" width="1.42188" height="1.42188" transform="rotate(90 308.109 236.203)" fill="white"/>
<rect x="348" y="229" width="88" height="40" fill="black"/>
<path d="M367.574 252.078C367.506 252.604 367.371 253.089 367.167 253.531C366.964 253.969 366.701 254.344 366.378 254.656C366.05 254.974 365.662 255.221 365.214 255.398C364.772 255.57 364.277 255.656 363.73 255.656C363.261 255.656 362.834 255.591 362.449 255.461C362.069 255.326 361.73 255.141 361.433 254.906C361.131 254.672 360.871 254.396 360.652 254.078C360.438 253.76 360.261 253.414 360.121 253.039C359.975 252.664 359.865 252.271 359.792 251.859C359.725 251.448 359.688 251.031 359.683 250.609V249.023C359.688 248.602 359.725 248.185 359.792 247.773C359.865 247.362 359.975 246.969 360.121 246.594C360.261 246.219 360.438 245.872 360.652 245.555C360.871 245.232 361.131 244.953 361.433 244.719C361.73 244.484 362.069 244.302 362.449 244.172C362.829 244.036 363.256 243.969 363.73 243.969C364.298 243.969 364.806 244.057 365.253 244.234C365.701 244.406 366.087 244.651 366.41 244.969C366.733 245.292 366.99 245.677 367.183 246.125C367.381 246.573 367.511 247.068 367.574 247.609H366.128C366.082 247.266 366.001 246.945 365.886 246.648C365.772 246.352 365.618 246.091 365.425 245.867C365.233 245.643 364.996 245.469 364.714 245.344C364.438 245.214 364.11 245.148 363.73 245.148C363.386 245.148 363.082 245.206 362.816 245.32C362.556 245.43 362.332 245.581 362.144 245.773C361.951 245.966 361.79 246.19 361.66 246.445C361.535 246.701 361.433 246.971 361.355 247.258C361.277 247.544 361.22 247.839 361.183 248.141C361.152 248.438 361.136 248.727 361.136 249.008V250.609C361.136 250.891 361.152 251.182 361.183 251.484C361.22 251.781 361.277 252.073 361.355 252.359C361.433 252.651 361.535 252.924 361.66 253.18C361.785 253.435 361.944 253.659 362.136 253.852C362.329 254.049 362.556 254.206 362.816 254.32C363.076 254.43 363.381 254.484 363.73 254.484C364.11 254.484 364.438 254.424 364.714 254.305C364.996 254.185 365.233 254.016 365.425 253.797C365.618 253.583 365.772 253.331 365.886 253.039C366.001 252.742 366.082 252.422 366.128 252.078H367.574ZM377.054 250.469C377.049 250.875 377.013 251.286 376.945 251.703C376.882 252.115 376.784 252.513 376.648 252.898C376.513 253.284 376.338 253.643 376.125 253.977C375.916 254.31 375.666 254.602 375.375 254.852C375.083 255.102 374.747 255.299 374.367 255.445C373.992 255.586 373.57 255.656 373.101 255.656C372.632 255.656 372.208 255.586 371.828 255.445C371.453 255.299 371.119 255.102 370.828 254.852C370.536 254.602 370.284 254.31 370.07 253.977C369.856 253.638 369.682 253.276 369.547 252.891C369.406 252.505 369.302 252.107 369.234 251.695C369.166 251.284 369.13 250.875 369.125 250.469V249.172C369.13 248.766 369.164 248.357 369.226 247.945C369.294 247.529 369.398 247.128 369.539 246.742C369.674 246.357 369.846 245.997 370.054 245.664C370.268 245.326 370.521 245.029 370.812 244.773C371.104 244.523 371.437 244.328 371.812 244.188C372.192 244.042 372.617 243.969 373.086 243.969C373.554 243.969 373.979 244.042 374.359 244.188C374.739 244.328 375.075 244.523 375.367 244.773C375.659 245.023 375.909 245.318 376.117 245.656C376.33 245.99 376.507 246.349 376.648 246.734C376.784 247.12 376.882 247.521 376.945 247.938C377.013 248.354 377.049 248.766 377.054 249.172V250.469ZM375.625 249.156C375.619 248.885 375.601 248.604 375.57 248.312C375.539 248.016 375.487 247.721 375.414 247.43C375.336 247.143 375.234 246.87 375.109 246.609C374.984 246.344 374.828 246.109 374.64 245.906C374.453 245.708 374.231 245.552 373.976 245.438C373.721 245.318 373.424 245.258 373.086 245.258C372.752 245.258 372.458 245.318 372.203 245.438C371.948 245.557 371.726 245.716 371.539 245.914C371.351 246.117 371.195 246.352 371.07 246.617C370.945 246.878 370.846 247.151 370.773 247.438C370.695 247.729 370.638 248.023 370.601 248.32C370.57 248.612 370.552 248.891 370.547 249.156V250.469C370.552 250.734 370.57 251.016 370.601 251.312C370.638 251.609 370.695 251.901 370.773 252.188C370.851 252.479 370.953 252.758 371.078 253.023C371.203 253.289 371.359 253.521 371.547 253.719C371.734 253.922 371.955 254.083 372.211 254.203C372.466 254.323 372.763 254.383 373.101 254.383C373.44 254.383 373.737 254.323 373.992 254.203C374.252 254.083 374.476 253.922 374.664 253.719C374.846 253.521 374.997 253.292 375.117 253.031C375.242 252.766 375.343 252.487 375.422 252.195C375.494 251.909 375.544 251.617 375.57 251.32C375.601 251.023 375.619 250.74 375.625 250.469V249.156ZM380.691 244.125L382.543 249.812L384.543 244.125H386.34V255.5H384.933V250.961L385.051 246.211L382.949 252.336H382.121L380.191 246.375L380.308 250.961V255.5H378.902V244.125H380.691ZM390.133 250.938V255.5H388.688V244.125H392.375C392.885 244.135 393.367 244.216 393.82 244.367C394.279 244.518 394.68 244.737 395.023 245.023C395.367 245.31 395.638 245.664 395.836 246.086C396.039 246.508 396.141 246.992 396.141 247.539C396.141 248.086 396.039 248.57 395.836 248.992C395.638 249.409 395.367 249.76 395.023 250.047C394.68 250.333 394.279 250.552 393.82 250.703C393.367 250.854 392.885 250.932 392.375 250.938H390.133ZM390.133 249.75H392.375C392.708 249.745 393.016 249.693 393.297 249.594C393.578 249.49 393.823 249.344 394.031 249.156C394.24 248.969 394.401 248.742 394.516 248.477C394.635 248.206 394.695 247.898 394.695 247.555C394.695 247.211 394.635 246.901 394.516 246.625C394.401 246.349 394.242 246.115 394.039 245.922C393.831 245.729 393.583 245.581 393.297 245.477C393.016 245.372 392.708 245.318 392.375 245.312H390.133V249.75ZM403.434 252.555H399.637L398.723 255.5H397.278L400.949 244.125H402.16L405.77 255.5H404.332L403.434 252.555ZM400.028 251.297H403.051L401.551 246.359L400.028 251.297ZM414.578 255.5H413.11L408.696 247L408.672 255.5H407.211V244.125H408.68L413.094 252.609L413.118 244.125H414.578V255.5ZM420.254 249.836L422.848 244.125H424.489L420.95 251.258L420.926 255.5H419.583L419.559 251.258L416.02 244.125H417.668L420.254 249.836Z" fill="white"/>
</g>
<path d="M161 64L231 134" stroke="white" stroke-width="0.5"/>
<path d="M623 434L553 364" stroke="white" stroke-width="0.5"/>
<rect x="171.5" y="74.5" width="119" height="119" rx="59.5" fill="black"/>
<rect x="171.5" y="74.5" width="119" height="119" rx="59.5" stroke="black"/>
<path d="M204.795 128.578V132H203.711V123.469H206.477C206.859 123.477 207.221 123.537 207.561 123.65C207.904 123.764 208.205 123.928 208.463 124.143C208.721 124.357 208.924 124.623 209.072 124.939C209.225 125.256 209.301 125.619 209.301 126.029C209.301 126.439 209.225 126.803 209.072 127.119C208.924 127.432 208.721 127.695 208.463 127.91C208.205 128.125 207.904 128.289 207.561 128.402C207.221 128.516 206.859 128.574 206.477 128.578H204.795ZM204.795 127.688H206.477C206.727 127.684 206.957 127.645 207.168 127.57C207.379 127.492 207.563 127.383 207.719 127.242C207.875 127.102 207.996 126.932 208.082 126.732C208.172 126.529 208.217 126.299 208.217 126.041C208.217 125.783 208.172 125.551 208.082 125.344C207.996 125.137 207.877 124.961 207.725 124.816C207.568 124.672 207.383 124.561 207.168 124.482C206.957 124.404 206.727 124.363 206.477 124.359H204.795V127.688ZM214.771 129.791H211.923L211.238 132H210.154L212.907 123.469H213.816L216.523 132H215.445L214.771 129.791ZM212.216 128.848H214.484L213.359 125.145L212.216 128.848ZM220.299 127.752L222.244 123.469H223.475L220.821 128.818L220.803 132H219.795L219.778 128.818L217.123 123.469H218.36L220.299 127.752ZM226.062 123.469L227.451 127.734L228.951 123.469H230.298V132H229.244V128.596L229.331 125.033L227.755 129.627H227.134L225.687 125.156L225.775 128.596V132H224.72V123.469H226.062ZM236.653 128.057H233.09V131.08H237.245V132H232.006V123.469H237.192V124.395H233.09V127.137H236.653V128.057ZM244.39 132H243.289L239.978 125.625L239.961 132H238.865V123.469H239.966L243.277 129.832L243.295 123.469H244.39V132ZM251.887 124.395H249.251V132H248.196V124.395H245.559V123.469H251.887V124.395ZM217.674 146V137.469H219.649C219.981 137.473 220.293 137.508 220.586 137.574C220.883 137.637 221.157 137.727 221.407 137.844C221.754 138.004 222.061 138.215 222.326 138.477C222.596 138.734 222.811 139.033 222.971 139.373C223.116 139.662 223.225 139.979 223.299 140.322C223.377 140.666 223.418 141.033 223.422 141.424V142.051C223.422 142.426 223.385 142.781 223.311 143.117C223.241 143.453 223.137 143.762 223 144.043C222.86 144.336 222.682 144.602 222.467 144.84C222.252 145.078 222.012 145.281 221.746 145.449C221.465 145.625 221.147 145.76 220.791 145.854C220.44 145.947 220.059 145.996 219.649 146H217.674ZM218.776 138.359V145.115H219.649C219.961 145.111 220.244 145.072 220.498 144.998C220.756 144.924 220.985 144.818 221.184 144.682C221.395 144.541 221.576 144.369 221.729 144.166C221.885 143.959 222.008 143.729 222.098 143.475C222.176 143.268 222.235 143.045 222.274 142.807C222.313 142.564 222.334 142.312 222.338 142.051V141.412C222.334 141.146 222.311 140.893 222.268 140.65C222.229 140.404 222.168 140.176 222.086 139.965C221.981 139.691 221.838 139.445 221.659 139.227C221.483 139.004 221.266 138.824 221.008 138.688C220.825 138.586 220.619 138.508 220.393 138.453C220.166 138.395 219.918 138.363 219.649 138.359H218.776ZM228.945 143.791H226.097L225.412 146H224.328L227.081 137.469H227.99L230.697 146H229.619L228.945 143.791ZM226.39 142.848H228.658L227.533 139.145L226.39 142.848ZM237.713 138.395H235.077V146H234.022V138.395H231.385V137.469H237.713V138.395ZM243.119 143.791H240.271L239.586 146H238.502L241.256 137.469H242.164L244.871 146H243.793L243.119 143.791ZM240.564 142.848H242.832L241.707 139.145L240.564 142.848Z" fill="white"/>
<path d="M623 64L553 134" stroke="white" stroke-width="0.5"/>
<path d="M161 434L231 364" stroke="white" stroke-width="0.5"/>
<rect x="493.5" y="74.5" width="119" height="119" rx="59.5" fill="black"/>
<rect x="493.5" y="74.5" width="119" height="119" rx="59.5" stroke="black"/>
<path d="M530.399 128.578V132H529.315V123.469H532.08C532.463 123.477 532.824 123.537 533.164 123.65C533.508 123.764 533.809 123.928 534.066 124.143C534.324 124.357 534.527 124.623 534.676 124.939C534.828 125.256 534.904 125.619 534.904 126.029C534.904 126.439 534.828 126.803 534.676 127.119C534.527 127.432 534.324 127.695 534.066 127.91C533.809 128.125 533.508 128.289 533.164 128.402C532.824 128.516 532.463 128.574 532.08 128.578H530.399ZM530.399 127.688H532.08C532.33 127.684 532.561 127.645 532.772 127.57C532.982 127.492 533.166 127.383 533.322 127.242C533.479 127.102 533.6 126.932 533.686 126.732C533.775 126.529 533.82 126.299 533.82 126.041C533.82 125.783 533.775 125.551 533.686 125.344C533.6 125.137 533.481 124.961 533.328 124.816C533.172 124.672 532.986 124.561 532.772 124.482C532.561 124.404 532.33 124.363 532.08 124.359H530.399V127.688ZM540.374 129.791H537.527L536.841 132H535.757L538.511 123.469H539.419L542.126 132H541.048L540.374 129.791ZM537.82 128.848H540.087L538.962 125.145L537.82 128.848ZM545.903 127.752L547.848 123.469H549.078L546.424 128.818L546.407 132H545.399L545.381 128.818L542.727 123.469H543.963L545.903 127.752ZM551.665 123.469L553.054 127.734L554.554 123.469H555.902V132H554.847V128.596L554.935 125.033L553.359 129.627H552.738L551.29 125.156L551.378 128.596V132H550.324V123.469H551.665ZM562.256 128.057H558.694V131.08H562.848V132H557.61V123.469H562.795V124.395H558.694V127.137H562.256V128.057ZM569.994 132H568.892L565.582 125.625L565.564 132H564.468V123.469H565.57L568.881 129.832L568.898 123.469H569.994V132ZM577.491 124.395H574.854V132H573.8V124.395H571.163V123.469H577.491V124.395ZM526.761 142.057H523.199V145.08H527.353V146H522.115V137.469H527.3V138.395H523.199V141.137H526.761V142.057ZM531.798 140.814L533.637 137.469H534.915L532.436 141.699L534.973 146H533.708L531.821 142.59L529.928 146H528.645L531.188 141.699L528.71 137.469H529.981L531.798 140.814ZM540.935 142.057H537.373V145.08H541.527V146H536.289V137.469H541.474V138.395H537.373V141.137H540.935V142.057ZM548.854 143.434C548.804 143.828 548.702 144.191 548.55 144.523C548.397 144.852 548.2 145.133 547.958 145.367C547.712 145.605 547.421 145.791 547.085 145.924C546.753 146.053 546.382 146.117 545.972 146.117C545.62 146.117 545.3 146.068 545.011 145.971C544.725 145.869 544.472 145.73 544.249 145.555C544.022 145.379 543.827 145.172 543.663 144.934C543.503 144.695 543.37 144.436 543.265 144.154C543.155 143.873 543.073 143.578 543.018 143.27C542.968 142.961 542.94 142.648 542.936 142.332V141.143C542.94 140.826 542.968 140.514 543.018 140.205C543.073 139.896 543.155 139.602 543.265 139.32C543.37 139.039 543.503 138.779 543.663 138.541C543.827 138.299 544.022 138.09 544.249 137.914C544.472 137.738 544.725 137.602 545.011 137.504C545.296 137.402 545.616 137.352 545.972 137.352C546.397 137.352 546.778 137.418 547.114 137.551C547.45 137.68 547.739 137.863 547.981 138.102C548.224 138.344 548.417 138.633 548.561 138.969C548.71 139.305 548.807 139.676 548.854 140.082H547.77C547.735 139.824 547.675 139.584 547.589 139.361C547.503 139.139 547.388 138.943 547.243 138.775C547.099 138.607 546.921 138.477 546.71 138.383C546.503 138.285 546.257 138.236 545.972 138.236C545.714 138.236 545.485 138.279 545.286 138.365C545.091 138.447 544.923 138.561 544.782 138.705C544.638 138.85 544.516 139.018 544.419 139.209C544.325 139.4 544.249 139.604 544.19 139.818C544.132 140.033 544.089 140.254 544.061 140.48C544.038 140.703 544.026 140.92 544.026 141.131V142.332C544.026 142.543 544.038 142.762 544.061 142.988C544.089 143.211 544.132 143.43 544.19 143.645C544.249 143.863 544.325 144.068 544.419 144.26C544.513 144.451 544.632 144.619 544.776 144.764C544.921 144.912 545.091 145.029 545.286 145.115C545.481 145.197 545.71 145.238 545.972 145.238C546.257 145.238 546.503 145.193 546.71 145.104C546.921 145.014 547.099 144.887 547.243 144.723C547.388 144.562 547.503 144.373 547.589 144.154C547.675 143.932 547.735 143.691 547.77 143.434H548.854ZM555.771 137.469L555.783 143.246C555.783 143.645 555.713 144.018 555.572 144.365C555.432 144.713 555.238 145.016 554.992 145.273C554.746 145.535 554.453 145.742 554.113 145.895C553.773 146.043 553.4 146.117 552.994 146.117C552.58 146.117 552.203 146.043 551.863 145.895C551.523 145.746 551.232 145.541 550.99 145.279C550.748 145.021 550.559 144.719 550.422 144.371C550.285 144.02 550.215 143.645 550.211 143.246L550.223 137.469H551.254L551.277 143.246C551.281 143.5 551.32 143.744 551.395 143.979C551.473 144.213 551.584 144.42 551.729 144.6C551.869 144.779 552.045 144.924 552.256 145.033C552.471 145.143 552.717 145.197 552.994 145.197C553.271 145.197 553.516 145.145 553.727 145.039C553.938 144.93 554.115 144.783 554.26 144.6C554.4 144.42 554.508 144.213 554.582 143.979C554.656 143.744 554.697 143.5 554.705 143.246L554.723 137.469H555.771ZM563.257 138.395H560.62V146H559.566V138.395H556.929V137.469H563.257V138.395ZM564.59 137.469H569.746V138.412H567.701V145.062H569.746V146H564.59V145.062H566.588V138.412H564.59V137.469ZM577.226 142.227C577.222 142.531 577.195 142.84 577.144 143.152C577.097 143.461 577.023 143.76 576.921 144.049C576.82 144.338 576.689 144.607 576.529 144.857C576.372 145.107 576.185 145.326 575.966 145.514C575.747 145.701 575.495 145.85 575.21 145.959C574.929 146.064 574.613 146.117 574.261 146.117C573.91 146.117 573.591 146.064 573.306 145.959C573.025 145.85 572.775 145.701 572.556 145.514C572.337 145.326 572.148 145.107 571.988 144.857C571.827 144.604 571.697 144.332 571.595 144.043C571.49 143.754 571.411 143.455 571.361 143.146C571.31 142.838 571.283 142.531 571.279 142.227V141.254C571.283 140.949 571.308 140.643 571.355 140.334C571.406 140.021 571.484 139.721 571.589 139.432C571.691 139.143 571.82 138.873 571.976 138.623C572.136 138.369 572.326 138.146 572.544 137.955C572.763 137.768 573.013 137.621 573.294 137.516C573.579 137.406 573.898 137.352 574.249 137.352C574.601 137.352 574.919 137.406 575.204 137.516C575.49 137.621 575.742 137.768 575.96 137.955C576.179 138.143 576.367 138.363 576.523 138.617C576.683 138.867 576.816 139.137 576.921 139.426C577.023 139.715 577.097 140.016 577.144 140.328C577.195 140.641 577.222 140.949 577.226 141.254V142.227ZM576.154 141.242C576.15 141.039 576.136 140.828 576.113 140.609C576.089 140.387 576.05 140.166 575.995 139.947C575.937 139.732 575.861 139.527 575.767 139.332C575.673 139.133 575.556 138.957 575.415 138.805C575.275 138.656 575.109 138.539 574.917 138.453C574.726 138.363 574.503 138.318 574.249 138.318C573.999 138.318 573.779 138.363 573.587 138.453C573.396 138.543 573.23 138.662 573.089 138.811C572.949 138.963 572.831 139.139 572.738 139.338C572.644 139.533 572.57 139.738 572.515 139.953C572.456 140.172 572.413 140.393 572.386 140.615C572.363 140.834 572.349 141.043 572.345 141.242V142.227C572.349 142.426 572.363 142.637 572.386 142.859C572.413 143.082 572.456 143.301 572.515 143.516C572.574 143.734 572.65 143.943 572.744 144.143C572.837 144.342 572.954 144.516 573.095 144.664C573.236 144.816 573.402 144.938 573.593 145.027C573.785 145.117 574.007 145.162 574.261 145.162C574.515 145.162 574.738 145.117 574.929 145.027C575.124 144.938 575.292 144.816 575.433 144.664C575.57 144.516 575.683 144.344 575.773 144.148C575.867 143.949 575.943 143.74 576.001 143.521C576.056 143.307 576.093 143.088 576.113 142.865C576.136 142.643 576.15 142.43 576.154 142.227V141.242ZM584.108 146H583.006L579.696 139.625L579.678 146H578.583V137.469H579.684L582.995 143.832L583.012 137.469H584.108V146Z" fill="white"/>
<path d="M231 304.5C263.861 304.5 290.5 331.139 290.5 364C290.5 396.861 263.861 423.5 231 423.5C198.139 423.5 171.5 396.861 171.5 364C171.5 331.139 198.139 304.5 231 304.5Z" fill="black"/>
<path d="M231 304.5C263.861 304.5 290.5 331.139 290.5 364C290.5 396.861 263.861 423.5 231 423.5C198.139 423.5 171.5 396.861 171.5 364C171.5 331.139 198.139 304.5 231 304.5Z" stroke="black"/>
<path d="M203.611 353.469H208.768V354.412H206.723V361.062H208.768V362H203.611V361.062H205.609V354.412H203.611V353.469ZM216.042 362H214.941L211.63 355.625L211.613 362H210.517V353.469H211.618L214.929 359.832L214.946 353.469H216.042V362ZM219.877 362L217.182 353.469H218.342L220.217 359.838L220.34 360.254L220.469 359.826L222.356 353.469H223.51L220.821 362H219.877ZM230.421 358.227C230.417 358.531 230.39 358.84 230.339 359.152C230.292 359.461 230.218 359.76 230.117 360.049C230.015 360.338 229.884 360.607 229.724 360.857C229.568 361.107 229.38 361.326 229.162 361.514C228.943 361.701 228.691 361.85 228.406 361.959C228.124 362.064 227.808 362.117 227.456 362.117C227.105 362.117 226.787 362.064 226.501 361.959C226.22 361.85 225.97 361.701 225.751 361.514C225.533 361.326 225.343 361.107 225.183 360.857C225.023 360.604 224.892 360.332 224.79 360.043C224.685 359.754 224.607 359.455 224.556 359.146C224.505 358.838 224.478 358.531 224.474 358.227V357.254C224.478 356.949 224.503 356.643 224.55 356.334C224.601 356.021 224.679 355.721 224.785 355.432C224.886 355.143 225.015 354.873 225.171 354.623C225.331 354.369 225.521 354.146 225.74 353.955C225.958 353.768 226.208 353.621 226.49 353.516C226.775 353.406 227.093 353.352 227.445 353.352C227.796 353.352 228.115 353.406 228.4 353.516C228.685 353.621 228.937 353.768 229.156 353.955C229.374 354.143 229.562 354.363 229.718 354.617C229.878 354.867 230.011 355.137 230.117 355.426C230.218 355.715 230.292 356.016 230.339 356.328C230.39 356.641 230.417 356.949 230.421 357.254V358.227ZM229.349 357.242C229.345 357.039 229.331 356.828 229.308 356.609C229.285 356.387 229.246 356.166 229.191 355.947C229.132 355.732 229.056 355.527 228.962 355.332C228.869 355.133 228.751 354.957 228.611 354.805C228.47 354.656 228.304 354.539 228.113 354.453C227.921 354.363 227.699 354.318 227.445 354.318C227.195 354.318 226.974 354.363 226.783 354.453C226.591 354.543 226.425 354.662 226.285 354.811C226.144 354.963 226.027 355.139 225.933 355.338C225.839 355.533 225.765 355.738 225.71 355.953C225.652 356.172 225.609 356.393 225.581 356.615C225.558 356.834 225.544 357.043 225.54 357.242V358.227C225.544 358.426 225.558 358.637 225.581 358.859C225.609 359.082 225.652 359.301 225.71 359.516C225.769 359.734 225.845 359.943 225.939 360.143C226.033 360.342 226.15 360.516 226.29 360.664C226.431 360.816 226.597 360.938 226.789 361.027C226.98 361.117 227.203 361.162 227.456 361.162C227.71 361.162 227.933 361.117 228.124 361.027C228.32 360.938 228.488 360.816 228.628 360.664C228.765 360.516 228.878 360.344 228.968 360.148C229.062 359.949 229.138 359.74 229.197 359.521C229.251 359.307 229.289 359.088 229.308 358.865C229.331 358.643 229.345 358.43 229.349 358.227V357.242ZM231.96 353.469H237.116V354.412H235.071V361.062H237.116V362H231.96V361.062H233.958V354.412H231.96V353.469ZM244.572 359.434C244.521 359.828 244.42 360.191 244.267 360.523C244.115 360.852 243.918 361.133 243.675 361.367C243.429 361.605 243.138 361.791 242.802 361.924C242.47 362.053 242.099 362.117 241.689 362.117C241.338 362.117 241.017 362.068 240.728 361.971C240.443 361.869 240.189 361.73 239.966 361.555C239.74 361.379 239.545 361.172 239.381 360.934C239.22 360.695 239.088 360.436 238.982 360.154C238.873 359.873 238.791 359.578 238.736 359.27C238.685 358.961 238.658 358.648 238.654 358.332V357.143C238.658 356.826 238.685 356.514 238.736 356.205C238.791 355.896 238.873 355.602 238.982 355.32C239.088 355.039 239.22 354.779 239.381 354.541C239.545 354.299 239.74 354.09 239.966 353.914C240.189 353.738 240.443 353.602 240.728 353.504C241.013 353.402 241.334 353.352 241.689 353.352C242.115 353.352 242.496 353.418 242.832 353.551C243.168 353.68 243.457 353.863 243.699 354.102C243.941 354.344 244.134 354.633 244.279 354.969C244.427 355.305 244.525 355.676 244.572 356.082H243.488C243.453 355.824 243.392 355.584 243.306 355.361C243.22 355.139 243.105 354.943 242.961 354.775C242.816 354.607 242.638 354.477 242.427 354.383C242.22 354.285 241.974 354.236 241.689 354.236C241.431 354.236 241.203 354.279 241.004 354.365C240.808 354.447 240.64 354.561 240.5 354.705C240.355 354.85 240.234 355.018 240.136 355.209C240.043 355.4 239.966 355.604 239.908 355.818C239.849 356.033 239.806 356.254 239.779 356.48C239.756 356.703 239.744 356.92 239.744 357.131V358.332C239.744 358.543 239.756 358.762 239.779 358.988C239.806 359.211 239.849 359.43 239.908 359.645C239.966 359.863 240.043 360.068 240.136 360.26C240.23 360.451 240.349 360.619 240.494 360.764C240.638 360.912 240.808 361.029 241.004 361.115C241.199 361.197 241.427 361.238 241.689 361.238C241.974 361.238 242.22 361.193 242.427 361.104C242.638 361.014 242.816 360.887 242.961 360.723C243.105 360.562 243.22 360.373 243.306 360.154C243.392 359.932 243.453 359.691 243.488 359.434H244.572ZM250.827 358.057H247.264V361.08H251.419V362H246.18V353.469H251.366V354.395H247.264V357.137H250.827V358.057ZM217.674 376V367.469H219.649C219.981 367.473 220.293 367.508 220.586 367.574C220.883 367.637 221.157 367.727 221.407 367.844C221.754 368.004 222.061 368.215 222.326 368.477C222.596 368.734 222.811 369.033 222.971 369.373C223.116 369.662 223.225 369.979 223.299 370.322C223.377 370.666 223.418 371.033 223.422 371.424V372.051C223.422 372.426 223.385 372.781 223.311 373.117C223.241 373.453 223.137 373.762 223 374.043C222.86 374.336 222.682 374.602 222.467 374.84C222.252 375.078 222.012 375.281 221.746 375.449C221.465 375.625 221.147 375.76 220.791 375.854C220.44 375.947 220.059 375.996 219.649 376H217.674ZM218.776 368.359V375.115H219.649C219.961 375.111 220.244 375.072 220.498 374.998C220.756 374.924 220.985 374.818 221.184 374.682C221.395 374.541 221.576 374.369 221.729 374.166C221.885 373.959 222.008 373.729 222.098 373.475C222.176 373.268 222.235 373.045 222.274 372.807C222.313 372.564 222.334 372.312 222.338 372.051V371.412C222.334 371.146 222.311 370.893 222.268 370.65C222.229 370.404 222.168 370.176 222.086 369.965C221.981 369.691 221.838 369.445 221.659 369.227C221.483 369.004 221.266 368.824 221.008 368.688C220.825 368.586 220.619 368.508 220.393 368.453C220.166 368.395 219.918 368.363 219.649 368.359H218.776ZM228.945 373.791H226.097L225.412 376H224.328L227.081 367.469H227.99L230.697 376H229.619L228.945 373.791ZM226.39 372.848H228.658L227.533 369.145L226.39 372.848ZM237.713 368.395H235.077V376H234.022V368.395H231.385V367.469H237.713V368.395ZM243.119 373.791H240.271L239.586 376H238.502L241.256 367.469H242.164L244.871 376H243.793L243.119 373.791ZM240.564 372.848H242.832L241.707 369.145L240.564 372.848Z" fill="white"/>
<rect x="493.5" y="304.5" width="119" height="119" rx="59.5" fill="black"/>
<rect x="493.5" y="304.5" width="119" height="119" rx="59.5" stroke="black"/>
<path d="M507.235 358.52H505.529V362H504.451V353.469H506.953C507.352 353.477 507.727 353.533 508.078 353.639C508.43 353.744 508.738 353.902 509.004 354.113C509.266 354.324 509.471 354.59 509.619 354.91C509.772 355.227 509.848 355.6 509.848 356.029C509.848 356.307 509.807 356.561 509.725 356.791C509.647 357.021 509.537 357.23 509.397 357.418C509.256 357.605 509.088 357.771 508.893 357.916C508.697 358.061 508.483 358.184 508.248 358.285L510.059 361.93L510.053 362H508.91L507.235 358.52ZM505.529 357.629H506.983C507.225 357.625 507.453 357.588 507.668 357.518C507.883 357.443 508.072 357.338 508.236 357.201C508.397 357.064 508.524 356.898 508.617 356.703C508.711 356.504 508.758 356.275 508.758 356.018C508.758 355.744 508.713 355.506 508.623 355.303C508.533 355.096 508.408 354.922 508.248 354.781C508.088 354.645 507.897 354.541 507.674 354.471C507.455 354.4 507.215 354.363 506.953 354.359H505.529V357.629ZM516.191 358.057H512.628V361.08H516.783V362H511.544V353.469H516.73V354.395H512.628V357.137H516.191V358.057ZM524.11 359.434C524.059 359.828 523.957 360.191 523.805 360.523C523.653 360.852 523.455 361.133 523.213 361.367C522.967 361.605 522.676 361.791 522.34 361.924C522.008 362.053 521.637 362.117 521.227 362.117C520.875 362.117 520.555 362.068 520.266 361.971C519.981 361.869 519.727 361.73 519.504 361.555C519.278 361.379 519.082 361.172 518.918 360.934C518.758 360.695 518.625 360.436 518.52 360.154C518.411 359.873 518.329 359.578 518.274 359.27C518.223 358.961 518.196 358.648 518.192 358.332V357.143C518.196 356.826 518.223 356.514 518.274 356.205C518.329 355.896 518.411 355.602 518.52 355.32C518.625 355.039 518.758 354.779 518.918 354.541C519.082 354.299 519.278 354.09 519.504 353.914C519.727 353.738 519.981 353.602 520.266 353.504C520.551 353.402 520.871 353.352 521.227 353.352C521.653 353.352 522.034 353.418 522.37 353.551C522.705 353.68 522.995 353.863 523.237 354.102C523.479 354.344 523.672 354.633 523.817 354.969C523.965 355.305 524.063 355.676 524.11 356.082H523.026C522.991 355.824 522.93 355.584 522.844 355.361C522.758 355.139 522.643 354.943 522.498 354.775C522.354 354.607 522.176 354.477 521.965 354.383C521.758 354.285 521.512 354.236 521.227 354.236C520.969 354.236 520.741 354.279 520.541 354.365C520.346 354.447 520.178 354.561 520.038 354.705C519.893 354.85 519.772 355.018 519.674 355.209C519.58 355.4 519.504 355.604 519.446 355.818C519.387 356.033 519.344 356.254 519.317 356.48C519.293 356.703 519.282 356.92 519.282 357.131V358.332C519.282 358.543 519.293 358.762 519.317 358.988C519.344 359.211 519.387 359.43 519.446 359.645C519.504 359.863 519.58 360.068 519.674 360.26C519.768 360.451 519.887 360.619 520.032 360.764C520.176 360.912 520.346 361.029 520.541 361.115C520.737 361.197 520.965 361.238 521.227 361.238C521.512 361.238 521.758 361.193 521.965 361.104C522.176 361.014 522.354 360.887 522.498 360.723C522.643 360.562 522.758 360.373 522.844 360.154C522.93 359.932 522.991 359.691 523.026 359.434H524.11ZM531.22 358.227C531.216 358.531 531.189 358.84 531.138 359.152C531.091 359.461 531.017 359.76 530.916 360.049C530.814 360.338 530.683 360.607 530.523 360.857C530.367 361.107 530.179 361.326 529.96 361.514C529.742 361.701 529.49 361.85 529.205 361.959C528.923 362.064 528.607 362.117 528.255 362.117C527.904 362.117 527.585 362.064 527.3 361.959C527.019 361.85 526.769 361.701 526.55 361.514C526.332 361.326 526.142 361.107 525.982 360.857C525.822 360.604 525.691 360.332 525.589 360.043C525.484 359.754 525.406 359.455 525.355 359.146C525.304 358.838 525.277 358.531 525.273 358.227V357.254C525.277 356.949 525.302 356.643 525.349 356.334C525.4 356.021 525.478 355.721 525.584 355.432C525.685 355.143 525.814 354.873 525.97 354.623C526.13 354.369 526.32 354.146 526.539 353.955C526.757 353.768 527.007 353.621 527.289 353.516C527.574 353.406 527.892 353.352 528.244 353.352C528.595 353.352 528.914 353.406 529.199 353.516C529.484 353.621 529.736 353.768 529.955 353.955C530.173 354.143 530.361 354.363 530.517 354.617C530.677 354.867 530.81 355.137 530.916 355.426C531.017 355.715 531.091 356.016 531.138 356.328C531.189 356.641 531.216 356.949 531.22 357.254V358.227ZM530.148 357.242C530.144 357.039 530.13 356.828 530.107 356.609C530.084 356.387 530.044 356.166 529.99 355.947C529.931 355.732 529.855 355.527 529.761 355.332C529.667 355.133 529.55 354.957 529.41 354.805C529.269 354.656 529.103 354.539 528.912 354.453C528.72 354.363 528.498 354.318 528.244 354.318C527.994 354.318 527.773 354.363 527.582 354.453C527.39 354.543 527.224 354.662 527.084 354.811C526.943 354.963 526.826 355.139 526.732 355.338C526.638 355.533 526.564 355.738 526.509 355.953C526.451 356.172 526.408 356.393 526.38 356.615C526.357 356.834 526.343 357.043 526.339 357.242V358.227C526.343 358.426 526.357 358.637 526.38 358.859C526.408 359.082 526.451 359.301 526.509 359.516C526.568 359.734 526.644 359.943 526.738 360.143C526.832 360.342 526.949 360.516 527.089 360.664C527.23 360.816 527.396 360.938 527.587 361.027C527.779 361.117 528.001 361.162 528.255 361.162C528.509 361.162 528.732 361.117 528.923 361.027C529.119 360.938 529.287 360.816 529.427 360.664C529.564 360.516 529.677 360.344 529.767 360.148C529.861 359.949 529.937 359.74 529.996 359.521C530.05 359.307 530.087 359.088 530.107 358.865C530.13 358.643 530.144 358.43 530.148 358.227V357.242ZM538.102 362H537.001L533.69 355.625L533.673 362H532.577V353.469H533.678L536.989 359.832L537.006 353.469H538.102V362ZM545.371 359.434C545.32 359.828 545.219 360.191 545.066 360.523C544.914 360.852 544.717 361.133 544.474 361.367C544.228 361.605 543.937 361.791 543.601 361.924C543.269 362.053 542.898 362.117 542.488 362.117C542.136 362.117 541.816 362.068 541.527 361.971C541.242 361.869 540.988 361.73 540.765 361.555C540.539 361.379 540.344 361.172 540.179 360.934C540.019 360.695 539.886 360.436 539.781 360.154C539.672 359.873 539.59 359.578 539.535 359.27C539.484 358.961 539.457 358.648 539.453 358.332V357.143C539.457 356.826 539.484 356.514 539.535 356.205C539.59 355.896 539.672 355.602 539.781 355.32C539.886 355.039 540.019 354.779 540.179 354.541C540.344 354.299 540.539 354.09 540.765 353.914C540.988 353.738 541.242 353.602 541.527 353.504C541.812 353.402 542.133 353.352 542.488 353.352C542.914 353.352 543.295 353.418 543.631 353.551C543.967 353.68 544.256 353.863 544.498 354.102C544.74 354.344 544.933 354.633 545.078 354.969C545.226 355.305 545.324 355.676 545.371 356.082H544.287C544.252 355.824 544.191 355.584 544.105 355.361C544.019 355.139 543.904 354.943 543.76 354.775C543.615 354.607 543.437 354.477 543.226 354.383C543.019 354.285 542.773 354.236 542.488 354.236C542.23 354.236 542.002 354.279 541.803 354.365C541.607 354.447 541.439 354.561 541.299 354.705C541.154 354.85 541.033 355.018 540.935 355.209C540.842 355.4 540.765 355.604 540.707 355.818C540.648 356.033 540.605 356.254 540.578 356.48C540.554 356.703 540.543 356.92 540.543 357.131V358.332C540.543 358.543 540.554 358.762 540.578 358.988C540.605 359.211 540.648 359.43 540.707 359.645C540.765 359.863 540.842 360.068 540.935 360.26C541.029 360.451 541.148 360.619 541.293 360.764C541.437 360.912 541.607 361.029 541.803 361.115C541.998 361.197 542.226 361.238 542.488 361.238C542.773 361.238 543.019 361.193 543.226 361.104C543.437 361.014 543.615 360.887 543.76 360.723C543.904 360.562 544.019 360.373 544.105 360.154C544.191 359.932 544.252 359.691 544.287 359.434H545.371ZM546.932 353.469H552.089V354.412H550.044V361.062H552.089V362H546.932V361.062H548.931V354.412H546.932V353.469ZM555.244 361.08H559.416V362H554.16V353.469H555.244V361.08ZM561.107 353.469H566.263V354.412H564.218V361.062H566.263V362H561.107V361.062H563.105V354.412H561.107V353.469ZM572.266 359.791H569.418L568.733 362H567.649L570.403 353.469H571.311L574.018 362H572.94L572.266 359.791ZM569.711 358.848H571.979L570.854 355.145L569.711 358.848ZM581.035 354.395H578.398V362H577.343V354.395H574.706V353.469H581.035V354.395ZM582.368 353.469H587.524V354.412H585.479V361.062H587.524V362H582.368V361.062H584.366V354.412H582.368V353.469ZM595.004 358.227C595 358.531 594.972 358.84 594.921 359.152C594.875 359.461 594.8 359.76 594.699 360.049C594.597 360.338 594.466 360.607 594.306 360.857C594.15 361.107 593.962 361.326 593.744 361.514C593.525 361.701 593.273 361.85 592.988 361.959C592.707 362.064 592.39 362.117 592.039 362.117C591.687 362.117 591.369 362.064 591.084 361.959C590.802 361.85 590.552 361.701 590.334 361.514C590.115 361.326 589.925 361.107 589.765 360.857C589.605 360.604 589.474 360.332 589.373 360.043C589.267 359.754 589.189 359.455 589.138 359.146C589.087 358.838 589.06 358.531 589.056 358.227V357.254C589.06 356.949 589.086 356.643 589.132 356.334C589.183 356.021 589.261 355.721 589.367 355.432C589.468 355.143 589.597 354.873 589.754 354.623C589.914 354.369 590.103 354.146 590.322 353.955C590.541 353.768 590.791 353.621 591.072 353.516C591.357 353.406 591.675 353.352 592.027 353.352C592.379 353.352 592.697 353.406 592.982 353.516C593.267 353.621 593.519 353.768 593.738 353.955C593.957 354.143 594.144 354.363 594.3 354.617C594.461 354.867 594.593 355.137 594.699 355.426C594.8 355.715 594.875 356.016 594.921 356.328C594.972 356.641 595 356.949 595.004 357.254V358.227ZM593.931 357.242C593.927 357.039 593.914 356.828 593.89 356.609C593.867 356.387 593.828 356.166 593.773 355.947C593.714 355.732 593.638 355.527 593.545 355.332C593.451 355.133 593.334 354.957 593.193 354.805C593.052 354.656 592.886 354.539 592.695 354.453C592.504 354.363 592.281 354.318 592.027 354.318C591.777 354.318 591.556 354.363 591.365 354.453C591.173 354.543 591.007 354.662 590.867 354.811C590.726 354.963 590.609 355.139 590.515 355.338C590.421 355.533 590.347 355.738 590.293 355.953C590.234 356.172 590.191 356.393 590.164 356.615C590.14 356.834 590.127 357.043 590.123 357.242V358.227C590.127 358.426 590.14 358.637 590.164 358.859C590.191 359.082 590.234 359.301 590.293 359.516C590.351 359.734 590.427 359.943 590.521 360.143C590.615 360.342 590.732 360.516 590.873 360.664C591.013 360.816 591.179 360.938 591.371 361.027C591.562 361.117 591.785 361.162 592.039 361.162C592.293 361.162 592.515 361.117 592.707 361.027C592.902 360.938 593.07 360.816 593.211 360.664C593.347 360.516 593.461 360.344 593.55 360.148C593.644 359.949 593.72 359.74 593.779 359.521C593.834 359.307 593.871 359.088 593.89 358.865C593.914 358.643 593.927 358.43 593.931 358.227V357.242ZM601.885 362H600.784L597.473 355.625L597.456 362H596.36V353.469H597.462L600.772 359.832L600.79 353.469H601.885V362ZM539.674 376V367.469H541.649C541.981 367.473 542.293 367.508 542.586 367.574C542.883 367.637 543.157 367.727 543.407 367.844C543.754 368.004 544.061 368.215 544.326 368.477C544.596 368.734 544.811 369.033 544.971 369.373C545.116 369.662 545.225 369.979 545.299 370.322C545.377 370.666 545.418 371.033 545.422 371.424V372.051C545.422 372.426 545.385 372.781 545.311 373.117C545.241 373.453 545.137 373.762 545 374.043C544.86 374.336 544.682 374.602 544.467 374.84C544.252 375.078 544.012 375.281 543.746 375.449C543.465 375.625 543.147 375.76 542.791 375.854C542.44 375.947 542.059 375.996 541.649 376H539.674ZM540.776 368.359V375.115H541.649C541.961 375.111 542.244 375.072 542.498 374.998C542.756 374.924 542.985 374.818 543.184 374.682C543.395 374.541 543.576 374.369 543.729 374.166C543.885 373.959 544.008 373.729 544.098 373.475C544.176 373.268 544.235 373.045 544.274 372.807C544.313 372.564 544.334 372.312 544.338 372.051V371.412C544.334 371.146 544.311 370.893 544.268 370.65C544.229 370.404 544.168 370.176 544.086 369.965C543.981 369.691 543.838 369.445 543.659 369.227C543.483 369.004 543.266 368.824 543.008 368.688C542.825 368.586 542.619 368.508 542.393 368.453C542.166 368.395 541.918 368.363 541.649 368.359H540.776ZM550.945 373.791H548.097L547.412 376H546.328L549.081 367.469H549.99L552.697 376H551.619L550.945 373.791ZM548.39 372.848H550.658L549.533 369.145L548.39 372.848ZM559.713 368.395H557.077V376H556.022V368.395H553.385V367.469H559.713V368.395ZM565.119 373.791H562.271L561.586 376H560.502L563.256 367.469H564.164L566.871 376H565.793L565.119 373.791ZM562.564 372.848H564.832L563.707 369.145L562.564 372.848Z" fill="white"/>
<path d="M205.411 195.475L208.604 204.023L198.531 201.467L205.411 195.475Z" fill="#808080"/>
<path d="M281.849 408.314L290.963 408.749L284.644 416.999L281.849 408.314Z" fill="#808080"/>
<path d="M499.874 87.7401L490.752 87.9107L496.509 79.2591L499.874 87.7401Z" fill="#808080"/>
<defs>
<clipPath id="clip0_6086_11924">
<rect x="306" y="163" width="172" height="172" rx="86" fill="white"/>
</clipPath>
</defs>
</svg>
