<svg width="120" height="36" viewBox="0 0 120 36" fill="none" xmlns="http://www.w3.org/2000/svg">
<g opacity="0.5">
<path d="M1.29015 14.7804L5.39065 17.1057L13.6956 12.3871L1.48073 5.45068C1.29592 5.34884 1.06491 5.40542 0.955176 5.58647C0.920524 5.64305 0.903198 5.71094 0.903198 5.77883V14.1241C0.903198 14.3956 1.04758 14.6446 1.29015 14.7804Z" fill="white"/>
<path d="M1.28929 21.2761C1.04673 21.4119 0.902344 21.6609 0.902344 21.9324V30.2776C0.902344 30.3455 0.91967 30.4134 0.954322 30.47C1.05828 30.6511 1.29507 30.7076 1.47988 30.6058L15.1039 22.8716C15.2252 22.8037 15.3003 22.6792 15.3061 22.5435V13.3213L1.28929 21.2761Z" fill="white"/>
<path d="M63.2658 15.1123C62.8269 14.5975 62.2551 14.2014 61.614 13.9581C60.7882 13.6583 59.9103 13.5168 59.0325 13.5395C58.0333 13.5338 57.0284 13.6073 56.0408 13.7544C55.3016 13.8619 54.5681 14.0147 53.8462 14.2071V26.2129H56.7627V16.2043C56.9591 16.1703 57.2536 16.1307 57.6579 16.0855C58.0391 16.0402 58.426 16.0176 58.8188 16.0119C59.2519 16.0006 59.6793 16.0685 60.0836 16.2099C60.4185 16.3344 60.7015 16.5607 60.9037 16.8492C61.1231 17.1944 61.2733 17.5848 61.3368 17.9865C61.435 18.5466 61.4754 19.1124 61.4696 19.6838V26.1959H64.392V19.2312C64.3978 18.4561 64.3111 17.6809 64.1379 16.9228C63.9877 16.2665 63.6932 15.6441 63.2658 15.1123Z" fill="white"/>
<path d="M19.835 12.4149H24.9577V26.2086H28.0071V12.4149H33.1298V9.83496H19.835V12.4149Z" fill="white"/>
<path d="M106.055 13.6763C105.795 13.6367 105.535 13.6027 105.281 13.5801C105.027 13.5575 104.802 13.5461 104.611 13.5461C103.664 13.5405 102.723 13.631 101.799 13.8177C101.083 13.9648 100.378 14.1572 99.6851 14.4005V26.2196H102.602V16.2789C102.85 16.2053 103.104 16.1544 103.364 16.1148C103.705 16.0525 104.045 16.0186 104.392 16.0186C104.889 16.0129 105.385 16.0582 105.876 16.1487C106.217 16.211 106.552 16.2958 106.881 16.3977L107.384 13.9705C107.239 13.9196 107.049 13.8686 106.806 13.8177C106.558 13.7611 106.315 13.7159 106.055 13.6763Z" fill="white"/>
<path d="M39.6432 13.6763C39.3833 13.6367 39.1234 13.6027 38.8693 13.5801C38.6151 13.5575 38.3899 13.5461 38.1993 13.5461C37.2522 13.5405 36.3108 13.631 35.3867 13.8177C34.6706 13.9648 33.966 14.1572 33.2729 14.4005V26.2196H36.1895V16.2789C36.4378 16.2053 36.692 16.1544 36.9518 16.1148C37.2926 16.0525 37.6333 16.0186 37.9799 16.0186C38.4765 16.0129 38.9732 16.0582 39.4641 16.1487C39.8049 16.211 40.1398 16.2958 40.469 16.3977L40.9715 13.9705C40.8271 13.9196 40.6365 13.8686 40.394 13.8177C40.1456 13.7611 39.8973 13.7159 39.6432 13.6763Z" fill="white"/>
<path d="M50.5952 14.8772C50.1678 14.4303 49.625 14.0908 49.0359 13.8928C48.2677 13.6438 47.465 13.525 46.6622 13.5476C45.9287 13.542 45.1895 13.6099 44.4676 13.7344C43.942 13.8192 43.4164 13.9437 42.8967 14.1021L42.8274 14.1247L43.2028 16.5349L43.3009 16.501C43.7283 16.3596 44.173 16.2521 44.6119 16.1898C45.1953 16.0936 45.7959 16.0484 46.3908 16.054C46.7893 16.0427 47.182 16.0993 47.5574 16.2294C48.1176 16.4274 48.5334 16.8857 48.6778 17.4515C48.7529 17.7401 48.7933 18.0456 48.7933 18.3454V18.6962C48.4641 18.6227 48.1291 18.5661 47.7942 18.5265C47.465 18.4869 47.1358 18.4699 46.8066 18.4699C46.795 18.4699 46.7893 18.4699 46.7777 18.4699C46.1366 18.4699 45.4956 18.5378 44.8718 18.6623C44.2885 18.7754 43.7341 18.9961 43.2259 19.3073C42.7581 19.6071 42.3653 20.0145 42.0939 20.4954C41.7994 21.0442 41.655 21.6552 41.6781 22.2719C41.655 22.8999 41.7762 23.5336 42.0361 24.1164C42.2672 24.5973 42.6252 25.0216 43.0642 25.3384C43.5435 25.6666 44.0691 25.8929 44.6408 26.0174C45.305 26.1588 45.9807 26.2324 46.6564 26.2267C46.7084 26.2267 46.7546 26.2267 46.8066 26.2267C47.748 26.2267 48.7009 26.1588 49.6365 26.0287C50.5317 25.8986 51.1785 25.7911 51.6059 25.6949L51.6752 25.6779V18.3624C51.681 17.7061 51.6001 17.0498 51.4269 16.4105C51.2767 15.8447 50.9937 15.3129 50.5952 14.8772ZM48.7875 20.8009V23.7316C48.1638 23.8278 47.5285 23.8731 46.899 23.8561H46.8124C46.1597 23.8448 45.64 23.7203 45.253 23.494C44.8661 23.262 44.6639 22.8264 44.6639 22.204C44.6524 21.9268 44.7275 21.6552 44.8834 21.4176C45.0335 21.2083 45.2357 21.0385 45.4667 20.931C45.7324 20.8066 46.0096 20.7274 46.3041 20.6878C46.9279 20.5972 47.5631 20.5972 48.1927 20.6878C48.3832 20.7104 48.5854 20.75 48.7875 20.8009Z" fill="white"/>
<path d="M96.4433 14.8772C96.0159 14.4303 95.473 14.0908 94.8839 13.8928C94.1158 13.6438 93.313 13.525 92.5103 13.5476C91.7768 13.542 91.0376 13.6042 90.3099 13.7287C89.7843 13.8136 89.2588 13.938 88.7448 14.0964L88.6755 14.1191L89.0451 16.5293L89.1433 16.4953C89.5706 16.3539 90.0096 16.2464 90.4543 16.1842C91.0376 16.088 91.6382 16.0427 92.2331 16.0484C92.6316 16.0371 93.0243 16.0936 93.3997 16.2238C93.9599 16.4218 94.3757 16.8801 94.5201 17.4458C94.5952 17.7344 94.6356 18.0399 94.6356 18.3398V18.6906C94.3064 18.617 93.9714 18.5604 93.6365 18.5208C93.3015 18.4812 92.9723 18.4642 92.6489 18.4642C92.6431 18.4642 92.6431 18.4642 92.6373 18.4642C91.9905 18.4642 91.3379 18.5321 90.7084 18.6623C90.1251 18.7754 89.5706 18.9961 89.0624 19.3073C88.5946 19.6071 88.2019 20.0145 87.9304 20.4954C87.6359 21.0442 87.4915 21.6552 87.5146 22.2719C87.4973 22.8999 87.6186 23.5393 87.8842 24.1164C88.1152 24.5973 88.4733 25.0216 88.9122 25.3384C89.3916 25.6666 89.9229 25.8929 90.4889 26.0174C91.1473 26.1588 91.8288 26.2324 92.5045 26.2267C92.5565 26.2267 92.6027 26.2267 92.6547 26.2267C93.596 26.2267 94.549 26.1588 95.4846 26.0287C96.3798 25.8986 97.0266 25.7911 97.454 25.6949L97.5233 25.6779V18.3624C97.529 17.7061 97.4482 17.0441 97.2749 16.4105C97.119 15.8447 96.836 15.3129 96.4433 14.8772ZM94.6298 20.8009V23.7316C94.0061 23.8278 93.3708 23.8731 92.7413 23.8561H92.6547C92.002 23.8448 91.4823 23.7203 91.0953 23.494C90.7084 23.262 90.5062 22.8264 90.5062 22.204C90.4947 21.9268 90.5698 21.6552 90.7257 21.4176C90.8759 21.2083 91.078 21.0385 91.309 20.931C91.5747 20.8066 91.8519 20.7274 92.1464 20.6878C92.7702 20.5972 93.4055 20.5972 94.035 20.6878C94.2313 20.7104 94.4335 20.75 94.6298 20.8009Z" fill="white"/>
<path d="M75.1137 21.2685C74.9693 20.8781 74.7325 20.516 74.4322 20.2275C74.0857 19.8993 73.6929 19.6278 73.2656 19.4241C72.7111 19.1525 72.1394 18.9092 71.5618 18.6999C71.2211 18.5867 70.8861 18.4566 70.5512 18.3038C70.3201 18.202 70.0949 18.0719 69.8928 17.9248C69.7542 17.8229 69.6387 17.6871 69.5636 17.54C69.4943 17.3873 69.4654 17.2175 69.4654 17.0478C69.4538 16.7083 69.6444 16.3972 69.9505 16.2501C70.3664 16.052 70.8342 15.9559 71.3077 15.9728C71.8622 15.9672 72.4166 16.0238 72.9595 16.1426C73.358 16.2331 73.7507 16.3576 74.1261 16.516L74.2185 16.5556L74.7672 14.151L74.6979 14.1284C74.2185 13.9643 73.7218 13.8399 73.2251 13.7493C72.5494 13.6192 71.8564 13.5513 71.1691 13.557C69.7484 13.557 68.6106 13.8851 67.779 14.5244C66.9416 15.1694 66.52 16.0577 66.52 17.1723C66.5026 17.6758 66.5951 18.1681 66.7914 18.632C66.9647 19.0224 67.2188 19.3675 67.5422 19.6504C67.8772 19.9446 68.2583 20.1879 68.6626 20.3802C69.1189 20.6009 69.5982 20.7933 70.0718 20.963C70.8977 21.2629 71.4925 21.5457 71.8506 21.8003C72.1683 21.9984 72.3531 22.3378 72.3531 22.7112V22.7169C72.3819 23.0564 72.1971 23.3789 71.891 23.5373C71.5676 23.707 71.0305 23.7919 70.3086 23.7919C70.2913 23.7919 70.2797 23.7919 70.2624 23.7919C69.6156 23.7919 68.9687 23.7127 68.345 23.5542C67.8367 23.4241 67.3401 23.2657 66.8607 23.0847L66.7683 23.0451L66.2485 25.5118L66.3178 25.5345C66.7683 25.6985 67.2303 25.8456 67.6981 25.9588C68.4605 26.1342 69.2459 26.2247 70.0314 26.2247C70.118 26.2247 70.2046 26.2247 70.2913 26.2191H70.297C71.8968 26.2191 73.1443 25.9192 74.0164 25.3251C74.8942 24.7254 75.3389 23.8315 75.3389 22.6716C75.3389 22.1907 75.2696 21.7211 75.1137 21.2685Z" fill="white"/>
<path d="M85.6442 23.1869C85.3092 23.3227 84.9049 23.4359 84.4487 23.5264C83.9924 23.6169 83.5188 23.6622 83.0453 23.6622C81.792 23.6622 80.8911 23.3227 80.3713 22.6608C79.8457 21.9875 79.5743 21.0596 79.5743 19.8998C79.5743 18.6947 79.8573 17.7498 80.4175 17.0935C80.9719 16.4429 81.792 16.1091 82.8604 16.1091C83.3167 16.1091 83.7498 16.1543 84.1541 16.2449C84.5584 16.3354 84.928 16.4485 85.2457 16.5843L85.3381 16.6239L85.9849 14.2024L85.9156 14.1741C84.8876 13.7611 83.7787 13.5518 82.6294 13.5518C81.6938 13.5518 80.8333 13.7158 80.0825 14.0383C79.3317 14.3608 78.6849 14.8134 78.1593 15.3792C77.6338 15.945 77.2237 16.6239 76.9465 17.399C76.6635 18.1742 76.5249 19.0115 76.5249 19.8998C76.5249 20.7994 76.652 21.648 76.9003 22.4175C77.1486 23.1926 77.5356 23.8715 78.0438 24.4317C78.552 24.9918 79.2047 25.4387 79.9843 25.7499C80.7582 26.0668 81.6823 26.2252 82.7276 26.2252C83.3976 26.2252 84.0559 26.1629 84.6854 26.0441C85.315 25.9196 85.8001 25.7839 86.112 25.6254L86.1697 25.5972L85.7481 23.153L85.6442 23.1869Z" fill="white"/>
<path d="M119.093 25.3824V24.5338L119.099 7.99609L116.113 8.48266V14.1574C115.772 13.999 115.42 13.8632 115.062 13.7557C114.548 13.6086 114.011 13.5351 113.479 13.5464C112.671 13.5294 111.885 13.6822 111.14 13.999C110.476 14.2932 109.875 14.7402 109.413 15.2946C108.917 15.8887 108.559 16.562 108.339 17.2975C108.085 18.1405 107.964 19.0174 107.975 19.8944C107.964 20.7883 108.108 21.6709 108.409 22.5196C108.68 23.2664 109.102 23.9397 109.662 24.5168C110.21 25.0713 110.892 25.5069 111.631 25.7841C112.434 26.0783 113.271 26.2254 114.126 26.2254C114.167 26.2254 114.207 26.2254 114.247 26.2254C115.143 26.2254 116.043 26.1575 116.921 26.0218C117.632 25.9143 118.342 25.7615 119.029 25.5635L119.093 25.5465V25.3824ZM116.107 23.4814C115.876 23.5267 115.639 23.5663 115.402 23.5889C115.027 23.6285 114.64 23.6511 114.259 23.6455C113.254 23.6455 112.451 23.306 111.885 22.6384C111.325 21.9821 111.036 21.0599 111.025 19.9057H111.031V19.8208C111.031 18.6723 111.262 17.7501 111.718 17.0825C112.174 16.4262 112.902 16.0924 113.895 16.0924C113.901 16.0924 113.912 16.0924 113.918 16.0924C114.351 16.0924 114.773 16.1659 115.183 16.3074C115.512 16.4149 115.824 16.562 116.113 16.743V23.4814H116.107Z" fill="white"/>
</g>
</svg>
