<svg width="30" height="36" viewBox="0 0 30 36" fill="none" xmlns="http://www.w3.org/2000/svg">
<path fill-rule="evenodd" clip-rule="evenodd" d="M23.8564 1.54021C25.2147 -0.396232 27.8323 -0.528778 29.2207 1.26775L29.3516 1.44744L29.3525 1.44939C29.7749 2.08299 29.9296 2.76704 29.9297 3.4826V8.01092C29.9057 11.578 29.9053 15.1461 29.9053 18.7385V35.633H27.5381V3.18377C27.5169 2.98704 27.4566 2.83625 27.3682 2.71893C27.2768 2.59787 27.1425 2.49556 26.9541 2.41619C26.6277 2.27883 26.3181 2.35119 26.0273 2.62225L26.0205 2.62908C25.8672 2.76334 25.75 2.95663 25.5928 3.19256L25.5889 3.19842C21.9126 8.44341 16.2416 16.5146 11.4902 23.2736C9.11478 26.6528 6.96896 29.7046 5.41699 31.9113C4.6411 33.0146 4.01263 33.9073 3.5791 34.5236C3.36262 34.8314 3.1941 35.0705 3.08008 35.2326C3.02318 35.3135 2.97942 35.3756 2.9502 35.4172C2.93593 35.4374 2.92534 35.4535 2.91797 35.464C2.91454 35.4689 2.91107 35.4731 2.90918 35.4758C2.90838 35.4769 2.90765 35.4788 2.90723 35.4797L2.66309 35.3088L2.90625 35.4806L2.81738 35.6066H0L0.327148 35.1388L0.328125 35.1379C0.328753 35.1372 0.33025 35.1351 0.331055 35.134C0.333027 35.1311 0.336212 35.1265 0.339844 35.1213C0.347645 35.1101 0.358909 35.093 0.374023 35.0715C0.404983 35.0272 0.45148 34.9612 0.511719 34.8752C0.632476 34.7027 0.81098 34.4484 1.04004 34.1213C1.49853 33.4665 2.1621 32.5185 2.98047 31.3498C4.61742 29.012 6.87559 25.7863 9.36133 22.2365C14.3333 15.1363 20.2162 6.73712 23.8564 1.54021ZM29.1055 1.61541C29.0674 1.55948 29.0277 1.50467 28.9873 1.45232L29.1055 1.61541ZM24.7842 0.977714C24.7338 1.01786 24.6844 1.06001 24.6357 1.10369L24.7842 0.977714C24.8345 0.937554 24.8856 0.900074 24.9375 0.863457L24.7842 0.977714ZM28.4492 0.908378C28.4978 0.946471 28.546 0.985851 28.5928 1.02752C28.4991 0.94409 28.4014 0.868104 28.3008 0.799003L28.4492 0.908378Z" fill="white"/>
<path fill-rule="evenodd" clip-rule="evenodd" d="M16.5605 21.674C17.2757 21.6859 18.3509 21.6868 19.249 21.6838C19.6977 21.6823 20.1019 21.6798 20.3936 21.6779C20.5393 21.677 20.657 21.6756 20.7383 21.675C20.7789 21.6747 20.8107 21.6751 20.832 21.675C20.8426 21.6749 20.851 21.674 20.8564 21.674H24.3174V24.0412H17.1064C16.9617 24.0412 16.8772 24.0658 16.8135 24.1008C16.7476 24.137 16.6758 24.199 16.583 24.3215L16.584 24.3224C15.3499 26.0836 13.367 28.8737 11.6934 31.2228C10.8565 32.3975 10.0956 33.4625 9.54492 34.2336C9.2697 34.619 9.04677 34.9319 8.89258 35.1476C8.81569 35.2552 8.75543 35.3389 8.71484 35.3957C8.69481 35.4237 8.67935 35.4456 8.66895 35.4601C8.66399 35.4671 8.65986 35.473 8.65723 35.4767C8.65604 35.4784 8.65495 35.4806 8.6543 35.4816L8.65332 35.4826L8.56445 35.6066H5.76953L9.70215 30.0402L9.70312 30.0392C9.70355 30.0386 9.70436 30.0373 9.70508 30.0363C9.70669 30.0339 9.70885 30.0299 9.71191 30.0256C9.71863 30.016 9.72922 30.0011 9.74219 29.9826C9.76839 29.9452 9.80679 29.8895 9.85645 29.8185C9.95607 29.6762 10.1009 29.4701 10.2793 29.215C10.6366 28.7043 11.1315 27.9967 11.6807 27.2111C12.7779 25.6415 14.0929 23.7581 14.9668 22.5012C15.1564 22.2168 15.3789 22.004 15.6523 21.8654C15.9242 21.7277 16.2251 21.674 16.5557 21.674H16.5605ZM15.2148 22.6662C13.4781 25.1642 9.99233 30.1444 9.94629 30.2101C9.94922 30.206 13.4672 25.1799 15.2148 22.6662Z" fill="white"/>
</svg>
