<svg width="376" height="240" viewBox="0 0 376 240" fill="none" xmlns="http://www.w3.org/2000/svg">
<g clip-path="url(#clip0_6086_11926)">
<rect width="376" height="240" fill="#7E7AF4"/>
<g filter="url(#filter0_fg_6086_11926)">
<g filter="url(#filter1_f_6086_11926)" style="mix-blend-mode:plus-lighter">
<ellipse cx="952.816" cy="887.178" rx="952.816" ry="887.178" transform="matrix(-0.929052 1.5574e-05 0.762098 0.570663 818.164 34.5137)" fill="url(#paint0_radial_6086_11926)"/>
</g>
<g opacity="0.56" filter="url(#filter2_f_6086_11926)" style="mix-blend-mode:plus-lighter">
<ellipse cx="952.816" cy="887.178" rx="952.816" ry="887.178" transform="matrix(-0.929052 1.5574e-05 0.762098 0.570663 818.164 34.5137)" fill="url(#paint1_radial_6086_11926)"/>
</g>
<ellipse cx="506.881" cy="297.863" rx="506.881" ry="297.863" transform="matrix(0.393522 0.944037 0.845092 -0.487919 171.201 -217.858)" fill="url(#paint2_linear_6086_11926)"/>
<g filter="url(#filter3_f_6086_11926)" style="mix-blend-mode:plus-lighter">
<ellipse cx="945.092" cy="891.305" rx="945.092" ry="891.305" transform="matrix(-0.970064 -0.167518 0.724974 0.673658 879.689 98.6885)" fill="url(#paint3_radial_6086_11926)"/>
</g>
<g opacity="0.56" filter="url(#filter4_f_6086_11926)" style="mix-blend-mode:plus-lighter">
<ellipse cx="945.092" cy="891.305" rx="945.092" ry="891.305" transform="matrix(-0.970064 -0.167518 0.724974 0.673658 879.689 98.6885)" fill="url(#paint4_radial_6086_11926)"/>
</g>
<ellipse cx="510.443" cy="292.949" rx="510.443" ry="292.949" transform="matrix(0.304609 0.957762 0.942902 -0.31617 236.597 -256.044)" fill="url(#paint5_linear_6086_11926)"/>
<g filter="url(#filter5_f_6086_11926)" style="mix-blend-mode:plus-lighter">
<ellipse cx="947.301" cy="890.13" rx="947.301" ry="890.13" transform="matrix(-0.984483 -0.331393 0.679797 0.768713 936.561 170.484)" fill="url(#paint6_radial_6086_11926)"/>
</g>
<g opacity="0.56" filter="url(#filter6_f_6086_11926)" style="mix-blend-mode:plus-lighter">
<ellipse cx="947.301" cy="890.13" rx="947.301" ry="890.13" transform="matrix(-0.984483 -0.331393 0.679797 0.768713 936.561 170.484)" fill="url(#paint7_radial_6086_11926)"/>
</g>
<ellipse cx="509.43" cy="294.359" rx="509.43" ry="294.359" transform="matrix(0.213623 0.963501 1.00547 -0.130169 308.407 -280.52)" fill="url(#paint8_linear_6086_11926)"/>
</g>
<g filter="url(#filter7_d_6086_11926)">
<rect x="62" y="40" width="252" height="160" rx="10" fill="black"/>
<rect x="90" y="72" width="36" height="27" rx="4" fill="url(#paint9_linear_6086_11926)"/>
<path d="M114 72L114 78.75M114 99L114 92.25M102 99L102 92.25M102 72L102 78.75" stroke="#808080"/>
<path d="M90 80H101.286C102.232 80 103 80.7675 103 81.7143V89.2857C103 90.2325 102.232 91 101.286 91H90" stroke="#808080"/>
<path d="M126 80H114.714C113.768 80 113 80.7675 113 81.7143V89.2857C113 90.2325 113.768 91 114.714 91H126" stroke="#808080"/>
<path d="M105 96H111" stroke="#808080"/>
<path d="M105 75H111" stroke="#808080"/>
<path d="M266.364 167.556L259.687 183.486H255.331L252.045 170.773C251.846 169.99 251.672 169.703 251.065 169.373C250.075 168.836 248.439 168.332 247 168.019L247.098 167.556H254.11C255.004 167.556 255.807 168.151 256.01 169.18L257.746 178.398L262.034 167.556H266.364V167.556ZM283.432 178.285C283.45 174.081 277.618 173.849 277.659 171.971C277.671 171.399 278.215 170.791 279.407 170.636C279.997 170.559 281.624 170.5 283.469 171.349L284.193 167.971C283.202 167.611 281.926 167.265 280.338 167.265C276.265 167.265 273.398 169.43 273.374 172.531C273.348 174.824 275.42 176.104 276.982 176.866C278.588 177.646 279.127 178.148 279.121 178.846C279.109 179.914 277.84 180.386 276.653 180.405C274.582 180.437 273.38 179.844 272.422 179.399L271.675 182.889C272.638 183.331 274.415 183.716 276.258 183.735C280.587 183.735 283.419 181.597 283.432 178.285ZM294.189 183.486H298L294.673 167.556H291.155C290.364 167.556 289.697 168.016 289.401 168.725L283.218 183.486H287.545L288.404 181.107H293.691L294.189 183.486ZM289.59 177.842L291.759 171.86L293.008 177.842H289.59ZM272.252 167.556L268.844 183.486H264.723L268.132 167.556H272.252Z" fill="#FEFEFE"/>
<path d="M80.836 177.516C80.044 177.516 79.408 176.88 79.408 176.1C79.408 175.32 80.044 174.672 80.836 174.672C81.616 174.672 82.252 175.32 82.252 176.1C82.252 176.88 81.616 177.516 80.836 177.516ZM84.5523 177.516C83.7603 177.516 83.1242 176.88 83.1242 176.1C83.1242 175.32 83.7603 174.672 84.5523 174.672C85.3323 174.672 85.9683 175.32 85.9683 176.1C85.9683 176.88 85.3323 177.516 84.5523 177.516ZM88.2685 177.516C87.4765 177.516 86.8405 176.88 86.8405 176.1C86.8405 175.32 87.4765 174.672 88.2685 174.672C89.0485 174.672 89.6845 175.32 89.6845 176.1C89.6845 176.88 89.0485 177.516 88.2685 177.516ZM91.9848 177.516C91.1928 177.516 90.5568 176.88 90.5568 176.1C90.5568 175.32 91.1928 174.672 91.9848 174.672C92.7648 174.672 93.4008 175.32 93.4008 176.1C93.4008 176.88 92.7648 177.516 91.9848 177.516ZM101.297 180.18C99.4853 180.18 98.0573 179.16 98.0213 177.288H99.0173C99.0533 178.608 99.9053 179.34 101.261 179.34C102.401 179.34 103.205 178.776 103.205 177.612C103.205 176.568 102.425 176.016 101.045 176.016H100.529V175.236H101.033C102.317 175.236 102.965 174.696 102.965 173.82C102.965 172.92 102.161 172.38 101.177 172.38C99.9893 172.38 99.2813 173.148 99.2813 174.288H98.2973C98.3093 172.668 99.4013 171.588 101.213 171.588C102.737 171.588 103.949 172.416 103.949 173.844C103.949 174.768 103.385 175.308 102.593 175.572V175.608C103.745 175.908 104.249 176.64 104.249 177.708C104.249 179.28 102.965 180.18 101.297 180.18ZM105.069 180C105.165 177.804 106.713 177 108.153 176.172C109.233 175.548 109.893 175.128 109.893 174.132C109.893 173.124 109.197 172.44 108.105 172.44C107.529 172.44 107.097 172.632 106.797 172.956C106.473 173.304 106.329 173.76 106.329 174.6H105.273C105.273 173.544 105.549 172.872 106.053 172.368C106.581 171.852 107.349 171.6 108.189 171.6C109.857 171.6 110.937 172.656 110.937 174.12C110.937 175.704 109.857 176.232 108.537 176.964C107.649 177.456 106.509 178.128 106.281 179.04H110.769V180H105.069ZM111.797 180C111.893 177.804 113.441 177 114.881 176.172C115.961 175.548 116.621 175.128 116.621 174.132C116.621 173.124 115.925 172.44 114.833 172.44C114.257 172.44 113.825 172.632 113.525 172.956C113.201 173.304 113.057 173.76 113.057 174.6H112.001C112.001 173.544 112.277 172.872 112.781 172.368C113.309 171.852 114.077 171.6 114.917 171.6C116.585 171.6 117.665 172.656 117.665 174.12C117.665 175.704 116.585 176.232 115.265 176.964C114.377 177.456 113.237 178.128 113.009 179.04H117.497V180H111.797ZM121.978 180V177.984H118.102V177.084L122.17 171.696H122.962V177.18H124.318V177.984H122.962V180H121.978ZM119.074 177.144V177.18H121.978V173.328H121.954L119.074 177.144Z" fill="white"/>
</g>
</g>
<defs>
<filter id="filter0_fg_6086_11926" x="-557.764" y="-430.006" width="2333.65" height="1768.93" filterUnits="userSpaceOnUse" color-interpolation-filters="sRGB">
<feFlood flood-opacity="0" result="BackgroundImageFix"/>
<feBlend mode="normal" in="SourceGraphic" in2="BackgroundImageFix" result="shape"/>
<feGaussianBlur stdDeviation="22.55" result="effect1_foregroundBlur_6086_11926"/>
<feTurbulence type="fractalNoise" baseFrequency="0.99900001287460327 0.99900001287460327" numOctaves="3" seed="7651" />
<feDisplacementMap in="effect1_foregroundBlur_6086_11926" scale="54.799999237060547" xChannelSelector="R" yChannelSelector="G" result="displacedImage" width="100%" height="100%" />
<feMerge result="effect2_texture_6086_11926">
<feMergeNode in="displacedImage"/>
</feMerge>
</filter>
<filter id="filter1_f_6086_11926" x="-516.785" y="22.6217" width="2251.7" height="1036.37" filterUnits="userSpaceOnUse" color-interpolation-filters="sRGB">
<feFlood flood-opacity="0" result="BackgroundImageFix"/>
<feBlend mode="normal" in="SourceGraphic" in2="BackgroundImageFix" result="shape"/>
<feGaussianBlur stdDeviation="5.9533" result="effect1_foregroundBlur_6086_11926"/>
</filter>
<filter id="filter2_f_6086_11926" x="-516.785" y="22.6217" width="2251.7" height="1036.37" filterUnits="userSpaceOnUse" color-interpolation-filters="sRGB">
<feFlood flood-opacity="0" result="BackgroundImageFix"/>
<feBlend mode="normal" in="SourceGraphic" in2="BackgroundImageFix" result="shape"/>
<feGaussianBlur stdDeviation="5.9533" result="effect1_foregroundBlur_6086_11926"/>
</filter>
<filter id="filter3_f_6086_11926" x="-524.571" y="-92.2123" width="2267.27" height="1266.03" filterUnits="userSpaceOnUse" color-interpolation-filters="sRGB">
<feFlood flood-opacity="0" result="BackgroundImageFix"/>
<feBlend mode="normal" in="SourceGraphic" in2="BackgroundImageFix" result="shape"/>
<feGaussianBlur stdDeviation="5.9533" result="effect1_foregroundBlur_6086_11926"/>
</filter>
<filter id="filter4_f_6086_11926" x="-524.571" y="-92.2123" width="2267.27" height="1266.03" filterUnits="userSpaceOnUse" color-interpolation-filters="sRGB">
<feFlood flood-opacity="0" result="BackgroundImageFix"/>
<feBlend mode="normal" in="SourceGraphic" in2="BackgroundImageFix" result="shape"/>
<feGaussianBlur stdDeviation="5.9533" result="effect1_foregroundBlur_6086_11926"/>
</filter>
<filter id="filter5_f_6086_11926" x="-514.683" y="-224.112" width="2247.5" height="1529.84" filterUnits="userSpaceOnUse" color-interpolation-filters="sRGB">
<feFlood flood-opacity="0" result="BackgroundImageFix"/>
<feBlend mode="normal" in="SourceGraphic" in2="BackgroundImageFix" result="shape"/>
<feGaussianBlur stdDeviation="5.9533" result="effect1_foregroundBlur_6086_11926"/>
</filter>
<filter id="filter6_f_6086_11926" x="-514.683" y="-224.112" width="2247.5" height="1529.84" filterUnits="userSpaceOnUse" color-interpolation-filters="sRGB">
<feFlood flood-opacity="0" result="BackgroundImageFix"/>
<feBlend mode="normal" in="SourceGraphic" in2="BackgroundImageFix" result="shape"/>
<feGaussianBlur stdDeviation="5.9533" result="effect1_foregroundBlur_6086_11926"/>
</filter>
<filter id="filter7_d_6086_11926" x="60" y="40" width="256" height="164" filterUnits="userSpaceOnUse" color-interpolation-filters="sRGB">
<feFlood flood-opacity="0" result="BackgroundImageFix"/>
<feColorMatrix in="SourceAlpha" type="matrix" values="0 0 0 0 0 0 0 0 0 0 0 0 0 0 0 0 0 0 127 0" result="hardAlpha"/>
<feOffset dy="2"/>
<feGaussianBlur stdDeviation="1"/>
<feComposite in2="hardAlpha" operator="out"/>
<feColorMatrix type="matrix" values="0 0 0 0 0 0 0 0 0 0 0 0 0 0 0 0 0 0 0.25 0"/>
<feBlend mode="normal" in2="BackgroundImageFix" result="effect1_dropShadow_6086_11926"/>
<feBlend mode="normal" in="SourceGraphic" in2="effect1_dropShadow_6086_11926" result="shape"/>
</filter>
<radialGradient id="paint0_radial_6086_11926" cx="0" cy="0" r="1" gradientTransform="matrix(207.047 -771.151 141.285 129.386 835.945 619.418)" gradientUnits="userSpaceOnUse">
<stop offset="0.240007" stop-color="#000004"/>
<stop offset="0.50298" stop-color="#FF7700"/>
<stop offset="0.662606" stop-color="#1F13FF"/>
<stop offset="0.738277"/>
</radialGradient>
<radialGradient id="paint1_radial_6086_11926" cx="0" cy="0" r="1" gradientTransform="matrix(207.047 -771.151 141.285 129.386 835.945 619.418)" gradientUnits="userSpaceOnUse">
<stop offset="0.240007" stop-color="#000004"/>
<stop offset="0.50298" stop-color="#FF7700"/>
<stop offset="0.662606" stop-color="#1F13FF"/>
<stop offset="0.738277"/>
</radialGradient>
<linearGradient id="paint2_linear_6086_11926" x1="800.188" y1="118.555" x2="911.126" y2="341.548" gradientUnits="userSpaceOnUse">
<stop/>
<stop offset="0.840752" stop-opacity="0"/>
</linearGradient>
<radialGradient id="paint3_radial_6086_11926" cx="0" cy="0" r="1" gradientTransform="matrix(205.369 -774.739 140.139 129.988 829.168 622.3)" gradientUnits="userSpaceOnUse">
<stop offset="0.240007" stop-color="#000004"/>
<stop offset="0.50298" stop-color="#FF7700"/>
<stop offset="0.662606" stop-color="#1F13FF"/>
<stop offset="0.738277"/>
</radialGradient>
<radialGradient id="paint4_radial_6086_11926" cx="0" cy="0" r="1" gradientTransform="matrix(205.369 -774.739 140.139 129.988 829.168 622.3)" gradientUnits="userSpaceOnUse">
<stop offset="0.240007" stop-color="#000004"/>
<stop offset="0.50298" stop-color="#FF7700"/>
<stop offset="0.662606" stop-color="#1F13FF"/>
<stop offset="0.738277"/>
</radialGradient>
<linearGradient id="paint5_linear_6086_11926" x1="805.812" y1="116.599" x2="913.356" y2="337.941" gradientUnits="userSpaceOnUse">
<stop/>
<stop offset="0.840752" stop-opacity="0"/>
</linearGradient>
<radialGradient id="paint6_radial_6086_11926" cx="0" cy="0" r="1" gradientTransform="matrix(205.849 -773.717 140.467 129.816 831.107 621.479)" gradientUnits="userSpaceOnUse">
<stop offset="0.240007" stop-color="#000004"/>
<stop offset="0.50298" stop-color="#FF7700"/>
<stop offset="0.662606" stop-color="#1F13FF"/>
<stop offset="0.738277"/>
</radialGradient>
<radialGradient id="paint7_radial_6086_11926" cx="0" cy="0" r="1" gradientTransform="matrix(205.849 -773.717 140.467 129.816 831.107 621.479)" gradientUnits="userSpaceOnUse">
<stop offset="0.240007" stop-color="#000004"/>
<stop offset="0.50298" stop-color="#FF7700"/>
<stop offset="0.662606" stop-color="#1F13FF"/>
<stop offset="0.738277"/>
</radialGradient>
<linearGradient id="paint8_linear_6086_11926" x1="804.212" y1="117.16" x2="912.727" y2="338.988" gradientUnits="userSpaceOnUse">
<stop/>
<stop offset="0.840752" stop-opacity="0"/>
</linearGradient>
<linearGradient id="paint9_linear_6086_11926" x1="108" y1="72" x2="125.5" y2="98.5" gradientUnits="userSpaceOnUse">
<stop stop-color="#D9D9D9"/>
<stop offset="0.465687" stop-color="white"/>
<stop offset="1" stop-color="#737373"/>
</linearGradient>
<clipPath id="clip0_6086_11926">
<rect width="376" height="240" fill="white"/>
</clipPath>
</defs>
</svg>
