<svg width="376" height="480" viewBox="0 0 376 480" fill="none" xmlns="http://www.w3.org/2000/svg">
<g clip-path="url(#clip0_6296_3399)">
<rect width="376" height="480" fill="#EEEAE5"/>
<g style="mix-blend-mode:multiply">
<g filter="url(#filter0_f_6296_3399)">
<ellipse cx="408.344" cy="263" rx="120" ry="205.987" transform="rotate(90 408.344 263)" fill="#C6C8D9"/>
</g>
<g filter="url(#filter1_f_6296_3399)">
<path d="M124.152 631C10.388 631 -269.668 566.774 -269.668 500.5C-269.668 434.226 10.388 391 124.152 391C237.915 391 523.558 586.726 523.558 653C523.558 719.274 237.915 631 124.152 631Z" fill="#99B6CC"/>
</g>
<g filter="url(#filter2_f_6296_3399)">
<path d="M408.344 628C294.581 628 -42.0347 401.774 -42.0347 335.5C-42.0347 269.226 294.581 388 408.344 388C522.108 388 614.332 441.726 614.332 508C614.332 574.274 522.108 628 408.344 628Z" fill="url(#paint0_linear_6296_3399)"/>
</g>
<g filter="url(#filter3_f_6296_3399)">
<path d="M164.916 339.739C55.3943 339.739 -8.5182 394.326 -8.51819 339.739C-8.51819 285.151 72.8722 200 182.394 200C291.915 200 388.095 285.151 388.095 339.739C388.095 394.326 274.438 339.739 164.916 339.739Z" fill="#C6C8D9"/>
</g>
<g filter="url(#filter4_f_6296_3399)">
<path d="M154.119 305.876C237.511 340.695 289.258 345.439 286.176 361.014C283.094 376.589 216.314 375.009 132.922 340.189C49.5293 305.37 -18.8966 250.498 -15.8148 234.923C-12.733 219.348 70.7265 271.056 154.119 305.876Z" fill="#DCD0DA"/>
</g>
</g>
<g style="mix-blend-mode:multiply" opacity="0.3">
<g filter="url(#filter5_f_6296_3399)">
<ellipse cx="408.344" cy="263" rx="120" ry="205.987" transform="rotate(90 408.344 263)" fill="#C6C8D9"/>
</g>
<g filter="url(#filter6_f_6296_3399)">
<path d="M124.152 631C10.388 631 -269.668 566.774 -269.668 500.5C-269.668 434.226 10.388 391 124.152 391C237.915 391 523.558 586.726 523.558 653C523.558 719.274 237.915 631 124.152 631Z" fill="#99B6CC"/>
</g>
<g filter="url(#filter7_f_6296_3399)">
<path d="M408.344 628C294.581 628 -42.0347 401.774 -42.0347 335.5C-42.0347 269.226 294.581 388 408.344 388C522.108 388 614.332 441.726 614.332 508C614.332 574.274 522.108 628 408.344 628Z" fill="url(#paint1_linear_6296_3399)"/>
</g>
<g filter="url(#filter8_f_6296_3399)">
<path d="M164.916 339.739C55.3943 339.739 -8.5182 394.326 -8.51819 339.739C-8.51819 285.151 72.8722 200 182.394 200C291.915 200 388.095 285.151 388.095 339.739C388.095 394.326 274.438 339.739 164.916 339.739Z" fill="#C6C8D9"/>
</g>
<g filter="url(#filter9_f_6296_3399)">
<path d="M154.119 305.876C237.511 340.695 289.258 345.439 286.176 361.014C283.094 376.589 216.314 375.009 132.922 340.189C49.5293 305.37 -18.8966 250.498 -15.8148 234.923C-12.733 219.348 70.7265 271.056 154.119 305.876Z" fill="#DCD0DA"/>
</g>
</g>
<g style="mix-blend-mode:multiply" filter="url(#filter10_g_6296_3399)">
<g filter="url(#filter11_f_6296_3399)">
<ellipse cx="-222.619" cy="219.326" rx="90.6737" ry="358.38" transform="rotate(-90 -222.619 219.326)" fill="#C6C8D9"/>
</g>
<g filter="url(#filter12_f_6296_3399)">
<path d="M271.825 -58.74C469.753 -58.74 957 -10.2101 957 39.8675C957 89.9452 469.753 122.607 271.825 122.607C73.8973 122.607 -423.068 -25.2858 -423.068 -75.3635C-423.068 -125.441 73.8973 -58.74 271.825 -58.74Z" fill="#99B6CC"/>
</g>
<g filter="url(#filter13_f_6296_3399)">
<path d="M-222.62 -56.473C-24.6914 -56.473 560.958 114.466 560.958 164.544C560.958 214.622 -24.6914 124.874 -222.62 124.874C-420.548 124.874 -581 84.2784 -581 34.2007C-581 -15.877 -420.548 -56.4729 -222.62 -56.473Z" fill="url(#paint2_linear_6296_3399)"/>
</g>
<g filter="url(#filter14_f_6296_3399)">
<path d="M200.901 161.341C391.448 161.341 502.644 120.094 502.644 161.341C502.644 202.588 361.04 266.93 170.492 266.93C-20.0553 266.93 -187.39 202.588 -187.39 161.341C-187.39 120.094 10.353 161.341 200.901 161.341Z" fill="#C6C8D9"/>
</g>
<g filter="url(#filter15_f_6296_3399)">
<path d="M219.683 186.929C74.5956 160.619 -15.4336 157.034 -10.0718 145.265C-4.70996 133.497 111.475 134.691 256.563 161.001C401.65 187.31 520.699 228.773 515.337 240.542C509.975 252.31 364.771 213.238 219.683 186.929Z" fill="#DCD0DA"/>
</g>
</g>
<g style="mix-blend-mode:multiply" opacity="0.3" filter="url(#filter16_g_6296_3399)">
<g filter="url(#filter17_f_6296_3399)">
<ellipse cx="-222.62" cy="219.326" rx="90.6737" ry="358.38" transform="rotate(-90 -222.62 219.326)" fill="#C6C8D9"/>
</g>
<g filter="url(#filter18_f_6296_3399)">
<path d="M271.825 -58.74C469.753 -58.74 957 -10.2101 957 39.8675C957 89.9452 469.753 122.607 271.825 122.607C73.8973 122.607 -423.068 -25.2858 -423.068 -75.3635C-423.068 -125.441 73.8973 -58.74 271.825 -58.74Z" fill="#99B6CC"/>
</g>
<g filter="url(#filter19_f_6296_3399)">
<path d="M-222.62 -56.473C-24.6915 -56.473 560.958 114.466 560.958 164.544C560.958 214.622 -24.6915 124.874 -222.62 124.874C-420.548 124.874 -581 84.2784 -581 34.2007C-581 -15.877 -420.548 -56.4729 -222.62 -56.473Z" fill="url(#paint3_linear_6296_3399)"/>
</g>
<g filter="url(#filter20_f_6296_3399)">
<path d="M200.901 161.341C391.448 161.341 502.644 120.094 502.644 161.341C502.644 202.588 361.04 266.93 170.492 266.93C-20.0553 266.93 -187.39 202.588 -187.39 161.341C-187.39 120.094 10.3529 161.341 200.901 161.341Z" fill="#C6C8D9"/>
</g>
<g filter="url(#filter21_f_6296_3399)">
<path d="M219.683 186.929C74.5956 160.619 -15.4336 157.034 -10.0718 145.265C-4.70996 133.497 111.475 134.691 256.563 161.001C401.65 187.31 520.699 228.773 515.337 240.542C509.975 252.31 364.771 213.238 219.683 186.929Z" fill="#DCD0DA"/>
</g>
</g>
<path opacity="0.9" d="M48 98.5H328C334.351 98.5 339.5 103.649 339.5 110V260C339.5 266.351 334.351 271.5 328 271.5H48C41.6487 271.5 36.5 266.351 36.5 260V110C36.5 103.649 41.6487 98.5 48 98.5Z" fill="white" fill-opacity="0.62" stroke="white"/>
<path d="M36 110.5H340C346.351 110.5 351.5 115.649 351.5 122V310C351.5 316.351 346.351 321.5 340 321.5H36C29.6487 321.5 24.5 316.351 24.5 310V122C24.5 115.649 29.6487 110.5 36 110.5Z" fill="white" fill-opacity="0.62" stroke="white"/>
<path d="M97.5564 223V211.56H98.9964V216.424H105.108V211.56H106.548V223H105.108V217.592H98.9964V223H97.5564ZM112.041 223.224C109.577 223.224 108.041 221.272 108.041 218.872C108.041 216.472 109.577 214.52 112.041 214.52C114.521 214.52 116.025 216.472 116.025 218.872C116.025 221.272 114.521 223.224 112.041 223.224ZM112.041 222.136C113.801 222.136 114.697 220.696 114.697 218.872C114.697 217.048 113.801 215.592 112.041 215.592C110.281 215.592 109.369 217.048 109.369 218.872C109.369 220.696 110.281 222.136 112.041 222.136ZM118.969 223L116.345 214.728H117.737L119.193 219.832C119.385 220.52 119.641 221.608 119.641 221.608H119.673C119.673 221.608 119.913 220.52 120.089 219.864L121.481 214.728H122.841L124.185 219.864C124.361 220.536 124.585 221.608 124.585 221.608H124.617C124.617 221.608 124.873 220.52 125.081 219.832L126.617 214.728H127.961L125.257 223H123.929L122.553 217.992C122.361 217.304 122.153 216.264 122.153 216.264H122.121C122.121 216.264 121.897 217.304 121.705 217.992L120.313 223H118.969ZM134.994 223.224C132.53 223.224 130.994 221.272 130.994 218.872C130.994 216.472 132.53 214.52 134.994 214.52C136.946 214.52 138.242 215.64 138.53 217.4H137.218C137.026 216.28 136.242 215.592 134.994 215.592C133.234 215.592 132.322 217.048 132.322 218.872C132.322 220.696 133.234 222.136 134.994 222.136C136.338 222.136 137.138 221.368 137.25 220.088H138.53C138.354 222.072 137.058 223.224 134.994 223.224ZM146.407 223.08C145.559 223.08 145.111 222.696 144.983 221.848H144.967C144.471 222.488 143.623 223.16 142.215 223.16C140.647 223.16 139.415 222.424 139.415 220.856C139.415 218.904 140.951 218.504 143.015 218.184C144.183 218.008 144.999 217.896 144.999 217C144.999 216.072 144.327 215.544 143.143 215.544C141.799 215.544 141.127 216.12 141.079 217.368H139.831C139.879 215.768 140.935 214.568 143.127 214.568C144.887 214.568 146.183 215.224 146.183 217.192V221.128C146.183 221.8 146.343 222.168 147.063 222.008H147.111V222.952C146.951 223.016 146.743 223.08 146.407 223.08ZM142.503 222.168C144.231 222.168 145.015 220.904 145.015 219.944V218.536C144.583 218.808 143.831 219.016 143.127 219.144C141.831 219.384 140.791 219.608 140.791 220.824C140.791 221.928 141.655 222.168 142.503 222.168ZM149.364 214.728V215.816H149.396C149.988 215.032 150.82 214.536 152.02 214.536C153.748 214.536 154.804 215.48 154.804 217.192V223H153.508V217.304C153.508 216.232 152.804 215.624 151.636 215.624C150.324 215.624 149.364 216.552 149.364 217.912V223H148.068V214.728H149.364ZM159.068 223V214.728H160.364V223H159.068ZM159.068 213.16V211.56H160.364V213.16H159.068ZM171.173 223.08C170.325 223.08 169.877 222.696 169.749 221.848H169.733C169.237 222.488 168.389 223.16 166.981 223.16C165.413 223.16 164.181 222.424 164.181 220.856C164.181 218.904 165.717 218.504 167.781 218.184C168.949 218.008 169.765 217.896 169.765 217C169.765 216.072 169.093 215.544 167.909 215.544C166.565 215.544 165.893 216.12 165.845 217.368H164.597C164.645 215.768 165.701 214.568 167.893 214.568C169.653 214.568 170.949 215.224 170.949 217.192V221.128C170.949 221.8 171.109 222.168 171.829 222.008H171.877V222.952C171.717 223.016 171.509 223.08 171.173 223.08ZM167.269 222.168C168.997 222.168 169.781 220.904 169.781 219.944V218.536C169.349 218.808 168.597 219.016 167.893 219.144C166.597 219.384 165.557 219.608 165.557 220.824C165.557 221.928 166.421 222.168 167.269 222.168ZM175.969 223.24C173.697 223.24 172.433 222.168 172.305 220.312H173.633C173.809 221.752 174.769 222.152 176.001 222.152C177.361 222.152 177.921 221.56 177.921 220.792C177.921 219.864 177.281 219.624 175.761 219.304C174.129 218.968 172.673 218.632 172.673 216.824C172.673 215.448 173.729 214.552 175.649 214.552C177.697 214.552 178.705 215.528 178.897 217.144H177.569C177.441 216.056 176.849 215.576 175.617 215.576C174.433 215.576 173.953 216.104 173.953 216.76C173.953 217.656 174.753 217.832 176.177 218.12C177.841 218.456 179.233 218.824 179.233 220.728C179.233 222.392 177.873 223.24 175.969 223.24ZM183.61 223.24C181.338 223.24 180.074 222.168 179.946 220.312H181.274C181.45 221.752 182.41 222.152 183.642 222.152C185.002 222.152 185.562 221.56 185.562 220.792C185.562 219.864 184.922 219.624 183.402 219.304C181.77 218.968 180.314 218.632 180.314 216.824C180.314 215.448 181.37 214.552 183.29 214.552C185.338 214.552 186.346 215.528 186.538 217.144H185.21C185.082 216.056 184.49 215.576 183.258 215.576C182.074 215.576 181.594 216.104 181.594 216.76C181.594 217.656 182.394 217.832 183.818 218.12C185.482 218.456 186.874 218.824 186.874 220.728C186.874 222.392 185.514 223.24 183.61 223.24ZM188.114 223V214.728H189.41V223H188.114ZM188.114 213.16V211.56H189.41V213.16H188.114ZM194.313 223.24C192.041 223.24 190.777 222.168 190.649 220.312H191.977C192.153 221.752 193.113 222.152 194.345 222.152C195.705 222.152 196.265 221.56 196.265 220.792C196.265 219.864 195.625 219.624 194.105 219.304C192.473 218.968 191.017 218.632 191.017 216.824C191.017 215.448 192.073 214.552 193.993 214.552C196.041 214.552 197.049 215.528 197.241 217.144H195.913C195.785 216.056 195.193 215.576 193.961 215.576C192.777 215.576 192.297 216.104 192.297 216.76C192.297 217.656 193.097 217.832 194.521 218.12C196.185 218.456 197.577 218.824 197.577 220.728C197.577 222.392 196.217 223.24 194.313 223.24ZM198.133 215.784V214.728H199.333V212.12H200.629V214.728H202.229V215.784H200.629V221.16C200.629 221.736 200.933 221.928 201.461 221.928C201.717 221.928 202.005 221.864 202.149 221.816H202.197V222.936C201.893 223 201.541 223.048 201.157 223.048C200.101 223.048 199.333 222.616 199.333 221.448V215.784H198.133ZM207.17 225.736C206.674 225.736 206.354 225.704 206.002 225.56V224.408H206.066C206.242 224.504 206.514 224.584 206.946 224.584C207.49 224.584 207.858 224.376 208.178 223.576L208.498 222.76L205.266 214.728H206.674L208.626 219.88C208.882 220.568 209.186 221.496 209.186 221.496H209.218C209.218 221.496 209.506 220.568 209.762 219.88L211.65 214.728H213.026L209.49 223.672C208.818 225.384 208.178 225.736 207.17 225.736ZM217.322 223.224C214.858 223.224 213.322 221.272 213.322 218.872C213.322 216.472 214.858 214.52 217.322 214.52C219.802 214.52 221.306 216.472 221.306 218.872C221.306 221.272 219.802 223.224 217.322 223.224ZM217.322 222.136C219.082 222.136 219.978 220.696 219.978 218.872C219.978 217.048 219.082 215.592 217.322 215.592C215.562 215.592 214.65 217.048 214.65 218.872C214.65 220.696 215.562 222.136 217.322 222.136ZM229.159 223H227.863V221.864H227.831C227.239 222.664 226.535 223.192 225.335 223.192C223.639 223.192 222.551 222.168 222.551 220.456V214.728H223.847V220.424C223.847 221.496 224.535 222.12 225.703 222.12C227.015 222.12 227.863 221.128 227.863 219.816V214.728H229.159V223ZM232.93 215.784V214.728H234.13V212.12H235.426V214.728H237.026V215.784H235.426V221.16C235.426 221.736 235.73 221.928 236.258 221.928C236.514 221.928 236.802 221.864 236.946 221.816H236.994V222.936C236.69 223 236.338 223.048 235.954 223.048C234.898 223.048 234.13 222.616 234.13 221.448V215.784H232.93ZM241.822 223.224C239.358 223.224 237.822 221.272 237.822 218.872C237.822 216.472 239.358 214.52 241.822 214.52C244.302 214.52 245.806 216.472 245.806 218.872C245.806 221.272 244.302 223.224 241.822 223.224ZM241.822 222.136C243.582 222.136 244.478 220.696 244.478 218.872C244.478 217.048 243.582 215.592 241.822 215.592C240.062 215.592 239.15 217.048 239.15 218.872C239.15 220.696 240.062 222.136 241.822 222.136ZM250.299 223.24C248.043 223.24 246.635 221.544 246.635 218.888C246.635 216.136 248.219 214.536 250.267 214.536C251.435 214.536 252.331 215.112 252.859 215.896H252.891V211.56H254.187V223H252.891V221.992H252.859C252.235 222.792 251.467 223.24 250.299 223.24ZM250.347 222.152C252.187 222.152 252.971 220.776 252.971 218.904C252.971 216.984 252.043 215.64 250.331 215.64C248.763 215.64 247.963 217.048 247.963 218.904C247.963 220.776 248.763 222.152 250.347 222.152ZM262.439 223.08C261.591 223.08 261.143 222.696 261.015 221.848H260.999C260.503 222.488 259.655 223.16 258.247 223.16C256.679 223.16 255.447 222.424 255.447 220.856C255.447 218.904 256.983 218.504 259.047 218.184C260.215 218.008 261.031 217.896 261.031 217C261.031 216.072 260.359 215.544 259.174 215.544C257.831 215.544 257.159 216.12 257.111 217.368H255.863C255.911 215.768 256.967 214.568 259.159 214.568C260.919 214.568 262.215 215.224 262.215 217.192V221.128C262.215 221.8 262.375 222.168 263.095 222.008H263.142V222.952C262.983 223.016 262.775 223.08 262.439 223.08ZM258.535 222.168C260.263 222.168 261.047 220.904 261.047 219.944V218.536C260.615 218.808 259.863 219.016 259.159 219.144C257.863 219.384 256.823 219.608 256.823 220.824C256.823 221.928 257.687 222.168 258.535 222.168ZM264.999 225.736C264.503 225.736 264.183 225.704 263.831 225.56V224.408H263.895C264.071 224.504 264.343 224.584 264.775 224.584C265.319 224.584 265.687 224.376 266.007 223.576L266.327 222.76L263.095 214.728H264.503L266.455 219.88C266.711 220.568 267.015 221.496 267.015 221.496H267.047C267.047 221.496 267.335 220.568 267.591 219.88L269.479 214.728H270.855L267.319 223.672C266.647 225.384 266.007 225.736 264.999 225.736ZM274.653 220.232C274.669 218.472 275.117 217.656 276.333 216.584C277.037 215.96 277.661 215.464 277.661 214.424C277.661 213.4 276.909 212.504 275.501 212.504C273.853 212.504 273.085 213.608 273.037 215.24H271.725C271.773 213.064 272.877 211.352 275.549 211.352C277.805 211.352 279.037 212.728 279.037 214.408C279.037 215.72 278.317 216.472 277.565 217.096C276.237 218.2 275.885 218.6 275.869 220.232H274.653ZM274.477 223V221.416H276.029V223H274.477Z" fill="black"/>
<path d="M202 160.657L199.375 159.771C196.713 158.873 194.623 156.783 193.725 154.121L192.839 151.496H191.295L190.409 154.121C189.511 156.783 187.421 158.873 184.759 159.771L182.134 160.657V162.201L184.759 163.087C187.421 163.985 189.511 166.075 190.409 168.737L191.295 171.362H192.839L193.725 168.737C194.623 166.075 196.713 163.985 199.375 163.087L202 162.201V160.657Z" fill="black"/>
<path d="M187.11 173.362L185.645 172.868C183.871 172.269 182.477 170.876 181.879 169.101L181.384 167.637H180.419L179.925 169.101C179.326 170.876 177.933 172.269 176.158 172.868L174.694 173.362V174.327L176.158 174.822C177.933 175.42 179.326 176.814 179.925 178.588L180.419 180.053H181.384L181.879 178.588C182.477 176.814 183.871 175.42 185.645 174.822L187.11 174.327V173.362Z" fill="black"/>
<g filter="url(#filter24_d_6296_3399)">
<rect x="50" y="248" width="276" height="44" rx="22" fill="white" shape-rendering="crispEdges"/>
<rect x="50" y="248" width="276" height="44" rx="22" stroke="black" shape-rendering="crispEdges"/>
<path d="M72 264V276" stroke="black" stroke-width="1.1"/>
<path d="M78.005 269.995L66.005 269.995" stroke="black" stroke-width="1.1"/>
<path opacity="0.5" d="M90.12 274L93.276 265.42H94.488L97.656 274H96.48L95.568 271.384H92.148L91.224 274H90.12ZM93.48 267.628L92.46 270.508H95.268L94.284 267.628C94.116 267.148 93.9 266.416 93.9 266.416H93.876C93.876 266.416 93.648 267.136 93.48 267.628ZM100.735 274.18C99.0307 274.18 98.0827 273.376 97.9867 271.984H98.9827C99.1147 273.064 99.8347 273.364 100.759 273.364C101.779 273.364 102.199 272.92 102.199 272.344C102.199 271.648 101.719 271.468 100.579 271.228C99.3547 270.976 98.2627 270.724 98.2627 269.368C98.2627 268.336 99.0547 267.664 100.495 267.664C102.031 267.664 102.787 268.396 102.931 269.608H101.935C101.839 268.792 101.395 268.432 100.471 268.432C99.5827 268.432 99.2227 268.828 99.2227 269.32C99.2227 269.992 99.8227 270.124 100.891 270.34C102.139 270.592 103.183 270.868 103.183 272.296C103.183 273.544 102.163 274.18 100.735 274.18ZM108.193 274L105.997 270.652L105.085 271.516V274H104.113V265.42H105.085V270.448L107.809 267.796H109.045L106.669 270.028L109.333 274H108.193ZM116.766 274.06C116.13 274.06 115.794 273.772 115.698 273.136H115.686C115.314 273.616 114.678 274.12 113.622 274.12C112.446 274.12 111.522 273.568 111.522 272.392C111.522 270.928 112.674 270.628 114.222 270.388C115.098 270.256 115.71 270.172 115.71 269.5C115.71 268.804 115.206 268.408 114.318 268.408C113.31 268.408 112.806 268.84 112.77 269.776H111.834C111.87 268.576 112.662 267.676 114.306 267.676C115.626 267.676 116.598 268.168 116.598 269.644V272.596C116.598 273.1 116.718 273.376 117.258 273.256H117.294V273.964C117.174 274.012 117.018 274.06 116.766 274.06ZM113.838 273.376C115.134 273.376 115.722 272.428 115.722 271.708V270.652C115.398 270.856 114.834 271.012 114.306 271.108C113.334 271.288 112.554 271.456 112.554 272.368C112.554 273.196 113.202 273.376 113.838 273.376ZM118.984 267.796V268.612H119.008C119.452 268.024 120.076 267.652 120.976 267.652C122.272 267.652 123.064 268.36 123.064 269.644V274H122.092V269.728C122.092 268.924 121.564 268.468 120.688 268.468C119.704 268.468 118.984 269.164 118.984 270.184V274H118.012V267.796H118.984ZM125.026 276.052C124.654 276.052 124.414 276.028 124.15 275.92V275.056H124.198C124.33 275.128 124.534 275.188 124.858 275.188C125.266 275.188 125.542 275.032 125.782 274.432L126.022 273.82L123.598 267.796H124.654L126.118 271.66C126.31 272.176 126.538 272.872 126.538 272.872H126.562C126.562 272.872 126.778 272.176 126.97 271.66L128.386 267.796H129.418L126.766 274.504C126.262 275.788 125.782 276.052 125.026 276.052ZM129.827 268.588V267.796H130.727V265.84H131.699V267.796H132.899V268.588H131.699V272.62C131.699 273.052 131.927 273.196 132.323 273.196C132.515 273.196 132.73 273.148 132.839 273.112H132.875V273.952C132.646 274 132.383 274.036 132.095 274.036C131.303 274.036 130.727 273.712 130.727 272.836V268.588H129.827ZM134.874 265.42V268.612H134.898C135.342 268.024 135.966 267.652 136.866 267.652C138.162 267.652 138.954 268.36 138.954 269.644V274H137.982V269.728C137.982 268.924 137.454 268.468 136.578 268.468C135.594 268.468 134.874 269.164 134.874 270.184V274H133.902V265.42H134.874ZM140.242 274V267.796H141.214V274H140.242ZM140.242 266.62V265.42H141.214V266.62H140.242ZM143.511 267.796V268.612H143.535C143.979 268.024 144.603 267.652 145.503 267.652C146.799 267.652 147.591 268.36 147.591 269.644V274H146.619V269.728C146.619 268.924 146.091 268.468 145.215 268.468C144.231 268.468 143.511 269.164 143.511 270.184V274H142.539V267.796H143.511ZM151.351 276.064C149.743 276.064 148.831 275.416 148.723 274.348H149.623C149.719 275.032 150.367 275.296 151.327 275.296C152.467 275.296 153.103 274.78 153.103 273.7V272.824H153.079C152.623 273.412 152.131 273.784 151.243 273.784C149.635 273.784 148.531 272.5 148.531 270.712C148.531 268.78 149.743 267.652 151.183 267.652C152.083 267.652 152.659 268 153.079 268.588H153.103V267.796H154.075V273.664C154.075 275.296 152.995 276.064 151.351 276.064ZM151.291 272.968C152.719 272.968 153.175 271.972 153.175 270.664C153.175 269.308 152.599 268.468 151.279 268.468C150.115 268.468 149.527 269.38 149.527 270.724C149.527 272.08 150.139 272.968 151.291 272.968ZM155.262 274V272.812H156.426V274H155.262ZM157.477 274V272.812H158.641V274H157.477ZM159.692 274V272.812H160.856V274H159.692Z" fill="black"/>
<path d="M274 264.55C274.801 264.55 275.45 265.199 275.45 266V270C275.45 270.801 274.801 271.45 274 271.45C273.199 271.45 272.55 270.801 272.55 270V266C272.55 265.199 273.199 264.55 274 264.55Z" stroke="black" stroke-width="1.1"/>
<path d="M274 274V276" stroke="black" stroke-width="1.1"/>
<path d="M270 269V270C270 272.209 271.791 274 274 274C276.209 274 278 272.209 278 270V269" stroke="black" stroke-width="1.1"/>
<rect x="290" y="256" width="28" height="28" rx="14" fill="black"/>
<rect x="298.75" y="267" width="1.5" height="6" rx="0.75" fill="white"/>
<rect x="301.75" y="265.379" width="1.5" height="9.24219" rx="0.75" fill="white"/>
<rect x="304.75" y="267" width="1.5" height="6" rx="0.75" fill="white"/>
<rect x="307.75" y="267.811" width="1.5" height="4.37891" rx="0.75" fill="white"/>
</g>
<rect x="38" y="354" width="88" height="28" rx="14" fill="white" fill-opacity="0.6"/>
<path d="M54.4565 371L54.1965 370.06H54.1765C53.6565 370.79 52.8865 371.15 51.9465 371.15C49.9365 371.15 48.5865 369.62 48.5865 367.45C48.5865 365.35 49.7765 363.7 52.0265 363.7C53.6865 363.7 54.7065 364.6 54.9365 366H54.0065C53.8065 365.05 53.1365 364.48 52.0065 364.48C50.2865 364.48 49.5065 365.77 49.5065 367.45C49.5065 369.2 50.5265 370.37 51.9765 370.37C53.4465 370.37 54.1365 369.37 54.1365 368.17V368H51.9865V367.22H55.0365V371H54.4565ZM58.3684 371.14C56.7884 371.14 55.8684 369.92 55.8684 368.42C55.8684 366.92 56.8484 365.7 58.3184 365.7C59.8684 365.7 60.6984 366.9 60.6984 368.61H56.6984C56.7584 369.66 57.3284 370.46 58.3684 370.46C59.1184 370.46 59.6184 370.1 59.7984 369.4H60.5884C60.3484 370.51 59.5384 371.14 58.3684 371.14ZM58.3184 366.34C57.3584 366.34 56.8384 367.06 56.7184 368H59.8284C59.7784 366.97 59.2484 366.34 58.3184 366.34ZM62.3004 365.83V366.51H62.3204C62.6904 366.02 63.2104 365.71 63.9604 365.71C65.0404 365.71 65.7004 366.3 65.7004 367.37V371H64.8904V367.44C64.8904 366.77 64.4504 366.39 63.7204 366.39C62.9004 366.39 62.3004 366.97 62.3004 367.82V371H61.4904V365.83H62.3004ZM68.9836 371.14C67.4036 371.14 66.4836 369.92 66.4836 368.42C66.4836 366.92 67.4636 365.7 68.9336 365.7C70.4836 365.7 71.3136 366.9 71.3136 368.61H67.3136C67.3736 369.66 67.9436 370.46 68.9836 370.46C69.7336 370.46 70.2336 370.1 70.4136 369.4H71.2036C70.9636 370.51 70.1536 371.14 68.9836 371.14ZM68.9336 366.34C67.9736 366.34 67.4536 367.06 67.3336 368H70.4436C70.3936 366.97 69.8636 366.34 68.9336 366.34ZM72.9157 365.83V366.69H72.9357C73.2457 366.19 73.7857 365.77 74.4757 365.77C74.6257 365.77 74.7057 365.79 74.8057 365.83V366.61H74.7757C74.6557 366.57 74.5757 366.56 74.4157 366.56C73.6157 366.56 72.9157 367.16 72.9157 368.13V371H72.1057V365.83H72.9157ZM79.3981 371.05C78.8681 371.05 78.5881 370.81 78.5081 370.28H78.4981C78.1881 370.68 77.6581 371.1 76.7781 371.1C75.7981 371.1 75.0281 370.64 75.0281 369.66C75.0281 368.44 75.9881 368.19 77.2781 367.99C78.0081 367.88 78.5181 367.81 78.5181 367.25C78.5181 366.67 78.0981 366.34 77.3581 366.34C76.5181 366.34 76.0981 366.7 76.0681 367.48H75.2881C75.3181 366.48 75.9781 365.73 77.3481 365.73C78.4481 365.73 79.2581 366.14 79.2581 367.37V369.83C79.2581 370.25 79.3581 370.48 79.8081 370.38H79.8381V370.97C79.7381 371.01 79.6081 371.05 79.3981 371.05ZM76.9581 370.48C78.0381 370.48 78.5281 369.69 78.5281 369.09V368.21C78.2581 368.38 77.7881 368.51 77.3481 368.59C76.5381 368.74 75.8881 368.88 75.8881 369.64C75.8881 370.33 76.4281 370.48 76.9581 370.48ZM80.0081 366.49V365.83H80.7581V364.2H81.5681V365.83H82.5681V366.49H81.5681V369.85C81.5681 370.21 81.7581 370.33 82.0881 370.33C82.2481 370.33 82.4281 370.29 82.5181 370.26H82.5481V370.96C82.3581 371 82.1381 371.03 81.8981 371.03C81.2381 371.03 80.7581 370.76 80.7581 370.03V366.49H80.0081ZM85.5657 371.14C83.9857 371.14 83.0657 369.92 83.0657 368.42C83.0657 366.92 84.0457 365.7 85.5157 365.7C87.0657 365.7 87.8957 366.9 87.8957 368.61H83.8957C83.9557 369.66 84.5257 370.46 85.5657 370.46C86.3157 370.46 86.8157 370.1 86.9957 369.4H87.7857C87.5457 370.51 86.7357 371.14 85.5657 371.14ZM85.5157 366.34C84.5557 366.34 84.0357 367.06 83.9157 368H87.0257C86.9757 366.97 86.4457 366.34 85.5157 366.34ZM91.0895 365.83V366.69H91.1095C91.4195 366.19 91.9595 365.77 92.6495 365.77C92.7995 365.77 92.8795 365.79 92.9795 365.83V366.61H92.9495C92.8295 366.57 92.7495 366.56 92.5895 366.56C91.7895 366.56 91.0895 367.16 91.0895 368.13V371H90.2795V365.83H91.0895ZM95.7219 371.14C94.1419 371.14 93.2219 369.92 93.2219 368.42C93.2219 366.92 94.2019 365.7 95.6719 365.7C97.2219 365.7 98.0519 366.9 98.0519 368.61H94.0519C94.1119 369.66 94.6819 370.46 95.7219 370.46C96.4719 370.46 96.9719 370.1 97.1519 369.4H97.9419C97.7019 370.51 96.8919 371.14 95.7219 371.14ZM95.6719 366.34C94.7119 366.34 94.1919 367.06 94.0719 368H97.1819C97.1319 366.97 96.6019 366.34 95.6719 366.34ZM98.8439 372.66V365.83H99.6539V366.56H99.6739C100.064 366.03 100.584 365.71 101.334 365.71C102.644 365.71 103.554 366.71 103.554 368.43C103.554 370.09 102.704 371.15 101.304 371.15C100.604 371.15 100.104 370.94 99.6739 370.39H99.6539V372.66H98.8439ZM101.244 370.47C102.234 370.47 102.724 369.61 102.724 368.44C102.724 367.28 102.234 366.4 101.254 366.4C100.124 366.4 99.6039 367.32 99.6039 368.44C99.6039 369.56 100.054 370.47 101.244 370.47ZM106.572 371.14C105.032 371.14 104.072 369.92 104.072 368.42C104.072 366.92 105.032 365.7 106.572 365.7C108.122 365.7 109.062 366.92 109.062 368.42C109.062 369.92 108.122 371.14 106.572 371.14ZM106.572 370.46C107.672 370.46 108.232 369.56 108.232 368.42C108.232 367.28 107.672 366.37 106.572 366.37C105.472 366.37 104.902 367.28 104.902 368.42C104.902 369.56 105.472 370.46 106.572 370.46ZM110.679 365.83V366.69H110.699C111.009 366.19 111.549 365.77 112.239 365.77C112.389 365.77 112.469 365.79 112.569 365.83V366.61H112.539C112.419 366.57 112.339 366.56 112.179 366.56C111.379 366.56 110.679 367.16 110.679 368.13V371H109.869V365.83H110.679ZM112.967 366.49V365.83H113.717V364.2H114.527V365.83H115.527V366.49H114.527V369.85C114.527 370.21 114.717 370.33 115.047 370.33C115.207 370.33 115.387 370.29 115.477 370.26H115.507V370.96C115.317 371 115.097 371.03 114.857 371.03C114.197 371.03 113.717 370.76 113.717 370.03V366.49H112.967Z" fill="black"/>
<rect x="134" y="354" width="101" height="28" rx="14" fill="white" fill-opacity="0.6"/>
<path d="M144.672 371V363.85H147.702C148.452 363.85 149.022 364.05 149.422 364.47C149.712 364.77 149.882 365.18 149.882 365.69C149.882 366.48 149.442 366.97 148.732 367.19V367.22C149.542 367.41 150.172 367.99 150.172 368.95C150.172 369.5 149.982 369.97 149.652 370.32C149.252 370.75 148.632 371 147.862 371H144.672ZM145.572 370.19H147.822C148.332 370.19 148.702 370.06 148.942 369.83C149.142 369.62 149.262 369.34 149.262 369C149.262 368.11 148.632 367.67 147.762 367.67H145.572V370.19ZM145.572 366.91H147.592C148.462 366.91 148.982 366.48 148.982 365.74C148.982 365.05 148.512 364.63 147.712 364.63H145.572V366.91ZM155.088 371H154.278V370.29H154.258C153.888 370.79 153.448 371.12 152.698 371.12C151.638 371.12 150.958 370.48 150.958 369.41V365.83H151.768V369.39C151.768 370.06 152.198 370.45 152.928 370.45C153.748 370.45 154.278 369.83 154.278 369.01V365.83H155.088V371ZM156.183 371V365.83H156.993V371H156.183ZM156.183 364.85V363.85H156.993V364.85H156.183ZM158.127 371V363.85H158.937V371H158.127ZM159.74 366.49V365.83H160.49V364.2H161.3V365.83H162.3V366.49H161.3V369.85C161.3 370.21 161.49 370.33 161.82 370.33C161.98 370.33 162.16 370.29 162.25 370.26H162.28V370.96C162.09 371 161.87 371.03 161.63 371.03C160.97 371.03 160.49 370.76 160.49 370.03V366.49H159.74ZM164.728 372.66V365.83H165.538V366.56H165.558C165.948 366.03 166.468 365.71 167.218 365.71C168.528 365.71 169.438 366.71 169.438 368.43C169.438 370.09 168.588 371.15 167.188 371.15C166.488 371.15 165.988 370.94 165.558 370.39H165.538V372.66H164.728ZM167.128 370.47C168.118 370.47 168.608 369.61 168.608 368.44C168.608 367.28 168.118 366.4 167.138 366.4C166.008 366.4 165.488 367.32 165.488 368.44C165.488 369.56 165.938 370.47 167.128 370.47ZM174.305 371.05C173.775 371.05 173.495 370.81 173.415 370.28H173.405C173.095 370.68 172.565 371.1 171.685 371.1C170.705 371.1 169.935 370.64 169.935 369.66C169.935 368.44 170.895 368.19 172.185 367.99C172.915 367.88 173.425 367.81 173.425 367.25C173.425 366.67 173.005 366.34 172.265 366.34C171.425 366.34 171.005 366.7 170.975 367.48H170.195C170.225 366.48 170.885 365.73 172.255 365.73C173.355 365.73 174.165 366.14 174.165 367.37V369.83C174.165 370.25 174.265 370.48 174.715 370.38H174.745V370.97C174.645 371.01 174.515 371.05 174.305 371.05ZM171.865 370.48C172.945 370.48 173.435 369.69 173.435 369.09V368.21C173.165 368.38 172.695 368.51 172.255 368.59C171.445 368.74 170.795 368.88 170.795 369.64C170.795 370.33 171.335 370.48 171.865 370.48ZM175.905 372.71C175.595 372.71 175.395 372.69 175.175 372.6V371.88H175.215C175.325 371.94 175.495 371.99 175.765 371.99C176.105 371.99 176.335 371.86 176.535 371.36L176.735 370.85L174.715 365.83H175.595L176.815 369.05C176.975 369.48 177.165 370.06 177.165 370.06H177.185C177.185 370.06 177.365 369.48 177.525 369.05L178.705 365.83H179.565L177.355 371.42C176.935 372.49 176.535 372.71 175.905 372.71ZM180.138 371V365.83H180.948V366.57H180.968C181.288 366.07 181.838 365.71 182.488 365.71C183.118 365.71 183.618 366.03 183.838 366.63H183.858C184.188 366.04 184.808 365.71 185.438 365.71C186.358 365.71 187.008 366.3 187.008 367.37V371H186.198V367.41C186.198 366.77 185.768 366.39 185.248 366.39C184.578 366.39 183.978 366.97 183.978 367.78V371H183.168V367.41C183.168 366.77 182.808 366.39 182.278 366.39C181.648 366.39 180.948 366.97 180.948 367.78V371H180.138ZM190.287 371.14C188.707 371.14 187.787 369.92 187.787 368.42C187.787 366.92 188.767 365.7 190.237 365.7C191.787 365.7 192.617 366.9 192.617 368.61H188.617C188.677 369.66 189.247 370.46 190.287 370.46C191.037 370.46 191.537 370.1 191.717 369.4H192.507C192.267 370.51 191.457 371.14 190.287 371.14ZM190.237 366.34C189.277 366.34 188.757 367.06 188.637 368H191.747C191.697 366.97 191.167 366.34 190.237 366.34ZM194.219 365.83V366.51H194.239C194.609 366.02 195.129 365.71 195.879 365.71C196.959 365.71 197.619 366.3 197.619 367.37V371H196.809V367.44C196.809 366.77 196.369 366.39 195.639 366.39C194.819 366.39 194.219 366.97 194.219 367.82V371H193.409V365.83H194.219ZM198.265 366.49V365.83H199.015V364.2H199.825V365.83H200.825V366.49H199.825V369.85C199.825 370.21 200.015 370.33 200.345 370.33C200.505 370.33 200.685 370.29 200.775 370.26H200.805V370.96C200.615 371 200.395 371.03 200.155 371.03C199.495 371.03 199.015 370.76 199.015 370.03V366.49H198.265ZM206.123 371V363.85H206.933V371H206.123ZM202.923 366.49V365.83H203.633V365C203.633 364.11 204.143 363.79 205.003 363.79C205.173 363.79 205.303 363.8 205.413 363.81V364.5C205.273 364.49 205.233 364.49 205.153 364.49C204.633 364.49 204.443 364.62 204.443 365.04V365.83H205.403V366.49H204.443V371H203.633V366.49H202.923ZM210.278 371.14C208.738 371.14 207.778 369.92 207.778 368.42C207.778 366.92 208.738 365.7 210.278 365.7C211.828 365.7 212.768 366.92 212.768 368.42C212.768 369.92 211.828 371.14 210.278 371.14ZM210.278 370.46C211.378 370.46 211.938 369.56 211.938 368.42C211.938 367.28 211.378 366.37 210.278 366.37C209.178 366.37 208.608 367.28 208.608 368.42C208.608 369.56 209.178 370.46 210.278 370.46ZM214.608 371L212.968 365.83H213.838L214.748 369.02C214.868 369.45 215.028 370.13 215.028 370.13H215.048C215.048 370.13 215.198 369.45 215.308 369.04L216.178 365.83H217.028L217.868 369.04C217.978 369.46 218.118 370.13 218.118 370.13H218.138C218.138 370.13 218.298 369.45 218.428 369.02L219.388 365.83H220.228L218.538 371H217.708L216.848 367.87C216.728 367.44 216.598 366.79 216.598 366.79H216.578C216.578 366.79 216.438 367.44 216.318 367.87L215.448 371H214.608ZM222.733 371.15C221.313 371.15 220.523 370.48 220.443 369.32H221.273C221.383 370.22 221.983 370.47 222.753 370.47C223.603 370.47 223.953 370.1 223.953 369.62C223.953 369.04 223.553 368.89 222.603 368.69C221.583 368.48 220.673 368.27 220.673 367.14C220.673 366.28 221.333 365.72 222.533 365.72C223.813 365.72 224.443 366.33 224.563 367.34H223.733C223.653 366.66 223.283 366.36 222.513 366.36C221.773 366.36 221.473 366.69 221.473 367.1C221.473 367.66 221.973 367.77 222.863 367.95C223.903 368.16 224.773 368.39 224.773 369.58C224.773 370.62 223.923 371.15 222.733 371.15Z" fill="black"/>
<rect x="243" y="354" width="95" height="28" rx="14" fill="white" fill-opacity="0.6"/>
<path d="M253.535 371L256.165 363.85H257.175L259.815 371H258.835L258.075 368.82H255.225L254.455 371H253.535ZM256.335 365.69L255.485 368.09H257.825L257.005 365.69C256.865 365.29 256.685 364.68 256.685 364.68H256.665C256.665 364.68 256.475 365.28 256.335 365.69ZM261.279 365.83V366.51H261.299C261.669 366.02 262.189 365.71 262.939 365.71C264.019 365.71 264.679 366.3 264.679 367.37V371H263.869V367.44C263.869 366.77 263.429 366.39 262.699 366.39C261.879 366.39 261.279 366.97 261.279 367.82V371H260.469V365.83H261.279ZM269.812 371.05C269.282 371.05 269.002 370.81 268.922 370.28H268.912C268.602 370.68 268.072 371.1 267.192 371.1C266.212 371.1 265.442 370.64 265.442 369.66C265.442 368.44 266.402 368.19 267.692 367.99C268.422 367.88 268.932 367.81 268.932 367.25C268.932 366.67 268.512 366.34 267.772 366.34C266.932 366.34 266.512 366.7 266.482 367.48H265.702C265.732 366.48 266.392 365.73 267.762 365.73C268.862 365.73 269.672 366.14 269.672 367.37V369.83C269.672 370.25 269.772 370.48 270.222 370.38H270.252V370.97C270.152 371.01 270.022 371.05 269.812 371.05ZM267.372 370.48C268.452 370.48 268.942 369.69 268.942 369.09V368.21C268.672 368.38 268.202 368.51 267.762 368.59C266.952 368.74 266.302 368.88 266.302 369.64C266.302 370.33 266.842 370.48 267.372 370.48ZM270.88 371V363.85H271.69V371H270.88ZM273.482 372.71C273.172 372.71 272.972 372.69 272.752 372.6V371.88H272.792C272.902 371.94 273.072 371.99 273.342 371.99C273.682 371.99 273.912 371.86 274.112 371.36L274.312 370.85L272.292 365.83H273.172L274.392 369.05C274.552 369.48 274.742 370.06 274.742 370.06H274.762C274.762 370.06 274.942 369.48 275.102 369.05L276.282 365.83H277.142L274.932 371.42C274.512 372.49 274.112 372.71 273.482 372.71ZM277.407 371V370.36L280.287 366.57V366.54H277.577V365.83H281.417V366.31L278.447 370.23V370.26H281.527V371H277.407ZM284.339 371.14C282.759 371.14 281.839 369.92 281.839 368.42C281.839 366.92 282.819 365.7 284.289 365.7C285.839 365.7 286.669 366.9 286.669 368.61H282.669C282.729 369.66 283.299 370.46 284.339 370.46C285.089 370.46 285.589 370.1 285.769 369.4H286.559C286.319 370.51 285.509 371.14 284.339 371.14ZM284.289 366.34C283.329 366.34 282.809 367.06 282.689 368H285.799C285.749 366.97 285.219 366.34 284.289 366.34ZM291.013 371.15C289.593 371.15 288.803 370.48 288.723 369.32H289.553C289.663 370.22 290.263 370.47 291.033 370.47C291.883 370.47 292.233 370.1 292.233 369.62C292.233 369.04 291.833 368.89 290.883 368.69C289.863 368.48 288.953 368.27 288.953 367.14C288.953 366.28 289.613 365.72 290.813 365.72C292.093 365.72 292.723 366.33 292.843 367.34H292.013C291.933 366.66 291.563 366.36 290.793 366.36C290.053 366.36 289.753 366.69 289.753 367.1C289.753 367.66 290.253 367.77 291.143 367.95C292.183 368.16 293.053 368.39 293.053 369.58C293.053 370.62 292.203 371.15 291.013 371.15ZM293.828 372.66V365.83H294.638V366.56H294.658C295.048 366.03 295.568 365.71 296.318 365.71C297.628 365.71 298.538 366.71 298.538 368.43C298.538 370.09 297.688 371.15 296.288 371.15C295.588 371.15 295.088 370.94 294.658 370.39H294.638V372.66H293.828ZM296.228 370.47C297.218 370.47 297.708 369.61 297.708 368.44C297.708 367.28 297.218 366.4 296.238 366.4C295.108 366.4 294.588 367.32 294.588 368.44C294.588 369.56 295.038 370.47 296.228 370.47ZM301.556 371.14C299.976 371.14 299.056 369.92 299.056 368.42C299.056 366.92 300.036 365.7 301.506 365.7C303.056 365.7 303.886 366.9 303.886 368.61H299.886C299.946 369.66 300.516 370.46 301.556 370.46C302.306 370.46 302.806 370.1 302.986 369.4H303.776C303.536 370.51 302.726 371.14 301.556 371.14ZM301.506 366.34C300.546 366.34 300.026 367.06 299.906 368H303.016C302.966 366.97 302.436 366.34 301.506 366.34ZM305.488 365.83V366.51H305.508C305.878 366.02 306.398 365.71 307.148 365.71C308.228 365.71 308.888 366.3 308.888 367.37V371H308.078V367.44C308.078 366.77 307.638 366.39 306.908 366.39C306.088 366.39 305.488 366.97 305.488 367.82V371H304.678V365.83H305.488ZM311.961 371.15C310.551 371.15 309.671 370.09 309.671 368.43C309.671 366.71 310.661 365.71 311.941 365.71C312.671 365.71 313.231 366.07 313.561 366.56H313.581V363.85H314.391V371H313.581V370.37H313.561C313.171 370.87 312.691 371.15 311.961 371.15ZM311.991 370.47C313.141 370.47 313.631 369.61 313.631 368.44C313.631 367.24 313.051 366.4 311.981 366.4C311.001 366.4 310.501 367.28 310.501 368.44C310.501 369.61 311.001 370.47 311.991 370.47ZM315.488 371V365.83H316.298V371H315.488ZM315.488 364.85V363.85H316.298V364.85H315.488ZM318.213 365.83V366.51H318.233C318.603 366.02 319.123 365.71 319.873 365.71C320.953 365.71 321.613 366.3 321.613 367.37V371H320.803V367.44C320.803 366.77 320.363 366.39 319.633 366.39C318.813 366.39 318.213 366.97 318.213 367.82V371H317.403V365.83H318.213ZM324.746 372.72C323.406 372.72 322.646 372.18 322.556 371.29H323.306C323.386 371.86 323.926 372.08 324.726 372.08C325.676 372.08 326.206 371.65 326.206 370.75V370.02H326.186C325.806 370.51 325.396 370.82 324.656 370.82C323.316 370.82 322.396 369.75 322.396 368.26C322.396 366.65 323.406 365.71 324.606 365.71C325.356 365.71 325.836 366 326.186 366.49H326.206V365.83H327.016V370.72C327.016 372.08 326.116 372.72 324.746 372.72ZM324.696 370.14C325.886 370.14 326.266 369.31 326.266 368.22C326.266 367.09 325.786 366.39 324.686 366.39C323.716 366.39 323.226 367.15 323.226 368.27C323.226 369.4 323.736 370.14 324.696 370.14Z" fill="black"/>
</g>
<defs>
<filter id="filter0_f_6296_3399" x="182.757" y="123.4" width="451.175" height="279.2" filterUnits="userSpaceOnUse" color-interpolation-filters="sRGB">
<feFlood flood-opacity="0" result="BackgroundImageFix"/>
<feBlend mode="normal" in="SourceGraphic" in2="BackgroundImageFix" result="shape"/>
<feGaussianBlur stdDeviation="9.8" result="effect1_foregroundBlur_6296_3399"/>
</filter>
<filter id="filter1_f_6296_3399" x="-289.268" y="371.4" width="832.426" height="325.864" filterUnits="userSpaceOnUse" color-interpolation-filters="sRGB">
<feFlood flood-opacity="0" result="BackgroundImageFix"/>
<feBlend mode="normal" in="SourceGraphic" in2="BackgroundImageFix" result="shape"/>
<feGaussianBlur stdDeviation="9.8" result="effect1_foregroundBlur_6296_3399"/>
</filter>
<filter id="filter2_f_6296_3399" x="-146.835" y="210.592" width="865.966" height="522.208" filterUnits="userSpaceOnUse" color-interpolation-filters="sRGB">
<feFlood flood-opacity="0" result="BackgroundImageFix"/>
<feBlend mode="normal" in="SourceGraphic" in2="BackgroundImageFix" result="shape"/>
<feGaussianBlur stdDeviation="52.4" result="effect1_foregroundBlur_6296_3399"/>
</filter>
<filter id="filter3_f_6296_3399" x="-28.1182" y="180.4" width="435.813" height="203.2" filterUnits="userSpaceOnUse" color-interpolation-filters="sRGB">
<feFlood flood-opacity="0" result="BackgroundImageFix"/>
<feBlend mode="normal" in="SourceGraphic" in2="BackgroundImageFix" result="shape"/>
<feGaussianBlur stdDeviation="9.8" result="effect1_foregroundBlur_6296_3399"/>
</filter>
<filter id="filter4_f_6296_3399" x="-55.815" y="192.171" width="382.021" height="218.186" filterUnits="userSpaceOnUse" color-interpolation-filters="sRGB">
<feFlood flood-opacity="0" result="BackgroundImageFix"/>
<feBlend mode="normal" in="SourceGraphic" in2="BackgroundImageFix" result="shape"/>
<feGaussianBlur stdDeviation="19.95" result="effect1_foregroundBlur_6296_3399"/>
</filter>
<filter id="filter5_f_6296_3399" x="182.757" y="123.4" width="451.175" height="279.2" filterUnits="userSpaceOnUse" color-interpolation-filters="sRGB">
<feFlood flood-opacity="0" result="BackgroundImageFix"/>
<feBlend mode="normal" in="SourceGraphic" in2="BackgroundImageFix" result="shape"/>
<feGaussianBlur stdDeviation="9.8" result="effect1_foregroundBlur_6296_3399"/>
</filter>
<filter id="filter6_f_6296_3399" x="-289.268" y="371.4" width="832.426" height="325.864" filterUnits="userSpaceOnUse" color-interpolation-filters="sRGB">
<feFlood flood-opacity="0" result="BackgroundImageFix"/>
<feBlend mode="normal" in="SourceGraphic" in2="BackgroundImageFix" result="shape"/>
<feGaussianBlur stdDeviation="9.8" result="effect1_foregroundBlur_6296_3399"/>
</filter>
<filter id="filter7_f_6296_3399" x="-146.835" y="210.592" width="865.966" height="522.208" filterUnits="userSpaceOnUse" color-interpolation-filters="sRGB">
<feFlood flood-opacity="0" result="BackgroundImageFix"/>
<feBlend mode="normal" in="SourceGraphic" in2="BackgroundImageFix" result="shape"/>
<feGaussianBlur stdDeviation="52.4" result="effect1_foregroundBlur_6296_3399"/>
</filter>
<filter id="filter8_f_6296_3399" x="-28.1182" y="180.4" width="435.813" height="203.2" filterUnits="userSpaceOnUse" color-interpolation-filters="sRGB">
<feFlood flood-opacity="0" result="BackgroundImageFix"/>
<feBlend mode="normal" in="SourceGraphic" in2="BackgroundImageFix" result="shape"/>
<feGaussianBlur stdDeviation="9.8" result="effect1_foregroundBlur_6296_3399"/>
</filter>
<filter id="filter9_f_6296_3399" x="-55.815" y="192.171" width="382.021" height="218.186" filterUnits="userSpaceOnUse" color-interpolation-filters="sRGB">
<feFlood flood-opacity="0" result="BackgroundImageFix"/>
<feBlend mode="normal" in="SourceGraphic" in2="BackgroundImageFix" result="shape"/>
<feGaussianBlur stdDeviation="19.95" result="effect1_foregroundBlur_6296_3399"/>
</filter>
<filter id="filter10_g_6296_3399" x="-611.073" y="-124.073" width="1598.15" height="464.147" filterUnits="userSpaceOnUse" color-interpolation-filters="sRGB">
<feFlood flood-opacity="0" result="BackgroundImageFix"/>
<feBlend mode="normal" in="SourceGraphic" in2="BackgroundImageFix" result="shape"/>
<feTurbulence type="fractalNoise" baseFrequency="0.99900001287460327 0.99900001287460327" numOctaves="3" seed="8546" />
<feDisplacementMap in="shape" scale="60.146877288818359" xChannelSelector="R" yChannelSelector="G" result="displacedImage" width="100%" height="100%" />
<feMerge result="effect1_texture_6296_3399">
<feMergeNode in="displacedImage"/>
</feMerge>
</filter>
<filter id="filter11_f_6296_3399" x="-595.81" y="113.842" width="746.381" height="210.968" filterUnits="userSpaceOnUse" color-interpolation-filters="sRGB">
<feFlood flood-opacity="0" result="BackgroundImageFix"/>
<feBlend mode="normal" in="SourceGraphic" in2="BackgroundImageFix" result="shape"/>
<feGaussianBlur stdDeviation="7.40502" result="effect1_foregroundBlur_6296_3399"/>
</filter>
<filter id="filter12_f_6296_3399" x="-437.878" y="-108.81" width="1409.69" height="246.227" filterUnits="userSpaceOnUse" color-interpolation-filters="sRGB">
<feFlood flood-opacity="0" result="BackgroundImageFix"/>
<feBlend mode="normal" in="SourceGraphic" in2="BackgroundImageFix" result="shape"/>
<feGaussianBlur stdDeviation="7.40502" result="effect1_foregroundBlur_6296_3399"/>
</filter>
<filter id="filter13_f_6296_3399" x="-660.188" y="-135.661" width="1300.33" height="394.588" filterUnits="userSpaceOnUse" color-interpolation-filters="sRGB">
<feFlood flood-opacity="0" result="BackgroundImageFix"/>
<feBlend mode="normal" in="SourceGraphic" in2="BackgroundImageFix" result="shape"/>
<feGaussianBlur stdDeviation="39.5942" result="effect1_foregroundBlur_6296_3399"/>
</filter>
<filter id="filter14_f_6296_3399" x="-202.2" y="128.199" width="719.654" height="153.541" filterUnits="userSpaceOnUse" color-interpolation-filters="sRGB">
<feFlood flood-opacity="0" result="BackgroundImageFix"/>
<feBlend mode="normal" in="SourceGraphic" in2="BackgroundImageFix" result="shape"/>
<feGaussianBlur stdDeviation="7.40502" result="effect1_foregroundBlur_6296_3399"/>
</filter>
<filter id="filter15_f_6296_3399" x="-40.4477" y="107.981" width="586.108" height="164.864" filterUnits="userSpaceOnUse" color-interpolation-filters="sRGB">
<feFlood flood-opacity="0" result="BackgroundImageFix"/>
<feBlend mode="normal" in="SourceGraphic" in2="BackgroundImageFix" result="shape"/>
<feGaussianBlur stdDeviation="15.0745" result="effect1_foregroundBlur_6296_3399"/>
</filter>
<filter id="filter16_g_6296_3399" x="-611.073" y="-124.073" width="1598.15" height="464.147" filterUnits="userSpaceOnUse" color-interpolation-filters="sRGB">
<feFlood flood-opacity="0" result="BackgroundImageFix"/>
<feBlend mode="normal" in="SourceGraphic" in2="BackgroundImageFix" result="shape"/>
<feTurbulence type="fractalNoise" baseFrequency="0.99900001287460327 0.99900001287460327" numOctaves="3" seed="8546" />
<feDisplacementMap in="shape" scale="60.146877288818359" xChannelSelector="R" yChannelSelector="G" result="displacedImage" width="100%" height="100%" />
<feMerge result="effect1_texture_6296_3399">
<feMergeNode in="displacedImage"/>
</feMerge>
</filter>
<filter id="filter17_f_6296_3399" x="-595.81" y="113.842" width="746.381" height="210.968" filterUnits="userSpaceOnUse" color-interpolation-filters="sRGB">
<feFlood flood-opacity="0" result="BackgroundImageFix"/>
<feBlend mode="normal" in="SourceGraphic" in2="BackgroundImageFix" result="shape"/>
<feGaussianBlur stdDeviation="7.40502" result="effect1_foregroundBlur_6296_3399"/>
</filter>
<filter id="filter18_f_6296_3399" x="-437.878" y="-108.81" width="1409.69" height="246.227" filterUnits="userSpaceOnUse" color-interpolation-filters="sRGB">
<feFlood flood-opacity="0" result="BackgroundImageFix"/>
<feBlend mode="normal" in="SourceGraphic" in2="BackgroundImageFix" result="shape"/>
<feGaussianBlur stdDeviation="7.40502" result="effect1_foregroundBlur_6296_3399"/>
</filter>
<filter id="filter19_f_6296_3399" x="-660.188" y="-135.661" width="1300.33" height="394.588" filterUnits="userSpaceOnUse" color-interpolation-filters="sRGB">
<feFlood flood-opacity="0" result="BackgroundImageFix"/>
<feBlend mode="normal" in="SourceGraphic" in2="BackgroundImageFix" result="shape"/>
<feGaussianBlur stdDeviation="39.5942" result="effect1_foregroundBlur_6296_3399"/>
</filter>
<filter id="filter20_f_6296_3399" x="-202.2" y="128.199" width="719.654" height="153.541" filterUnits="userSpaceOnUse" color-interpolation-filters="sRGB">
<feFlood flood-opacity="0" result="BackgroundImageFix"/>
<feBlend mode="normal" in="SourceGraphic" in2="BackgroundImageFix" result="shape"/>
<feGaussianBlur stdDeviation="7.40502" result="effect1_foregroundBlur_6296_3399"/>
</filter>
<filter id="filter21_f_6296_3399" x="-40.4477" y="107.981" width="586.108" height="164.864" filterUnits="userSpaceOnUse" color-interpolation-filters="sRGB">
<feFlood flood-opacity="0" result="BackgroundImageFix"/>
<feBlend mode="normal" in="SourceGraphic" in2="BackgroundImageFix" result="shape"/>
<feGaussianBlur stdDeviation="15.0745" result="effect1_foregroundBlur_6296_3399"/>
</filter>
<filter id="filter24_d_6296_3399" x="47.5" y="247.5" width="281" height="49" filterUnits="userSpaceOnUse" color-interpolation-filters="sRGB">
<feFlood flood-opacity="0" result="BackgroundImageFix"/>
<feColorMatrix in="SourceAlpha" type="matrix" values="0 0 0 0 0 0 0 0 0 0 0 0 0 0 0 0 0 0 127 0" result="hardAlpha"/>
<feOffset dy="2"/>
<feGaussianBlur stdDeviation="1"/>
<feComposite in2="hardAlpha" operator="out"/>
<feColorMatrix type="matrix" values="0 0 0 0 0 0 0 0 0 0 0 0 0 0 0 0 0 0 0.04 0"/>
<feBlend mode="normal" in2="BackgroundImageFix" result="effect1_dropShadow_6296_3399"/>
<feBlend mode="normal" in="SourceGraphic" in2="effect1_dropShadow_6296_3399" result="shape"/>
</filter>
<linearGradient id="paint0_linear_6296_3399" x1="305.7" y1="478" x2="65.4117" y2="388.148" gradientUnits="userSpaceOnUse">
<stop stop-color="#C6C8D9"/>
<stop offset="0.348326" stop-color="#E0D1DA"/>
<stop offset="1" stop-color="#C6C8D9"/>
</linearGradient>
<linearGradient id="paint1_linear_6296_3399" x1="305.7" y1="478" x2="65.4117" y2="388.148" gradientUnits="userSpaceOnUse">
<stop stop-color="#C6C8D9"/>
<stop offset="0.348326" stop-color="#E0D1DA"/>
<stop offset="1" stop-color="#C6C8D9"/>
</linearGradient>
<linearGradient id="paint2_linear_6296_3399" x1="-44.0367" y1="56.8691" x2="229.617" y2="292.481" gradientUnits="userSpaceOnUse">
<stop stop-color="#C6C8D9"/>
<stop offset="0.348326" stop-color="#E0D1DA"/>
<stop offset="1" stop-color="#C6C8D9"/>
</linearGradient>
<linearGradient id="paint3_linear_6296_3399" x1="-44.0368" y1="56.8691" x2="229.617" y2="292.481" gradientUnits="userSpaceOnUse">
<stop stop-color="#C6C8D9"/>
<stop offset="0.348326" stop-color="#E0D1DA"/>
<stop offset="1" stop-color="#C6C8D9"/>
</linearGradient>
<clipPath id="clip0_6296_3399">
<rect width="376" height="480" fill="white"/>
</clipPath>
</defs>
</svg>
